<?xml version="1.0" encoding="utf-8"?>
<svg version="1.1" id="Layer_1" xmlns="http://www.w3.org/2000/svg" xmlns:xlink="http://www.w3.org/1999/xlink" x="0px" y="0px"
	 viewBox="0 0 1920 350" style="enable-background:new 0 0 1920 350;" xml:space="preserve">
<style type="text/css">
	.st0{fill:none;stroke:#697E6E;stroke-linecap:round;stroke-linejoin:round;stroke-miterlimit:10;}
	.st1{fill:none;stroke:#8E7583;stroke-miterlimit:10;}
	.st2{fill:none;stroke:#D3C9CF;stroke-miterlimit:10;}
	.st3{fill:none;stroke:#BCADB5;stroke-miterlimit:10;}
</style>
<path id="XMLID_5_" class="st0" d="M1920,264.5c-1.2,0.6-4.2,6.8-7.3,7.5c-1.8,0.4-2.2-1.4-5.3-1.7c-2.9-0.2-6,1-6,2
	c0,1.4,5.3,2.5,6,2.7c3.4,7.1,3,7.3,3,7.3c-0.4,0.3-1.9-2.5-5-4c-4.6-2.3-10.9-0.9-11.3,1c-0.3,1.3,2.2,3,5.3,5
	c5.3,3.5,8.7,3.9,8.7,5.3c-0.1,1.2-2.5,2.4-4.3,2c-1.2-0.3-1.5-1.1-3-2.3c-1.5-1.2-4.8-3.1-6.7-2c-1.6,1-1.4,4-1.3,4.7
	c0.2,2.5,1.6,4.2,2,4.7c2.1,2.5,3.8,2,6.3,4.7c1.2,1.3,2.5,3.3,2,4c-0.4,0.6-1.7-0.2-4.3,0c-1.1,0.1-3.3,0.3-3.7,1.3
	c-0.3,0.7,0.3,1.4,1.7,3.3c2.9,4.2,2.6,4,3,4.3c3.6,3.2,10.7,0.1,11,1c0.2,0.6-2.2,2.1-5,2.7c-1.9,0.4-2.6,0-4.7,0
	c-3.5,0-8.1,1.1-8.3,2.7c-0.3,1.8,5,3.6,4.7,4.7c-0.3,1-5.5-0.3-6,1c-0.3,0.8,1.8,1.6,2,3.3c0.2,2.6-4.3,4.9-7.7,6.7
	c-2.6,1.4-4,2.1-5.3,1.7c-2-0.6-2.2-2.6-5-4c-2-1-3.6-0.7-3.7-1.3c-0.1-0.9,3.1-1,5-3.7c1.5-2.1,0.4-3.3,2-5.3c1.3-1.6,2.3-1.1,4-3
	c1.4-1.4,2.7-3.8,2-4.7c-0.6-0.8-2,0.3-4-0.3c-2.7-0.9-3-4.1-4.3-4c-1.5,0.1-1.2,4.5-4,8c-3.9,4.7-11.9,5.1-13,3.3
	c-0.2-0.3,0-0.4-0.4-2.8c-0.1-0.8-0.2-1.6-0.3-2.2c-0.2-1.2-0.8-3.9-2.3-4.7c-1.8-0.9-3.8,1.1-4.7,0.3c-0.8-0.8,1.4-2.9,1-6
	c-0.3-2-1.3-2.1-3-5.3c-1.9-3.7-2-6.4-2.7-6.3c-1.1,0-0.3,6.4-3.7,8.3c-2.1,1.2-4.7,0-5.3,1.3c-0.5,1,0.1,3.2,0.2,3.4
	c0,0,0,0.1,0,0.1c0,0.1,0.1,0.3,0.3,0.6c0.2,0.3,0.3,0.4,0.4,0.6c0,0,0.1,0.1,0.1,0.3c0.1,0.5-1.3,4.7-4,5c-2.1,0.2-3.2-2.2-4.3-1.7
	c-1.2,0.5-1,3.3-0.8,5.8c0.3,4.1,1.2,7.8,1.1,7.9c-0.1,0-1.1-8.5-4.7-9.3c-1.8-0.4-3.1,1.4-4.7,0.7c-1.9-0.9-1.6-4.3-2.3-4.3
	c-1.3-0.1-2.3,9.6-4.3,9.7c-1,0-2.2-2.1-2.3-4c-0.3-2.6,1.5-4,0.7-5.3c-0.8-1.3-3.1-0.8-3.3-1.7c-0.3-1.2,3.9-2.2,4.3-4.7
	c0.2-1-0.1-3.3,0-3.6c0,0,0,0,0,0c-0.1-0.2-1.9,0.9-2.4,1.2c-0.7,0.4-0.8,0.5-0.9,0.5c-0.8-0.3,0.3-3.8-0.7-4.3
	c-1.5-0.9-7.3,5.9-7.7,5.7c-0.3-0.3,6.2-7.2,4.7-9.7c-0.8-1.3-3.1-0.2-6.3-2.3c-1-0.6-2.1-1.3-2.7-2.7c-1.1-2.4,0.8-4.1,0-5.3
	c-1.5-2.1-8.2,2.4-11.7-0.3c-2-1.6-2.5-5.4-1.3-7.7c0.7-1.3,1.3-1.1,2.3-2.7c1.3-2.1,2.1-5.6,0.3-8.3c-0.2-0.3-1.6-2.3-4-2.7
	c-2.8-0.4-5,1.8-5.3,1.3c-0.4-0.5,2.7-2.4,3.7-6c0.2-0.6,1-3.5-0.3-4.7c-2.2-1.9-8.8,2.8-9.3,2c-0.5-0.8,6.2-5,5.3-7.3
	c-0.4-1-2.1-1.3-4.3-1.7c-1.9-0.3-4.3-0.7-6.7,0.7c-0.5,0.3-1.9,1.1-2.7,2.7c-1.1,2.1-0.4,4.3-0.7,4.3c-0.3,0-0.2-4.6-3-7
	c-1.5-1.2-3.9-2-5.3-1c-1.4,1-1.5,3.5-1.3,4.9c0,0,0,0.1,0,0.1c0.4,2.8,1.9,4.1,1.7,4.3c-0.3,0.3-2.2-2.7-5-3
	c-2.6-0.3-5.8,1.6-6.7,4.3c-0.9,2.7,0.7,5.2,1.7,6.7c2.8,4.4,7,5.5,6.7,6.3c-0.3,0.8-4.6,0.6-8.7-1c-3.7-1.5-5.1-3.3-6-2.7
	c-0.6,0.4-0.3,1.5,1,8.3c0.7,3.6,0.8,4.4,1.7,5c2.3,1.5,6.6-0.9,6.7-0.7c0.1,0.2-4.4,1.4-5.7,4.7c-0.1,0.3-0.2,0.6-0.3,0.9
	c-0.6,2.4,0,4.3,0.3,5.4c0.5,2.9-0.6,5.5-1.3,7c-0.6,1.4-2.3,5.1-5.7,6c-2.7,0.8-3.8-0.9-5.7,0c-3,1.6-1.9,7.5-3.3,7.7
	c-1.2,0.2-3.6-3.7-2.7-6.7c0.7-2.1,2.6-2.8,2.3-3.7c-0.4-1-3.5-1.4-6-0.3c-2.6,1.1-2.7,3.1-4.7,3.3c-1.6,0.2-1.9-1-4.7-2
	c-3.6-1.3-4.9,0-6.3-1.3c-1.6-1.4-0.2-3.3-1.7-7.3c-0.6-1.6-1.4-4-3.7-5.3c-0.4-0.2-3.5-2-6-0.3c-1.9,1.3-2.9,4.1-2,5.3
	c0.8,1.1,2.4,0.1,4.7,1.3c1.8,1,3.4,3,3,4.3c-0.4,1.3-2.7,0.7-5,2.3c-2.4,1.7-3.2,4.6-3.7,6.3c-1.4,5.3,0.3,9.9,0,10
	c-0.4,0.1-0.5-5.2-4-8.3c-4-3.6-9.6-1.9-10-3.7c-0.3-1.4,2.7-3.8,5.3-3.7c1.8,0.1,2.9,1.4,3.3,1c0.6-0.5-0.7-3.3-2.3-5.3
	c-1.3-1.5-2.7-3.3-4.7-3.3c-2.3,0-3.1,2.4-4.7,2c-1.7-0.4-3-3.6-2-5c0.8-1.2,3.2-1.3,4.7-1c0.6,0.1,1.7,0.5,3.1,0.2
	c0.1,0,0.3-0.1,0.5-0.2c1.5-0.6,1.8-2,2.7-3c1.4-1.6,2.8-0.6,4.7-2c1.5-1.1,2.3-3.1,2.3-4.7c0.1-3-2.6-5.1-6.7-8.3
	c-4.4-3.4-6.6-5.2-9.7-5.7c-6.4-1.1-12.4,2.6-12.9,3c-0.4,0.2-1.3,0.3-1.1,0.7c0.1,0.1,9.6-2.6,11-8.3c0.5-2.2,0-4.8-1.3-5.3
	c-1.7-0.7-4.4,2.1-5.3,3.3c-0.6,0.8-0.9,1.4-0.9,1.4c-0.5,0.9-0.4,1.4-0.9,2.3c-0.3,0.6-0.6,1-0.9,1.3c-1,1.3-3.1,3-6,3.7
	c-1.6,0.4-2.9,0.3-3.7,0.2c-1-0.1-3.8-0.3-4-1.2c-0.2-0.9,2.5-1.3,5.3-4c1.5-1.4,3.4-3.1,3-5c-0.4-2.2-3.6-3.8-5-3
	c-1.1,0.6-0.2,2.1-1.7,4c-1.5,2-4.3,2.6-4.7,2.7c-0.4,0.1-0.6,0.1-0.9,0.1c-2.4,0.2-4-0.3-6.1-0.8c-3.5-0.8-4.9-0.5-5-1
	c-0.2-1,5.2-1.6,5.7-4c0.3-1.6-1.7-3.9-3.7-4c-2.3-0.2-3.6,2.8-4.7,2.3c-1.2-0.5-1.5-4.5,0.3-7.3c1.5-2.3,3.6-2.5,4-4.7
	c0.2-1.2-0.2-2.3-0.7-3.3c-0.5-1.1-1.3-3-3-3.7c-2.8-1.1-6.9,1.5-7,3.7c-0.1,1.7,2.3,2.7,2,3.3c-0.4,0.7-3.7-1-8.3-0.7
	c-0.4,0-4.5,0.4-4.7,1.7c-0.2,1.5,5.2,3.2,5,4c-0.3,1-9.2-1.3-9.7,0c-0.4,1.1,5.6,4.2,5.3,4.7c-0.3,0.6-10.4-4.3-11-3.3
	c-0.5,0.9,7.2,5.2,6.3,7.3c-0.5,1.2-3.6,1.6-6,0.7c-2.6-1-3-3.2-4.3-3c-1.6,0.2-3.2,3.4-2.3,5.7c1.4,3.8,9,3.3,9,4.3
	c0,1.1-8.4,3.7-13,0c-1.5-1.2-2.1-2.7-3.7-2.7c-1.8,0-3.9,2.1-3.7,3.7c0.2,1.3,1.8,1.5,5.3,3.7c2.2,1.3,6,3.7,5.7,5.3
	c-0.3,1.3-3,1-3.3,2.3c-0.5,1.9,4.8,4.1,4.3,5.7c-0.3,1.1-2.7,0.3-4.7,2c-2.1,1.8-1.1,4-3,5.7c-2.2,1.9-6.4,1.8-7.7,0
	c-1-1.4,0.6-2.8,0-5.3c-1-4.2-7-5.9-6.7-6.7c0.3-0.6,3.7,1.4,6.7,0c1.9-0.9,3.7-3.3,3.3-5.7c-0.2-1.4-1.2-2.9-2.7-3.3
	c-1.5-0.4-2.2,0.9-4,0.7c-2.4-0.3-4.5-2.9-4-4c0.4-0.9,2.9-1,4.6-0.7c1.1,0.2,1.6,0.5,1.8,0.3c0.4-0.5-3.9-2.7-4.3-6.3
	c-0.2-2,1-2.5,1-6c0-1.3,0-3.6-1-4c-1.1-0.4-2.1,1.6-5,2.3c-0.4,0.1-3,0.7-3.7-0.3c-0.9-1.3,1.1-5.3,4-6c1.8-0.5,2.9,0.7,3.7,0
	c1.4-1.2,0-6.5-2.7-7.3c-2.3-0.7-5.2,2.2-5.3,2c-0.2-0.3,5.3-3.4,5-6.7c-0.1-1.2-0.9-1.3-2.7-4.3c-1.1-1.9-1.7-3.1-2-4.7
	c-0.5-3,1.1-3.7,0.7-6.3c-0.5-2.9-3-5.6-4.7-5.3c-1.5,0.2-1.1,2.7-3.7,5.3c-2.5,2.5-4.4,1.9-5.3,4c-0.9,1.9,0.6,2.7,0,6
	c-0.3,1.4-0.8,4.4-3,5.7c-0.9,0.5-2.2,0.8-3.4,2.3c-0.2,0.2-0.4,0.4-0.6,0.7c-1.4,2.2,0,4.1-1,5.7c-0.9,1.3-2.3,0.5-3,1.7
	c-1,1.7,1.8,3.6,2.3,8.3c0.2,2-0.2,2.3,0.3,3.3c1.3,2.4,4.5,1.9,5,3.7c0.4,1.5-1.6,2.3-1.7,4.7c-0.1,2.4,1.8,4.4,2,4.3
	c0.2-0.1-1.6-6.8-5.3-7.7c-1.4-0.3-2.2,0.3-4-0.3c-0.4-0.2-2.1-0.8-3-2.3c-1.3-2.2,0-4.3-1-5c-1-0.7-2.5,1.4-4.7,1
	c-1.9-0.4-3.7-2.6-3.7-4.7c0.1-3.1,4.5-4.8,4-6c-0.4-1-3.3,0-7-2.3c-3.4-2.1-3.5-3.9-5-4.3c-1.7-0.5-2.5,1.5-4.3,1
	c-1.7-0.4-1.4-2.1-3.7-4c-2.3-2-3.8-1.1-5.3-3c-1.6-1.9-0.6-3.4-2-4.3c-1.7-1.1-4.6,0.4-7.7,2c-1.9,1-2.9,1.5-3.3,2.3
	c-1.6,3,1.8,7.1,0.7,8c-0.8,0.6-2.5-1.4-4.3-0.7c-1.4,0.5-1,1.9-2.7,3c-1.6,1.1-2.6,0.2-4.3,1.3c-1.8,1.1-2.1,2.8-2.7,2.7
	c-0.9-0.2,0-4.5-1.3-5c-0.9-0.3-2.9,0.8-3.7,2c-0.1,0.1-0.2,0.2-0.3,0.3c-1,0.4-2.3-2.8-3.7-2.7c-1.3,0.2-2.8,3.6-1.7,5.7
	c0.8,1.5,2.5,1.1,3.3,2.7c1.1,1.9-0.8,3.5-0.3,5.7c0.8,4,8.9,5.9,9,5.7c0.1-0.3-12.6-6.8-14.3-4.7c-0.8,1,1.2,3.8,1.3,4
	c2.9,3.9,8.6,4.9,8.7,4.7c0.1-0.4-9.8-5.7-12-3.3c-0.9,1-0.6,3.3,0.3,4.7c0.8,1.1,2,1.7,2.5,2c0.6,0.3,1.1,0.5,1.9,0.7
	c1,0.3,1.5,0.5,2,0.6c0.6,0.1,1.2,0.2,1.9,0.5c0,0,0.2,0.1,0.4,0.2c1,0.6,2.4,2.3,2,3.3c-0.4,1.1-3.2,1.3-5.3,0.7
	c-3.1-0.9-3.8-3.3-5.3-3c-1.4,0.3-2.7,2.9-2,4.7c1,2.6,6.1,2.7,6,3.7c-0.1,0.8-3.1,0.3-5,2.3c-1.4,1.5-2.1,4.1-1,6
	c1.1,2,3.7,2.6,3.8,2.6c0.1,0,0.1,0,0.2,0c2.5,0.5,3.5-0.4,4.3,0c1.6,0.7,0.8,4.7,2,5c0.3,0.1,0.5-0.2,1.9-1.2
	c1.2-0.8,1.8-1.3,2.5-1.5c1.6-0.5,4,0.1,4.3,1.3c0.4,1.2-1.6,3-2.9,3.8c-1.1,0.6-1.7,0.6-1.7,0.9c-0.3,1.4,7.9,3.5,7.7,4.7
	c-0.2,0.9-6.2,1.8-12.3,0c-3.1-0.9-5.2-2.2-9-2c-1.3,0.1-3.6,0.2-4.3,1.7c-0.6,1.2,0.1,2.7,0.7,4c0.3,0.6,1.1,2.2,3,4
	c2.4,2.2,3.7,2,4,3.3c0.4,1.7-1.4,2.6-1,4.3c0.4,1.9,2.9,2.4,2.7,3c-0.2,0.7-3.5,0.9-6.7,0c-1.9-0.5-3.3-1.3-4-0.7
	c-0.3,0.3-0.3,0.7-0.3,1.4c0,1.5,0.7,2.8,1.3,3.9c0.1,0.2,0.2,0.4,0.2,0.4s0.3,0.5,0.6,0.9c1,1.4,2.6,2.5,2.5,3.7
	c-0.1,1-1.1,1.7-2.4,2.5c-1,0.6-1.5,1-2,0.8c-0.5-0.1-0.9-0.7-2-5.7c-0.6-2.7-0.7-3.2-1.1-4.5c-0.2-0.5-0.4-1.1-0.7-2
	c-0.3-1.1-0.4-1.6-0.5-2.5c-0.5-2.4-0.7-3.6-1.3-4c-1.5-1-4.5,1.3-4.7,1c-0.2-0.4,5.9-3.8,5.3-5.7c-0.3-0.9-1.7-0.3-4.7-2
	c-1.5-0.8-3.1-2-4.3-3c-0.6-0.4-1-0.8-1-0.8c-0.5-0.4-0.7-0.6-1.3-1.1c0,0-0.4-0.3-1-0.8c-1.5-1.2-3.9-2.9-5.7-4.3
	c-2.6-2.1-3.8-3.2-3.7-4c0.3-1.5,4.4-2.8,6.7-1.3c1.8,1.1,1.4,3.2,3,3.7c1.6,0.5,3.9-1.1,4.7-3c0.7-1.6-0.1-2.4-0.3-5.3
	c-0.4-4.9,1.3-7.4,0-8.3c-0.9-0.7-1.8,0.4-4.3,0.3c-3.2-0.1-5.8-1.9-5.7-2.3c0.2-0.6,6,2.1,13,0.3c4.1-1.1,5.1-2.8,5.3-3.3
	c1-2,0.5-4.9-0.7-5.3c-1.6-0.6-3.2,3.3-6,3c-1.7-0.2-3.1-1.8-3.7-3.3c-1-3,1.4-5.8,0.7-6.3c-0.9-0.7-4.7,3.7-5.7,3
	c-1-0.7,2.1-6.2,1.3-6.7c-0.7-0.5-4,3.8-4.7,3.3c-0.7-0.5,2.9-5.3,1.3-7.7c-1.5-2.2-6.7-1.5-6.7-2.3c0-0.1,0.1-0.2,0.2-0.3
	c1.8-1.3,4.6-1.8,5.5-3.1c0.7-1.1,0.3-3.2-0.7-3.7c-1.6-0.7-3.4,3.4-7,3.3c-2,0-2.4-1.3-4-1c-2.6,0.6-2.9,4.4-4.3,4.3
	c-1.3-0.1-3-3.4-2.3-6.3c0.7-3.4,3.8-3.7,4.3-7c0.4-2.3-0.6-5-2-5.3c-1.9-0.5-4.6,3.4-4.7,3.3c0,0,4.8-3.6,4.3-7
	c-0.2-1.5-1.5-2.8-2.7-3.3c-3.3-1.4-8.4,1.5-10,5.3c-1.6,3.9,0.8,8.2-0.7,9c-1,0.5-2.4-1.3-3.7-0.7c-1.3,0.7-0.8,3.3-2,3.7
	c-0.5,0.1-1-0.1-1.5-0.4c-1.7-1-2.1-2.6-2.5-2.6c-0.8,0.1,0.1,6-1,6.3c-1,0.3-3.2-3.8-3.3-3.7c-0.3,0.1,6,9.5,4,11.7
	c-1.3,1.4-5.6-0.8-6,0c-0.6,1.1,7.4,5,6.7,7.7c-0.3,1.3-2.6,2.1-4.3,2c-2.4-0.1-2.9-2-5-2c-2.2,0-4.8,2-5,4c-0.3,3.3,5.8,6.3,5.3,7
	c-0.5,0.9-8-3.7-10-1.7c-0.7,0.7-0.5,2.2,0,5c0.5,2.8,0.7,4.3,1.7,5c1.9,1.4,4-0.9,8.7,0c2.4,0.5,3.9,1.4,4.7,2c1.8,1.4,3.4,3.5,3,4
	c-0.7,0.9-6.3-3.8-8.7-2c-0.9,0.7-0.9,1.9-2.7,3.7c-0.7,0.7-1,1-1.3,1.2c-0.7,0.4-1.3,0.6-1.8,1.3c0,0-0.1,0.2-0.2,0.5
	c-0.7,1.9,3.9,7.4,3.9,7.4c0,0-0.3-0.2-0.2-0.4c0.1-0.6,3-1.3,5,0c1.5,1,2.6,3.2,2,4c-1.3,1.7-8.9-3.5-11.3-1c-0.5,0.5,0,0.5-1,4
	c-0.6,1.9-1.2,3.6-0.5,5.1c0,0.1,0.1,0.1,0.1,0.2c1.1,1.7,3.7,1.5,3.7,1.7c0,0.3-6.4-0.8-9.3,2.3c-1.1,1.2-1.9,3.2-1.3,4.7
	c0.6,1.5,2,1.2,3.7,3.3c1.3,1.7,1.1,2.7,2,3c1.6,0.4,3.3-2.4,4-2c0.6,0.4-0.7,2.4-0.3,5c0.4,3.2,2.9,5.1,2.7,5.3c-0.3,0.3-3-3-7.7-5
	c-1.7-0.7-3.6-1.5-4.7-0.7c-1.6,1.2,0.3,4.3-1.3,6c-1.5,1.5-5,1.3-7-0.3c-1.9-1.6-1.3-3.6-3-4.3c-1.6-0.7-2.6,1-5.3,1
	c-2.9,0-6.2-1.8-6.3-3.7c-0.1-1.5,1.8-1.7,4-5c1.6-2.4,1-3,2.3-4.7c2.5-3.1,5.8-2.5,6-4c0.2-1.6-3.8-4.2-7.7-4
	c-1.6,0.1-2.8,0.6-5,1.7c-3.7,1.7-3.9,2.7-7,4c-2.4,1-5,2.1-6.7,1c-1.8-1.2-0.7-3.5-2.7-5.7c-1.9-2-3.6-0.8-5.3-2.3
	c-3.4-3,0.9-9.7-2.7-13.3c-1.6-1.6-4.3-2.2-5.3-1.3c-1.5,1.3,0.8,5.3-0.7,6.3c-1.1,0.7-3-1.1-4-0.3c-0.9,0.6-0.5,2.7,0,4.3
	c0.1,0-2.6,0-3.3,1c-1.1,1.4,1.9,4.2,1,5.7c-0.9,1.4-4.1-0.4-5.7,1c-2.7,2.4,2.1,11.6,1.3,12c-0.5,0.3-3.5-3.4-5.7-8
	c-1.2-2.5-1.4-3.5-2.7-4.3c-2.1-1.3-5.2-0.6-7.3,0.7c-4.1,2.6-5,8.1-5.3,8c-0.3-0.1,2.4-4.8,0.7-8.7c-0.8-1.9-2.4-2.7-2-4
	c0.2-0.8,0.9-1,3-2.3c2.6-1.7,3.9-2.5,4-3.3c0.1-1.5-3-3.9-6-3.7c-4.6,0.3-7.8,6.5-8,6.3c-0.2-0.2,4.2-4.4,3.7-9.3
	c-0.1-0.6-0.3-3-2-4.3c-2.1-1.7-4.4-0.3-5.7-1.7c-1.9-2.1,2-6.8,0.3-8.7c-1.1-1.3-3.7,0.1-9.7,1c-6.3,1-11.2,0.6-11.3,0
	c-0.1-0.7,6.9-1.7,7-4c0.1-1.3-2.1-1.8-2-3.3c0.1-1.5,2.5-1.6,3.3-3.7c0.8-1.8,0.2-4.7-1.7-5.7c-1.9-1-4.4,0.6-5.7,2
	c-2.5,2.8-1.9,7-2.3,7c-0.3,0-0.1-1.8-1-4c-0.4-0.9-1.3-3.3-3-4c-3.5-1.4-8.5,4.9-9.7,4c-0.5-0.3-0.3-1.7,1.7-5.7
	c-4.5-2.7-5.7-3.6-7.3-3.3c-2.1,0.3-4.2,2.5-4,4.3c0.2,2.4,4.3,3.3,4,4.3c-0.3,1.3-6.8,0.8-8.3,0.7c-7.4-0.6-10.3-2.2-11.7-0.7
	c-1.1,1.3-0.7,4.1,0.7,5c1.1,0.7,2.2-0.3,4.3-0.3c3.6-0.1,7.2,2.5,7,3.7c-0.3,1.7-8.9,1.1-9,2.3c-0.1,1.1,7,1.8,7.3,4.3
	c0.1,1.2-1.2,2.7-2.7,3c-2.7,0.6-4.6-3-6-2.3c-1.3,0.7-1.3,5,0.3,8.3c1.1,2.2,2.2,2.6,2,4c-0.2,2-2.7,3.5-4.7,4
	c-2.8,0.8-3.6-0.6-6,0c-3.7,1-4.8,5.4-6,5c-1.6-0.5,0.4-8.6-2-9.7c-1.7-0.8-4.4,2.5-5.3,1.7c-0.4-0.3-0.1-1.1,0.3-3.3
	c0.8-3.5,1.1-5.3,0.7-6c-1.3-1.9-6.2-0.5-6.3-1c-0.1-0.3,1.9-0.5,3.4-2.1c0.3-0.3,1.2-1.3,1.6-2.9c0.5-2.2-0.2-5.2-1.7-5.7
	c-2-0.7-4.8,3.4-5.3,3c-0.4-0.3,1.3-2.3,1.7-5c0.6-3.8-1.4-8.7-4-9c-2.1-0.2-4.7,2.4-5,5c-0.3,3.1,2.8,5.4,2,6.3
	c-0.7,0.9-3.8-1-4.7,0c-0.7,0.8,1.1,2.4,0.7,4.7c-0.3,1.4-1.2,1.6-3.7,4.3c-2.3,2.5-3.7,4-3.3,5.3c0.3,1.4,2.1,1.4,4,2.7
	c4.9,3.4,5.3,12.1,4,12.7c-0.7,0.3-2.2-1.6-3-3c-1.5-2.7-0.5-4-2-5.3c-0.8-0.8-1.4-0.6-4-2.3c-0.4-0.3-0.7-0.5-1-0.7
	c-2.7-2.1-3.3-4.1-4-4c-1.2,0.2-0.8,6.6-1.7,6.7c-0.7,0.1-0.7-4.8-4-7.3c-2.1-1.6-4.6-1.6-6.7-1.7c-1.4,0-5.7-0.1-6.3,1.7
	c-0.4,1.1,1.1,2,4.7,6c4.3,4.8,5,6.7,7.3,7c2.2,0.3,3.3-1.1,4.3-0.3c1.8,1.3,0.5,6.2-1,9.3c-0.9,1.7-2,4-4.7,5.3
	c-0.6,0.3-4.6,2.3-7.3,0c-2.4-2-2-5.9-1.7-6c0.2-0.1,0.4,0.9,1.5,1.8c0.8,0.6,2.1,1.2,3.2,0.9c2.2-0.6,3.3-4.6,2-6.3
	c-0.9-1.3-2.5-0.4-5.3-2c-2-1.2-1.7-1.9-3.3-2.7c-2.9-1.4-4.8,0.7-7-0.3c-2.2-1-1.5-3.5-3.7-8.3c-1-2.4-3.7-8.4-8.7-9.7
	c-0.5-0.1-3.7-0.9-5.7,1c-2,1.9-1.9,5.7-0.3,7c1.3,1.1,2.9-0.2,6,1c0.9,0.4,2.8,1.1,3,2.3c0.3,1.7-2.9,2.8-5.3,5.3
	c-5.1,5.3-3.6,13.6-5,13.7c-1.4,0.1-1.3-8.2-6-10.3c-2.3-1-4.8-0.2-5-1c-0.2-0.7,1.4-2.2,3.3-2.7c3.1-0.8,4.8,1.4,7.3,0.3
	c1.1-0.5,2.3-1.5,2.3-2.7c0-1-0.8-1.6-4-4c-3.3-2.5-5-3.7-5.7-4c-3.6-1.5-6.2-0.9-6.3-1.7c-0.1-0.8,2.7-2.1,5.3-2.7
	c2.2-0.5,3.2-0.1,5-1c0.2-0.1,1.4-0.8,2.6-2.1c1.3-1.5,1.9-3.1,2.1-3.9c0.6-4.8,0.7-5.3,0.7-5.3c0.1-1.2,0.5-6.3-2.3-11
	c-0.8-1.4-2.4-4-5.3-5.3c-6.4-2.9-15,2.4-15,2.3c-0.1-0.1,11.4-2.7,13-9c0.5-1.9,0.2-4.8-1.7-6c-1.6-1-4.1-0.6-5.3,0.7
	c-1.4,1.4-0.3,2.8-1.3,5.3c-1.3,3.3-5.2,5.7-8.3,5.3c-1.4-0.2-1.3-0.7-3.7-1.7c-4.5-1.9-8.3-1.5-8.3-2c0-0.6,5.1,0.1,8-3
	c2-2.1,2.5-5.7,1.3-6.7c-1.3-1.1-4.1,1.4-5.3,0.3c-1-1,0-3.8,0.7-5.3c1.8-3.8,4.5-4.4,4.3-6.3c-0.2-1.6-2.1-3.1-3.7-3
	c-2.4,0.1-3.2,3.8-5,3.7c-1.1-0.1-1.9-1.5-2.3-2.7c-4.7,3.1-5,3.3-5,3.3c-3.2,2.9-1.4,5.3-4.3,8.7c-2.7,3-5,2-6.7,5
	c-1.7,2.9-0.5,5.9-1.7,6.3c-1.5,0.5-4.1-4.2-5.3-3.7c-1,0.4,0.3,3.4-1.3,5c-1,0.9-1.9,0.3-3.7,1c-3.1,1.3-2.9,4.5-5,5
	c-2.8,0.7-5.1-4.1-7-3.3c-1.2,0.5-1.7,3.1-1,5c1,2.8,4.1,2.9,4.3,5c0.2,1.9-2.2,2.6-2,4.7c0.2,2,2.4,2.3,2.7,4.3
	c0.2,2.3-2.4,4.3-3.3,5c-1,0.7-3.9,2.9-6,2c-3.6-1.5-2.4-10.4-4.3-10.7c-1-0.1-1.2,2.2-3.7,3.7c-2.5,1.6-6.1,1.5-6.7,0.3
	c-0.8-1.7,5.9-4.1,6-9c0.1-3.6-3.4-6.8-4-7.1c0,0-0.3-0.2-0.7-0.4c-0.3-0.2-0.7-0.3-1-0.5c-3.2-1.6-4-2.3-4.7-3.3
	c-1.5-2.5-0.5-4.6-2-5.7c-1.3-0.9-3.7-0.4-4.7,1c-0.9,1.3-0.5,3,0,4.7c0.7,2.7,1.8,3.1,1.7,4.3c-0.3,2.5-5,4.9-7.3,3.7
	c-1.9-1.1-1.2-4-3.3-5c-1-0.4-2-0.2-3.7,0.3c-1.7,0.5-4.6,1.3-5,3.3c-0.3,1.6,1.1,3.1,1.3,3.3c1.6,1.7,3.3,1.1,3.7,2.3
	c0.5,1.4-1.3,3.7-2,4.7c-1.9,2.5-1.9,2.6-2,2.7c-1.4,0.9-5-3.3-6-2.7c-1,0.7,1.6,5.7,0.7,6.3c-1,0.7-5-4.5-6.3-3.7
	c-1.1,0.7,0.8,4.7-0.7,5.7c-1,0.7-2.2-0.9-4.3-0.7c-2.7,0.2-5.4,3-5,4.7c0.3,1.5,2.9,1.1,5.3,3.7c1.8,1.9,2.6,4.5,2,5
	c-0.8,0.7-3.5-2.2-4.7-1.3c-1,0.7-0.3,3.7,0.3,5.3c0.9,2.4,1.9,2.7,1.7,4c-0.2,1.2-1.5,3-3.1,3.4c-0.2,0.1-0.5,0.1-0.6,0.3
	c-0.3,0.6,1.4,1.6,2,3.3c0.5,1.3,0.3,2.9-0.3,4c-1,1.6-2.6,1.2-5.7,2.3c-0.6,0.2-4.6,1.7-7.7,5c-2.4,2.5-2.6,4.3-4,4.3
	c-2.1,0.1-3-3.8-4.7-3.7c-2.4,0.2-4,7.9-3.7,8c0.2,0.1,2.5-3.5,1.3-5.3c-0.9-1.4-3.5-1.4-5.3-1.3c-1.3,0-1.5,0.2-5.3,0.7
	c-2.9,0.4-3.5,0.3-4,0c-1.7-1.1-1.2-3.9-2-4c-0.7-0.1-2.2,2.2-2,4.7c0.2,2.6,2.1,3.1,2.7,5.3c1.2,4.3-3.8,9.8-5,9.3
	c-1.2-0.5,1.2-7.7-0.3-8.3c-1-0.4-2.1,2.6-6.3,4.7c-1.9,0.9-2.3,0.6-4,1.7c-2.3,1.5-2.4,2.5-4.3,3.3c-0.6,0.3-3.1,1.3-5,0
	c-0.5-0.4-0.8-0.8-1.1-1.3c0.8-0.9,1.5-1.9,1.3-3c-0.3-1.6-2.4-1.9-2.3-3c0.1-1.4,3.5-3.1,6.3-2.3c2.1,0.6,2.5,2.2,3.7,2
	c2-0.3,3.8-5.2,2.3-8.3c-0.7-1.5-1.7-1.5-2-3c-0.4-2.1,1.4-2.9,1-5c-0.3-1.7-1.9-3.3-3.7-3.7c-0.4-0.1-0.8-0.1-0.9-0.1
	c-2.4,0.1-3.8,2.6-4.1,2.4c-0.6-0.3,5.7-9.4,3.7-11.7c-1.4-1.5-5.9,0.6-6.3-0.3c-0.5-1,4.4-3.8,4-4.7c-0.4-0.9-6.5,1.2-6.7,0.7
	c-0.2-0.5,4.4-1.7,5-4.7c0.3-1.3-0.2-2.7-1-3.7c-1.3-1.7-3.3-1.5-3.3-2.3c-0.1-1.1,3.9-1.5,4-3c0.1-1.1-2-2.7-4-2.7
	c-1.8,0.1-2.1,1.4-4.7,2.3c-2.2,0.8-4.9,0.9-5.3,0c-0.4-0.9,1.6-2.6,2-3c4.4-3.8,10.7-3.7,11.3-3.7c3.5,0.1,5.3,1.1,6.3,0
	c0.9-1,0.4-2.7,0-4c-0.6-2-2.4-6.2-5-6.3c-1.8-0.1-2.1,1.8-6,3.7c-1.4,0.6-3.7,1.5-4,1c-0.4-0.7,2.5-3.6,4-5
	c1.6-1.6,2.1-1.8,2.3-2.7c0.5-1.7-0.2-4.6-2.3-5.3c-1.8-0.7-3.8,0.5-4.7,1.7c-1.2,1.6-0.9,3.7-1,3.7c-0.1,0,1-8.6-1-9.3
	c-1.2-0.4-2.4,2.1-4,1.7c-1.4-0.4-2.5-3.2-1.7-5c1.1-2.3,4.4-1.3,5.7-3.7c1.1-2,0.1-5.3-1.7-6c-1.9-0.8-4.3,1.5-4.7,1
	c-0.5-0.6,4.3-4.6,3.7-5.7c-0.6-1.1-6,1.5-6.7,0.3c-0.5-0.8,1.3-2.8,1.7-3.3c1.1-1.3,2.1-1.8,2-2.1c-0.2-0.6-3.9,1.2-5,0
	c-0.8-0.9,0.6-2.4,1-6.3c0.3-2.6,0.4-3.9-0.3-5c-1.4-1.9-4-0.4-8-2.3c-2.8-1.4-3.1-2.9-4.7-2.7c-2,0.3-3.8,3.1-3.3,5.3
	c0.4,2.2,2.9,3.3,2.7,3.7c-0.4,0.6-6-3.5-9-1.7c-1.6,0.9-2.3,3.4-1.7,5c0.7,1.7,2.6,1.3,4.7,3.3c2.1,2.1,3.2,5.6,2,7
	c-1,1.1-3.3,0.7-5,0.3c-3.2-0.6-4.5-2-5.3-1.3c-1.1,0.9,0.7,4-0.3,4.7c-0.6,0.4-1.7-0.5-5-2.3c-4-2.3-4.7-2.1-5-2
	c-1.8,0.7-2.6,4.4-1.3,7c0.7,1.5,2,2.3,2.4,2.5c2,1.1,4.2,0.7,4.2,0.8c0,0.2-5.9-0.5-7,1.7c-0.9,1.7,2.3,3.4,2,7
	c-0.2,2.9-2.3,3.6-2,6.3c0.3,2.3,2,3.7,1.7,4c-0.6,0.6-5.4-4.7-7-3.7c-1.5,1,0.9,7.1,0.3,7.3c-0.6,0.2-2.9-7.2-4.7-7
	c-1.2,0.2-2,3.6-1.7,6.3c0,0,0.1,0.7,1.3,4.7c-1.1,1.5-2.5,3-3.7,2.7c-1.7-0.5-1.2-4.5-3-5c-1.4-0.4-3.8,1.6-4,3.7
	c-0.2,2,1.7,3.5,4,5.3c2.9,2.3,5.6,3.4,6.3,3.7c5.9,2.3,12,2.6,12,2.3c0.1-0.4-14.8-4.7-17.3-0.7c-1,1.6,0.2,4.1,1,5.3
	c1.5,2.2,3.5,2.4,10.7,5c4.2,1.5,6.4,2.3,6.3,2.7c-0.1,1.3-10.1,3.5-15.3-1c-1.3-1.1-2.1-2.5-3.3-2.3c-1.8,0.3-3.5,4.1-2.3,6
	c0.9,1.6,3.1,0.9,8.7,2.3c3.2,0.8,6.4,2.1,6.3,2.7c-0.2,0.9-8.5-0.6-9.3,1.7c-0.5,1.4,2.5,2.8,2,4.7c-0.5,2-4.4,1.1-7,4
	c-2.2,2.4-0.8,4.6-3,6.3c-2.4,1.9-4.8,0.1-6.7,2c-1.7,1.7-1.6,5-0.3,7.3c1.4,2.7,4.8,4.6,6.7,3.7c2.4-1.2,1-6.3,3-7
	c1.5-0.5,4.4,1.8,5,4.7c0.1,0.4,0.6,2.6-0.7,4.3c-1.1,1.4-2.7,1.6-5.5,1.9c-3.5,0.4-5.9,0.6-8.7-0.7c-2.9-1.4-4.5-3.7-5-4.7
	c-1.7-2.9-0.9-4.4-2-10c-0.8-4.2-2.3-8.8-3-8.7c-0.3,0-0.5,0.9-1.3,8.3c-0.4,3.2-0.5,4.2-1.3,5c-1.3,1.3-2.6,0.7-6,1.3
	c-4.1,0.8-7.4,2.7-7.3,3c0.1,0.3,3.4-0.4,3.3-0.7c0-0.3-4.2,1.1-8.3-0.7c-2.7-1.1-3.1-2.5-4.7-2.3c-2.4,0.3-2.4,3.8-5,4.7
	c-2.1,0.7-4.8-0.7-6.7-2.5c-3.2,0.9-4.6,0.5-5.3-0.2c-1.5-1.6,0.2-4.8-1.3-6c-1.1-0.8-2.9-0.1-4.7,0.7c-4.7,2-7.4,5.3-7.7,5
	c-0.2-0.2,2.3-2.2,2.7-5.3c0.3-2.6-0.9-4.6-0.3-5c0.7-0.4,2.4,2.4,4,2c0.9-0.3,0.7-1.3,2-3c1.6-2.1,3.1-1.9,3.7-3.3
	c0.6-1.5-0.2-3.5-1.3-4.7c-3-3.2-9.3-1.8-9.3-2.3c0-0.3,2.6-0.1,3.7-1.7c0.3-0.5,0.5-1.2-0.3-5.3c-0.5-2.5-0.7-3.7-1-4
	c-2.5-2.5-10,2.7-11.3,1c-0.6-0.8,0.4-3,2-4c1.4-0.9,3.4-0.9,5,0c-1.5,2.1,4.5-4.5,3.7-7c-0.4-1.2-1.4-0.9-3.3-3
	c-1.9-2.1-1.5-3-2.7-3.7c-2.9-1.7-8,2.8-8.7,2c-0.4-0.5,1.2-2.6,3-4c0.7-0.6,2.3-1.5,4.7-2c4.7-0.9,6.8,1.4,8.7,0
	c0.9-0.7,1.2-2.2,1.7-5c0.5-2.8,0.7-4.3,0-5c-2-2.1-9.5,2.5-10,1.7c-0.4-0.7,5.7-3.7,5.3-7c-0.2-2-2.8-4-5-4c-2.1,0-2.6,1.9-5,2
	c-1.7,0.1-4-0.7-4.3-2c-0.7-2.7,7.2-6.5,6.7-7.7c-0.4-0.8-4.7,1.4-6,0c-2-2.2,4.3-11.5,4-11.7c-0.2-0.1-2.3,4-3.3,3.7
	c-1.1-0.4-0.2-6.2-1-6.3c-0.4-0.1-0.8,1.6-2.5,2.6c-0.6,0.3-1,0.6-1.5,0.4c-1.2-0.4-0.7-3-2-3.7c-1.2-0.7-2.7,1.2-3.7,0.7
	c-1.5-0.8,0.9-5.1-0.7-9c-1.6-3.8-6.7-6.8-10-5.3c-1.2,0.5-2.5,1.8-2.7,3.3c-0.5,3.4,4.4,7,4.3,7c0,0-2.7-3.8-4.7-3.3
	c-1.4,0.4-2.4,3-2,5.3c0.6,3.3,3.6,3.6,4.3,7c0.6,3-1,6.3-2.3,6.3c-1.4,0.1-1.7-3.8-4.3-4.3c-1.6-0.3-2,1-4,1
	c-3.6,0.1-5.4-4.1-7-3.3c-1,0.4-1.4,2.6-0.7,3.7c0.9,1.3,3.7,1.7,5.5,3.1c0.1,0.1,0.2,0.1,0.2,0.3c0,0.8-5.2,0.2-6.7,2.3
	c-1.6,2.4,2.1,7.2,1.3,7.7c-0.7,0.4-3.9-3.8-4.7-3.3c-0.8,0.5,2.3,6,1.3,6.7c-0.9,0.7-4.8-3.7-5.7-3c-0.7,0.5,1.7,3.4,0.7,6.3
	c-0.5,1.5-2,3.2-3.7,3.3c-2.8,0.3-4.4-3.6-6-3c-1.2,0.5-1.7,3.3-0.7,5.3c0.3,0.6,1.2,2.3,5.3,3.3c7,1.8,12.8-0.9,13-0.3
	c0.1,0.4-2.5,2.2-5.7,2.3c-2.5,0.1-3.4-1-4.3-0.3c-1.3,1,0.4,3.4,0,8.3c-0.3,3-1,3.8-0.3,5.3c0.8,1.9,3.1,3.5,4.7,3
	c1.6-0.5,1.2-2.5,3-3.7c2.3-1.4,6.3-0.2,6.7,1.3c0.2,0.8-1.1,1.9-3.7,4c-2.1,1.8-2.8,2.1-5.7,4.3c-1.8,1.4-1.8,1.5-3.3,2.7
	c-2.1,1.6-3.2,2.4-4.3,3c-2.9,1.5-4.4,1.1-4.7,2c-0.5,1.9,5.6,5.3,5.3,5.7c-0.2,0.3-3-1.9-4.7-1c-0.9,0.5-0.9,1.6-1.3,4
	c-0.7,4.1-1,2.7-2.3,9c-0.8,3.6-1,5.4-2,5.7c-0.5,0.1-1-0.2-2-0.8c-1.2-0.8-2.3-1.5-2.4-2.5c-0.1-0.8,0.7-1,2.5-3.7
	c0.3-0.5,0.5-0.8,0.8-1.3c0.7-1.2,1.4-2.4,1.3-3.9c0-0.7,0-1.1-0.3-1.4c-0.7-0.7-2.1,0.1-4,0.7c-3.1,0.9-6.5,0.7-6.7,0
	c-0.2-0.6,2.2-1.1,2.7-3c0.4-1.8-1.4-2.7-1-4.3c0.3-1.3,1.6-1.2,4-3.3c1.9-1.8,2.7-3.4,3-4c0.6-1.3,1.3-2.8,0.7-4
	c-0.8-1.4-3-1.6-4.3-1.7c-3.8-0.2-5.9,1.1-9,2c-6.1,1.8-12.2,0.9-12.3,0c-0.2-1.1,8-3.3,7.7-4.7c-0.1-0.4-0.7-0.3-1.7-0.9
	c-1.4-0.8-3.3-2.5-2.9-3.8c0.3-1.2,2.7-1.8,4.3-1.3c0.7,0.2,1.3,0.6,2.5,1.5c1.4,1,1.5,1.3,1.9,1.2c1.1-0.3,0.3-3.9,2-5
	c1.1-0.7,2,0.5,4.3,0c0.4-0.1,2.9-0.6,4-2.7c1-2,0.4-4.5-1-6c-1.9-2-4.9-1.6-5-2.3c-0.1-1,5-1,6-3.7c0.7-1.7-0.6-4.3-2-4.7
	c-1.5-0.3-2.2,2.1-5.3,3c-2.1,0.6-4.9,0.5-5.3-0.7c-0.4-0.9,0.8-2.6,2-3.3c0.9-0.6,1.2-0.3,4.3-1.3c1.1-0.4,1.5-0.5,1.9-0.7
	c0.6-0.3,1.7-0.9,2.5-2c0.9-1.4,1.2-3.7,0.3-4.7c-2.2-2.3-12.1,3-12,3.3c0.1,0.3,5.7-0.7,8.7-4.7c0.1-0.2,2.2-3,1.3-4
	c-1.7-2.2-14.4,4.4-14.3,4.7c0.1,0.2,8.2-1.6,9-5.7c0.4-2.1-1.4-3.8-0.3-5.7c0.9-1.5,2.5-1.1,3.3-2.7c1.1-2.1-0.3-5.5-1.7-5.7
	c-1.4-0.2-2.7,3.1-3.7,2.7c-0.2-0.1-0.2-0.2-0.3-0.3c-0.8-1.2-2.8-2.4-3.7-2c-1.3,0.5-0.4,4.8-1.3,5c-0.6,0.1-0.9-1.5-2.7-2.7
	c-1.8-1.1-2.7-0.2-4.3-1.3c-1.7-1.1-1.3-2.5-2.7-3c-1.8-0.7-3.5,1.3-4.3,0.7c-1.1-0.9,2.3-5,0.7-8c-0.4-0.8-1.4-1.3-3.3-2.3
	c-3.1-1.6-6-3.1-7.7-2c-1.4,0.9-0.4,2.4-2,4.3c-1.6,1.9-3,1-5.3,3c-2.2,1.8-2,3.4-3.7,4c-1.5,0.5-3.1-0.2-4.3-1
	c-4.3,3.9-5,4.3-5,4.3c-3.6,2.1-6.4,0.9-7,2.3c-0.4,0.8,0,2.5,4,6c-2.7,4.4-3.7,4.7-3.7,4.7c-2,0.6-3.6-1.7-4.7-1
	c-1,0.7,0.3,2.8-1,5c-0.9,1.5-2.6,2.2-3,2.3c-1.8,0.7-2.6,0-4,0.3c-3.7,0.8-5.6,7.5-5.3,7.7c0.2,0.1,2.1-2,2-4.3
	c-0.1-2.4-2.1-3.2-1.7-4.7c0.5-1.8,3.7-1.3,5-3.7c0.5-1,0.1-1.3,0.3-3.3c0.5-4.7,3.3-6.7,2.3-8.3c-0.7-1.1-1.9-0.4-3-1.7
	c-1.4-1.7,0.2-3.5-1-5.7c-0.9-1.6-2-1-4-3c-0.3-0.3-2.4-2.4-3-5.7c-0.6-3.2,0.9-4,0-6c-1-2.1-2.9-1.5-5.3-4
	c-2.6-2.7-2.2-5.1-3.7-5.3c-1.7-0.3-4.2,2.5-4.7,5.3c-0.4,2.6,1.2,3.3,0.7,6.3c-0.3,1.6-0.9,2.8-2,4.7c-1.7,3.1-2.6,3.1-2.7,4.3
	c-0.3,3.3,5.2,6.4,5,6.7c-0.2,0.2-3-2.7-5.3-2c-2.7,0.8-4.1,6.1-2.7,7.3c0.8,0.7,1.8-0.5,3.7,0c2.9,0.7,4.9,4.7,4,6
	c-0.7,1-3.3,0.4-3.7,0.3c-2.9-0.7-3.9-2.8-5-2.3c-1,0.4-1,2.7-1,4c0,3.5,1.2,4,1,6c-0.4,3.6-4.7,5.8-4.3,6.3
	c0.1,0.2,0.7-0.1,1.8-0.3c1.6-0.3,4.1-0.3,4.6,0.7c0.5,1.1-1.6,3.7-4,4c-1.8,0.2-2.5-1.1-4-0.7c-1.4,0.4-2.4,2-2.7,3.3
	c-0.4,2.4,1.4,4.8,3.3,5.7c3,1.4,6.4-0.6,6.7,0c0.3,0.7-5.6,2.5-6.7,6.7c-0.6,2.5,1,3.9,0,5.3c-1.3,1.8-5.5,1.9-7.7,0
	c-1.7-1.5-0.9-3.9-3-5.7c-2-1.7-4.4-0.9-4.7-2c-0.5-1.6,4.8-3.8,4.3-5.7c-0.3-1.3-3-1.1-3.3-2.3c-0.4-1.6,3.5-4,5.7-5.3
	c3.6-2.2,5.1-2.4,5.3-3.7c0.2-1.6-1.8-3.7-3.7-3.7c-1.5,0-2.2,1.5-3.7,2.7c-4.6,3.7-13,1.1-13,0c0-1.1,7.6-0.6,9-4.3
	c0.8-2.2-0.8-5.5-2.3-5.7c-1.3-0.2-1.8,2-4.3,3c-2.4,1-5.5,0.5-6-0.7c-0.8-2.1,6.8-6.5,6.3-7.3c-0.6-1-10.7,3.9-11,3.3
	c-0.2-0.5,5.8-3.5,5.3-4.7c-0.5-1.3-9.4,1-9.7,0c-0.2-0.8,5.2-2.5,5-4c-0.2-1.3-4.2-1.6-4.7-1.7c-4.6-0.4-7.9,1.4-8.3,0.7
	c-0.3-0.6,2.1-1.7,2-3.3c-0.1-2.2-4.2-4.8-7-3.7c-1.7,0.7-2.5,2.6-3,3.7c-0.4,1-0.9,2.1-0.7,3.3c0.4,2.2,2.5,2.3,4,4.7
	c1.8,2.8,1.5,6.8,0.3,7.3c-1.1,0.5-2.3-2.5-4.7-2.3c-1.9,0.1-3.9,2.4-3.7,4c0.4,2.4,5.8,3,5.7,4c-0.1,0.5-1.5,0.5-5,1
	c-4.9,0.7-5.4,1-7,0.7c-0.9-0.2-3.3-0.7-4.7-2.7c-1.3-1.8-0.6-3.4-1.7-4c-1.4-0.8-4.6,0.8-5,3c-0.4,1.9,1.5,3.6,3,5
	c2.8,2.7,5.5,3.1,5.3,4c-0.2,0.9-3,1.1-4,1.2c-0.8,0.1-2.1,0.2-3.7-0.2c-0.7-0.2-3.8-0.9-6-3.7c-1.7-2-1-2.8-2.7-5
	c-1.2-1.5-3.7-4-5.3-3.3c-1.3,0.6-1.9,3.2-1.3,5.3c1.4,5.7,11,8.3,11,8.3c0,0.1-6.9-5-14-3.7c-3.1,0.6-5.3,2.3-9.7,5.7
	c-4.1,3.2-6.8,5.3-6.7,8.3c0,1.6,0.9,3.5,2.3,4.7c1.7,1.3,2.9,0.5,4.7,2c1.5,1.3,1.3,2.4,2.7,3c1,0.4,1.5,0,3.7,0c2.2,0,4,0,4.7,1
	c1,1.4-0.3,4.6-2,5c-1.6,0.4-2.4-2-4.7-2c-2,0-3.4,1.8-4.7,3.3c-1.7,2-3,4.8-2.3,5.3c0.5,0.4,1.5-0.9,3.3-1c2.7-0.1,5.6,2.3,5.3,3.7
	c-0.4,1.8-6,0.1-10,3.7c-3.5,3.1-3.6,8.4-4,8.3c-0.3-0.1,1.4-4.7,0-10c-0.5-1.8-1.2-4.6-3.7-6.3c-2.3-1.6-4.6-1-5-2.3
	c-0.4-1.3,1.2-3.4,3-4.3c2.3-1.2,3.9-0.2,4.7-1.3c0.9-1.2-0.1-4.1-2-5.3c-2.5-1.6-5.6,0.1-6,0.3c-2.3,1.3-3.1,3.7-3.7,5.3
	c-1.4,4.1-0.1,5.9-1.7,7.3c-1.4,1.3-2.7,0-6.3,1.3c-2.8,1-3.1,2.2-4.7,2c-2-0.2-2.1-2.2-4.7-3.3c-2.5-1.1-5.6-0.7-6,0.3
	c-0.3,0.9,1.7,1.5,2.3,3.7c0.9,3-1.5,6.8-2.7,6.7c-1.4-0.2-0.3-6.1-3.3-7.7c-1.8-0.9-3,0.8-5.7,0c-3.4-1-5.1-4.7-5.7-6
	c-1.2-2.6-1.3-5-1.3-7c-0.1-3.9,0.8-4.6,0-6.3c-1.4-3.3-5.8-4.3-5.7-4.7c0.1-0.3,4.4,2.2,6.7,0.7c0.8-0.6,1-1.4,1.7-5
	c1.3-6.9,1.6-7.9,1-8.3c-0.9-0.6-2.3,1.2-6,2.7c-4,1.6-8.4,1.8-8.7,1c-0.3-0.9,3.9-1.9,6.7-6.3c0.9-1.5,2.5-4,1.7-6.7
	c-0.9-2.8-4.1-4.6-6.7-4.3c-2.8,0.3-4.6,3.3-5,3c-0.3-0.2,1.3-1.8,1.7-4.3c0.1-0.4,0.5-3.8-1.3-5c-1.5-1-3.9-0.2-5.3,1
	c-2.8,2.4-2.7,7-3,7c-0.2,0,0.4-2.2-0.7-4.3c-0.8-1.6-2.1-2.4-2.7-2.7c-2.4-1.4-4.8-1-6.7-0.7c-2.3,0.4-4,0.6-4.3,1.7
	c-0.9,2.4,5.8,6.6,5.3,7.3c-0.5,0.8-7.2-3.9-9.3-2c-1.3,1.1-0.5,4.1-0.3,4.7c1,3.6,4,5.5,3.7,6c-0.3,0.4-2.6-1.7-5.3-1.3
	c-2.4,0.3-3.8,2.4-4,2.7c-1.8,2.7-1,6.3,0.3,8.3c1,1.5,1.7,1.3,2.3,2.7c1.1,2.3,0.7,6.1-1.3,7.7c-3.4,2.7-10.2-1.8-11.7,0.3
	c-0.8,1.2,1.1,2.9,0,5.3c-0.6,1.3-1.7,2-2.7,2.7c-3.3,2.1-5.5,1.1-6.3,2.3c-1.6,2.4,5,9.4,4.7,9.7c-0.3,0.3-6.2-6.6-7.7-5.7
	c-0.9,0.6,0.2,4.1-0.7,4.3c-0.2,0.1-0.4-0.1-0.9-0.5c-0.9-0.6-1.8-1-2.4-1.2c0,0-0.4,2.2,0,3.7c0.7,2.8,4.6,3.6,4.3,4.7
	c-0.2,0.9-2.5,0.3-3.3,1.7c-0.8,1.3,0.9,2.7,0.7,5.3c-0.2,1.9-1.4,4-2.3,4c-2-0.1-3-9.8-4.3-9.7c-0.8,0.1-0.4,3.4-2.3,4.3
	c-1.6,0.8-2.9-1.1-4.7-0.7c-3.5,0.8-4.6,9.4-4.7,9.3c-0.1,0,0.8-3.7,1.1-7.9c0.2-2.5,0.4-5.3-0.8-5.8c-1.1-0.5-2.2,1.8-4.3,1.7
	c-2.3-0.2-4.4-3.1-4-5c0.1-0.6,0.4-0.6,0.8-1.5c0.1-0.3,0.9-2.4,0.2-3.5c-0.8-1.4-3.2-0.1-5.3-1.3c-3.4-1.9-2.6-8.3-3.7-8.3
	c-0.7,0-0.7,2.6-2.7,6.3c-1.7,3.2-2.7,3.4-3,5.3c-0.4,3.1,1.8,5.2,1,6c-0.8,0.8-2.8-1.2-4.7-0.3c-1.4,0.7-1.9,2.7-2.3,4.7
	c-0.7,3.2,0.1,4.1-0.7,5c-1.8,2.2-9.3,1.1-13-3.3c-2.8-3.5-2.5-7.9-4-8c-1.3-0.1-1.6,3.1-4.3,4c-2,0.7-3.4-0.4-4,0.3
	c-0.7,0.9,0.6,3.2,2,4.7c1.7,1.9,2.7,1.4,4,3c1.6,2,0.5,3.3,2,5.3c1.9,2.6,5.1,2.8,5,3.7c-0.1,0.6-1.6,0.3-3.7,1.3
	c-2.8,1.4-3,3.4-5,4c-0.6,0.2-1.5,0.2-2.6-0.2c-1.9,1.8-4.6,3.2-6.7,2.5c-2.6-0.9-2.6-4.4-5-4.7c-1.6-0.2-2,1.2-4.7,2.3
	c-4.2,1.7-8.3,0.4-8.3,0.7c0,0.2,3.2,1,3.3,0.7c0.1-0.3-3.3-2.2-7.3-3c-3.4-0.7-4.7-0.1-6-1.3c-0.8-0.8-1-1.8-1.3-5
	c-0.9-7.4-1-8.3-1.3-8.3c-0.7-0.1-2.2,4.5-3,8.7c-1.1,5.6-0.3,7.1-2,10c-0.5,0.9-2.1,3.3-5,4.7c-2.7,1.3-5.1,1-8.7,0.7
	c-2.8-0.3-4.5-0.5-5.5-1.9c-1.3-1.7-0.8-3.9-0.7-4.3c0.6-2.9,3.5-5.2,5-4.7c2,0.7,0.6,5.8,3,7c1.9,0.9,5.2-1,6.7-3.7
	c1.2-2.3,1.4-5.6-0.3-7.3c-1.9-1.9-4.3-0.1-6.7-2c-2.2-1.8-0.8-3.9-3-6.3c-2.6-2.9-6.5-2-7-4c-0.5-1.8,2.5-3.3,2-4.7
	c-0.8-2.2-9.2-0.7-9.3-1.7c-0.1-0.6,3.1-1.8,6.3-2.7c5.6-1.4,7.7-0.7,8.7-2.3c1.1-1.9-0.5-5.7-2.3-6c-1.2-0.2-2,1.2-3.3,2.3
	c-5.3,4.5-15.2,2.3-15.3,1c0-0.4,2.1-1.1,6.3-2.7c7.2-2.6,9.2-2.8,10.7-5c0.8-1.2,2-3.7,1-5.3c-2.5-4.1-17.4,0.3-17.3,0.7
	c0,0.2,6.1-0.1,12-2.3c0.7-0.3,3.5-1.4,6.3-3.7c2.3-1.8,4.2-3.4,4-5.3c-0.2-2.1-2.6-4.1-4-3.7c-1.8,0.5-1.3,4.5-3,5
	c-1.1,0.3-2.5-1.2-3.7-2.7c1.2-4,1.3-4.7,1.3-4.7c0.4-2.8-0.5-6.2-1.7-6.3c-1.8-0.2-4.1,7.2-4.7,7c-0.5-0.2,1.8-6.4,0.3-7.3
	c-1.6-1-6.4,4.2-7,3.7c-0.3-0.3,1.4-1.7,1.7-4c0.3-2.7-1.8-3.5-2-6.3c-0.3-3.6,2.9-5.3,2-7c-1.1-2.2-7-1.5-7-1.7
	c0-0.1,2.2,0.3,4.2-0.8c0.4-0.2,1.7-1,2.4-2.5c1.3-2.6,0.4-6.3-1.3-7c-0.3-0.1-1-0.3-5,2c-3.3,1.8-4.4,2.8-5,2.3
	c-1-0.7,0.8-3.8-0.3-4.7c-0.8-0.6-2.2,0.7-5.3,1.3c-1.7,0.3-4,0.8-5-0.3c-1.2-1.4-0.1-4.9,2-7c2-2,4-1.6,4.7-3.3
	c0.7-1.6-0.1-4.1-1.7-5c-3-1.8-8.6,2.3-9,1.7c-0.2-0.4,2.3-1.5,2.7-3.7c0.4-2.2-1.4-5-3.3-5.3c-1.5-0.2-1.9,1.3-4.7,2.7
	c-4,2-6.6,0.4-8,2.3c-0.8,1.1-0.6,2.4-0.3,5c0.4,3.9,1.8,5.5,1,6.3c-1.1,1.2-4.8-0.6-5,0c-0.1,0.3,0.8,0.8,2,2.1
	c0.4,0.4,2.2,2.5,1.7,3.3c-0.7,1.2-6-1.4-6.7-0.3c-0.7,1.1,4.1,5,3.7,5.7c-0.4,0.5-2.8-1.8-4.7-1c-1.7,0.7-2.7,4-1.7,6
	c1.3,2.3,4.6,1.4,5.7,3.7c0.8,1.8-0.2,4.6-1.7,5c-1.6,0.5-2.8-2.1-4-1.7c-2,0.7-0.9,9.3-1,9.3c-0.1,0,0.2-2.1-1-3.7
	c-0.9-1.2-2.8-2.3-4.7-1.7c-2.2,0.8-2.9,3.6-2.3,5.3c0.3,0.9,0.7,1.1,2.3,2.7c1.5,1.4,4.4,4.3,4,5c-0.3,0.5-2.6-0.4-4-1
	c-3.9-1.8-4.2-3.7-6-3.7c-2.6,0.1-4.4,4.3-5,6.3c-0.4,1.3-0.9,3,0,4c1,1.1,2.8,0.1,6.3,0c0.6,0,7-0.2,11.3,3.7c0.4,0.4,2.4,2.1,2,3
	c-0.4,0.9-3.2,0.8-5.3,0c-2.6-0.9-2.9-2.3-4.7-2.3c-2-0.1-4.1,1.5-4,2.7c0.1,1.5,4.1,1.9,4,3c0,0.8-2,0.7-3.3,2.3
	c-0.8,0.9-1.3,2.4-1,3.7c0.6,3,5.2,4.2,5,4.7c-0.2,0.6-6.2-1.6-6.7-0.7c-0.4,0.8,4.5,3.7,4,4.7c-0.4,1-5-1.2-6.3,0.3
	c-2,2.3,4.2,11.3,3.7,11.7c-0.3,0.2-1.7-2.3-4.1-2.4c-0.1,0-0.5,0-0.9,0.1c-1.7,0.4-3.3,2-3.7,3.7c-0.4,2.1,1.4,2.9,1,5
	c-0.3,1.5-1.3,1.5-2,3c-1.5,3.1,0.3,8,2.3,8.3c1.2,0.2,1.5-1.4,3.7-2c2.8-0.8,6.3,1,6.3,2.3c0,1.1-2,1.4-2.3,3c-0.2,1,0.5,2.1,1.3,3
	c-0.2,0.5-0.6,0.9-1.1,1.3c-1.9,1.3-4.4,0.3-5,0c-2-0.8-2-1.9-4.3-3.3c-1.7-1.1-2.1-0.8-4-1.7c-4.2-2-5.3-5.1-6.3-4.7
	c-1.5,0.6,0.9,7.8-0.3,8.3c-1.2,0.5-6.2-5-5-9.3c0.6-2.2,2.5-2.8,2.7-5.3c0.2-2.4-1.3-4.8-2-4.7c-0.8,0.1-0.3,2.9-2,4
	c-0.5,0.3-1.1,0.4-4,0c-3.8-0.5-4-0.6-5.3-0.7c-1.8,0-4.5-0.1-5.3,1.3c-1.1,1.8,1.1,5.4,1.3,5.3c0.3-0.1-1.3-7.8-3.7-8
	c-1.7-0.1-2.6,3.7-4.7,3.7c-1.4-0.1-1.6-1.8-4-4.3c-3.1-3.3-7-4.8-7.7-5c-3.1-1.2-4.7-0.8-5.7-2.3c-0.7-1.1-0.8-2.7-0.3-4
	c0.6-1.7,2.3-2.7,2-3.3c-0.1-0.2-0.3-0.2-0.6-0.3c-1.6-0.4-2.9-2.2-3.1-3.4c-0.2-1.3,0.8-1.6,1.7-4c0.6-1.6,1.3-4.6,0.3-5.3
	c-1.2-0.8-3.9,2-4.7,1.3c-0.6-0.5,0.2-3.1,2-5c2.4-2.6,5-2.1,5.3-3.7c0.4-1.7-2.3-4.4-5-4.7c-2.2-0.2-3.4,1.3-4.3,0.7
	c-1.4-1,0.4-5-0.7-5.7c-1.3-0.8-5.3,4.3-6.3,3.7c-1-0.6,1.7-5.7,0.7-6.3c-1-0.7-4.6,3.6-6,2.7c-0.1-0.1-0.1-0.1-2-2.7
	c-0.7-1-2.5-3.3-2-4.7c0.4-1.2,2.1-0.6,3.7-2.3c0.2-0.2,1.6-1.8,1.3-3.3c-0.4-2-3.3-2.8-5-3.3c-1.7-0.5-2.7-0.8-3.7-0.3
	c-2.2,1-1.4,3.9-3.3,5c-2.3,1.3-7-1.2-7.3-3.7c-0.2-1.3,0.9-1.6,1.7-4.3c0.5-1.7,0.9-3.4,0-4.7c-1-1.4-3.4-1.9-4.7-1
	c-1.5,1-0.5,3.2-2,5.7c-0.7,1-1.5,1.7-4.7,3.3c-0.5,0.3-1.1,0.5-1.7,0.8"/>
<g id="XMLID_20_">
	<path id="XMLID_2_" class="st1" d="M1920,252.7c-18.2-10.8-41.3-22.1-69-30.7c-22.8-7-33.3-8.3-33.3-8.3
		c-31-7.5-37.9-8.5-45.7-15.3c-5.9-5.2-9.6-13.7-17-30.7c-10.8-24.8-9.5-32.1-19.7-44c-4.4-5.2-12.1-14.2-23.7-15.3
		c-7.6-0.8-15,2-25.7,10c-27.1,20.2-25.5,36.8-46,53c-9.6,7.6-22.1,11-47,18c-32.5,9.1-49.8,9.4-66,12.7
		c-22.9,4.7-54.4,17.5-89.3,54.7"/>
	<path id="XMLID_3_" class="st1" d="M1378.3,276.3c-18.6-15.9-35.3-22.2-47-25c-18.1-4.3-23.9-0.2-53-6.3c-15-3.1-19.1-5.4-30-5.3
		c-14.1,0.1-24.9,4-35.7,8c-20.6,7.6-19.8,11.8-37.7,18c-13.7,4.8-28.9,10.1-43,4c-8-3.5-8.9-7.8-19-18c-6.5-6.6-22.3-22.7-44.3-30
		c-3.1-1-36.3-11.6-56,4c-1.7,1.3-4,3.8-8.7,8.7c-14.5,15.3-14.7,19.2-21.3,25.3c-12.1,11.2-27.9,13.3-46,15.7
		c-9.8,1.3-18.1,1.3-24,1"/>
	<path id="XMLID_8_" class="st1" d="M824.5,282c-5.9-1.2-14.4-3.8-22.5-10c-11.1-8.5-15.2-19.2-18-24.5c-10.5-20-35.2-27.6-61-35.5
		c-69.7-21.3-115.1,5.8-135-21c-8.1-10.9-5-21.4-15.5-27.5c-15-8.7-37.9,4.3-51.5,12c-19.9,11.2-30.4,22.5-38.5,29.5
		c-32.3,28.1-72.9,30.3-93,33c-34.7,4.7-37.6-2.6-56.5,3c-21.9,6.5-48.1,25.4-70.5,77.5"/>
	<path id="XMLID_17_" class="st1" d="M8.3,254c-0.8-0.4-2.2-1-4-1.3c-2.3-0.4-4,0-4.3,0"/>
	<path id="XMLID_10_" class="st1" d="M135,228.3c-2.7,1.4-6.7,3.7-11,7c-8.8,6.8-10.4,11.2-17.7,18c-5.2,4.8-12.1,11.3-22,13.7
		c-3.6,0.9-4.2,0.4-27-2.3c-15.9-1.9-20.1-2.2-28.3-4c-6.3-1.4-11.4-2.9-15-4"/>
	<path id="XMLID_12_" class="st1" d="M153,223c6.1-1.7,15.3-3.5,26-2c16.2,2.2,26.5,10.5,38.3,18.7c27.1,18.7,41.6,26.8,52.3,29.3
		c5.4,1.3,12.4,2.2,21,1.6"/>
	<path id="XMLID_23_" class="st1" d="M169.6,220.5c7.1-7.4,9.9-17.5,12.1-25.1c3.9-13.5,1.4-16.8,6.7-25c1.6-2.5,7.7-12,16-12.3
		c3.2-0.1,4.3,1.2,7,0.3c3.4-1.1,5-4.4,8.7-13c5.7-13.3,6-15.4,8.7-17c4.4-2.6,10.7-1.2,14.7,1c8.5,4.7,12.3,16.2,20.7,25.3
		c0.6,0.7,2,2.2,4,2.3c3.2,0.3,5.6-3,8-5.3c4.7-4.6,13.3-9.1,19-7.3c4.8,1.5,7.1,7.6,11.7,19.7c2.2,6,2,6.8,4,12
		c0,0,3.8,9.7,9.7,17.7c13.9,19,56.4,15.3,90,12.3c2.6-0.2,7.7-0.8,13.7-3.3c8.6-3.7,13.5-9.4,15-11c5.7-5.7,19.8-9.3,57.6,0.7"/>
</g>
<g id="XMLID_27_">
	<path id="XMLID_39_" class="st2" d="M216.9,152.3c-7.5-4.2-15-8.4-22.5-12.6l0,0c-0.4-0.7-1.4-1.9-3-2.3c-1.2-0.3-2.5-0.1-4.3,1
		c-11,6.6-16.7,19.7-16.7,19.7c-1.5,3.5-2.8,7.5-6.7,12.3c-0.1,0.2-1.3,1.6-2.7,3c-11.2,11.3-31,14.6-36.3,19.3
		c-0.4,0.3-1.6,1.4-3.3,1.7c-2,0.3-3.7-0.8-4-1c-2.2-1.3-14.6-3.5-45.1-7.3"/>
	<path id="XMLID_37_" class="st2" d="M306.7,164c26.6-3.7,37-5.9,39.6-7.3c0.5-0.2,2.5-1.4,5-1c1.9,0.4,3.2,1.6,4,2.3
		c8.6,8.3,8.5,6.9,11,10.3c3.3,4.6,2.7,6,5.7,8.7c2.5,2.2,5,3.2,7.3,4c7.4,2.5,15.2,5.2,26.7,5.3c3.1,0,9.8,0.1,18-1.7
		c3.4-0.7,6-1.6,10.7-2c4.9-0.5,8.4-0.2,11,0c9.5,0.6,15.6-0.6,21-1c7.3-0.5,19-0.1,38.7,3.9"/>
	<path id="XMLID_28_" class="st2" d="M587.9,190.8c17.9-3.5,26.3-5.4,28.8-6.2c0.4-0.1,1.8-0.6,3.7-0.7c2.5-0.1,4.5,0.5,5,0.7
		c2.5,0.8,9.6,2.1,22.3,4"/>
	<path id="XMLID_29_" class="st2" d="M733.6,172.1c2.2-0.4,3.7-0.9,4.7-1.4c0.5-0.2,2-1,4-1c1.7,0,3,0.5,3.3,0.7
		c2.2,0.9,14.5,3.7,38.3,8.8"/>
	<path id="XMLID_34_" class="st2" d="M1373.6,199.5c3-0.9,5.5-1.9,7.4-2.9c0,0,1.6-0.8,10.3-6l0,0c0.5-1.2,1.4-3,3-3.3
		c1.5-0.4,2.9,0.7,3.3,1c1.5,1.1,5.3,2.6,14.2,4.9"/>
	<path id="XMLID_38_" class="st2" d="M1880.3,206.4c-7.3-2.9-13.1-5.8-17.6-8.1c0,0-5.6-3-29-17.3l0,0c-11.2,4.7-20.5,7.2-27,8.7
		c-8.3,1.8-13.2,2.1-22,4.7c-4.7,1.4-8.8,2.9-12.3,4.3"/>
</g>
<g id="XMLID_1_">
	<path id="XMLID_22_" class="st3" d="M0.2,178.7c16.7-9.9,23.6-14.5,24.8-15.8c0.2-0.2,0.9-1.1,2-1.2c1.2-0.1,2.3,0.8,2.5,1
		c6.5,5.5,15.4,7.4,22.5,12.2c14.7,9.9,42.9,21.3,49.5,24c13.4,5.4,27.6,11.2,47.5,15c8.5,1.6,16.4,2.6,23.5,3.1"/>
	<path id="XMLID_30_" class="st3" d="M995.9,243.4c-21.1,1.7-38.3-0.2-50.3-2.3c-79.4-14-128.4-73.5-130.5-79.5
		c-0.1-0.4-0.9-3.1-3.1-3.9c-2-0.8-4.1,0.3-5.3,1c-8.3,4.6-12,10-12,10c-6.2,8.9-16.5,14-24.7,21c-7.2,6.1-22.8,13.1-57.7,19.4"/>
	<path id="XMLID_33_" class="st3" d="M769.4,190.2c-6.2-1.9-13-4.5-19.9-8.2c-16.8-8.9-39-26.3-42-39c-0.3-1.2-1.1-5.4-3.5-6
		c-2.7-0.6-6,4-7,5.5c-7.9,11.1-20,18.8-28.5,29.5c-6.8,8.6-21.2,19.7-54.3,31.5"/>
	<path id="XMLID_25_" class="st3" d="M1841.9,219.3c4.1-0.9,8.2-2,12.5-3.3c12.7-3.8,34.3-10.6,56.3-28.7c3.4-2.8,6.5-5.6,9.3-8.4"
		/>
	<path id="XMLID_31_" class="st3" d="M1328.2,250.4c11.5-3.2,20.5-7.2,26.8-10.4c40.1-20.4,68.3-58.5,70.7-69.3c0.2-1,1.1-5.7,4-6.7
		c2.9-0.9,6.2,2.3,7.3,3.3c10.2,9.4,24.1,14.2,34.7,23.3c6.3,5.5,28.3,9.3,88.2,6.2"/>
	<path id="XMLID_32_" class="st3" d="M1393.8,212.2c-4.3-1.7-7.7-3.6-10.5-5.5c-5.9-4.1-12.4-10.4-24.7-14.7
		c-4.5-1.6-7.1-2.5-10.7-2.7c-8.3-0.5-16.9,3-32,16c-11.8,10.2-17,17-22,22c-5.3,5.4-12.9,11-23.8,15.6"/>
	<path id="XMLID_7_" class="st3" d="M1036.2,217.4c15.3-17.6,27.3-44.4,28.8-47.9c0.6-1.4,2.1-4.7,5-5.5c4.9-1.4,10.7,4.9,13.5,8
		c16.3,18.4,18,30.3,29,42c16.7,17.8,42.3,21.8,53.5,23.5c8.6,1.3,9.9,0.4,22.5,2c11.8,1.5,22.1,3.6,30.6,5.9"/>
	<path id="XMLID_6_" class="st3" d="M1103.1,200.9c2.3-2.2,3.6-4.5,4.4-6.4c1.2-3.1,1.4-6.7,4.5-12c2-3.4,3.9-6.8,7-7.5
		c4.9-1.1,10.2,5.5,13,9c13.4,17,23.5,31.5,26,35c4.5,6.1,11.5,13.4,23.1,19.7"/>
</g>
</svg>
