<svg id="blog" xmlns="http://www.w3.org/2000/svg" viewBox="0 0 128 128">
	<path id="XMLID_3_" d="M102,77V43.4c0-5.1-3.2-9.4-7.7-11.2L61.2,65.6L34.8,78.3l12.1-24.7l22.2-22.2H34.3c-6.6,0-12,5.4-12,12V77
		c0,6.6,5.4,12,12,12h28.9c0,0,10.9,21.4,37.8,21.4c0,0-17.7-8.5-20.8-21.4H90C96.6,89,102,83.6,102,77z"/>
	<path id="XMLID_2_" d="M48.1,56.3l0.8,2.1l-3.1,6.5c0,0-0.6,2.5,1.5,2.5l7.3-3.4l2.1,0.9L42.2,72c0,0-1.8,0.5-1.1-1.1
		C41.8,69.3,48.1,56.3,48.1,56.3z"/>
	<path id="XMLID_5_" d="M75.8,28.8l6-6.1c0,0,0.7-0.9,3.3,0s4.8,4.3,4.8,4.3s1.3,2,0.9,3.7l-6.3,6.6c0,0-1.4,0.8-2.9,0
		s-3.7-1.6-4.8-3.7C75.8,31.5,75,29.6,75.8,28.8z"/>
	<path id="XMLID_6_" d="M49.2,55.3l25.2-25.4c0,0,0.2,2,1.1,3.4l-25,25.2L49.2,55.3z"/>
	<path id="XMLID_7_" d="M51.4,59.4l25-25c0,0,1,1.7,2.3,2.3l-25,25L51.4,59.4z"/>
	<path id="XMLID_8_" d="M54.6,62.5l25.1-25.1c0,0,2,1.5,3.3,1.3L57.8,63.9L54.6,62.5z"/>
</svg>
