<svg id="bridge-of-the-gods" xmlns="http://www.w3.org/2000/svg" x="0px" y="0px" viewBox="0 0 128 128">
<path id="XMLID_3_" d="M39.5,49.1c-0.3,0-0.7-0.1-1-0.4c-0.6-0.5-0.7-1.5-0.1-2.1l24.5-28.2c0.5-0.6,1.5-0.7,2.1-0.1
	c0.6,0.5,0.7,1.5,0.1,2.1L40.6,48.6C40.3,49,39.9,49.1,39.5,49.1z"/>
<path id="XMLID_4_" d="M64,80.6c-0.4,0-0.9-0.2-1.2-0.6L38.3,48.5c-0.5-0.7-0.4-1.6,0.3-2.1s1.6-0.4,2.1,0.3l24.5,31.5
	c0.5,0.7,0.4,1.6-0.3,2.1C64.6,80.5,64.3,80.6,64,80.6z"/>
<path id="XMLID_5_" d="M39.5,74c-0.8,0-1.5-0.7-1.5-1.5V47.6c0-0.8,0.7-1.5,1.5-1.5s1.5,0.7,1.5,1.5v24.8C41,73.3,40.3,74,39.5,74z"
	/>
<path id="XMLID_7_" d="M39.5,49.1c-0.8,0-1.5-0.7-1.5-1.5V26.1c0-0.8,0.7-1.5,1.5-1.5s1.5,0.7,1.5,1.5v21.5
	C41,48.5,40.3,49.1,39.5,49.1z"/>
<path id="XMLID_10_" d="M39.5,27.6c-0.7,0-1.3-0.4-1.4-1.1c-0.2-0.8,0.3-1.6,1.1-1.8L63.6,18c0.8-0.2,1.6,0.3,1.8,1.1
	c0.2,0.8-0.3,1.6-1.1,1.8l-24.5,6.7C39.8,27.6,39.6,27.6,39.5,27.6z"/>
<path id="XMLID_11_" d="M64,80.6c-0.1,0-0.3,0-0.4-0.1l-24.5-6.7c-0.8-0.2-1.3-1-1.1-1.8c0.2-0.8,1-1.3,1.8-1.1l24.5,6.7
	c0.8,0.2,1.3,1,1.1,1.8C65.3,80.2,64.7,80.6,64,80.6z"/>
<path id="XMLID_13_" d="M39.5,74c-0.5,0-0.9-0.2-1.2-0.6c-0.5-0.7-0.4-1.6,0.3-2.1l12.3-9.1c0.7-0.5,1.6-0.4,2.1,0.3
	c0.5,0.7,0.4,1.6-0.3,2.1l-12.3,9.1C40.1,73.9,39.8,74,39.5,74z"/>
<path id="XMLID_14_" d="M64,48.1H22.5c-0.8,0-1.5-0.7-1.5-1.5s0.7-1.5,1.5-1.5H64c0.8,0,1.5,0.7,1.5,1.5S64.8,48.1,64,48.1z"/>
<path id="XMLID_6_" d="M64,80.6c-0.8,0-1.5-0.7-1.5-1.5V19.5c0-0.8,0.7-1.5,1.5-1.5s1.5,0.7,1.5,1.5v59.7C65.5,80,64.8,80.6,64,80.6
	z"/>
<path id="XMLID_8_" d="M22.5,42.8c-0.4,0-0.8-0.2-1.1-0.5c-0.6-0.6-0.5-1.6,0.1-2.1l17-15.2c0.6-0.6,1.6-0.5,2.1,0.1
	c0.6,0.6,0.5,1.6-0.1,2.1l-17,15.2C23.2,42.7,22.9,42.8,22.5,42.8z"/>
<path id="XMLID_15_" d="M39.5,74c-0.4,0-0.8-0.2-1.1-0.5L21.4,56c-0.6-0.6-0.6-1.5,0-2.1c0.6-0.6,1.5-0.6,2.1,0l17,17.5
	c0.6,0.6,0.6,1.5,0,2.1C40.3,73.8,39.9,74,39.5,74z"/>
<path id="XMLID_16_" d="M22.5,31c-0.7,0-1.3-0.5-1.5-1.2c-0.2-0.8,0.4-1.6,1.2-1.8l17-3.3c0.8-0.2,1.6,0.4,1.8,1.2
	c0.2,0.8-0.4,1.6-1.2,1.8l-17,3.3C22.7,30.9,22.6,31,22.5,31z"/>
<path id="XMLID_9_" d="M39.5,74c-0.1,0-0.2,0-0.3,0l-17-4c-0.8-0.2-1.3-1-1.1-1.8c0.2-0.8,1-1.3,1.8-1.1l17,4c0.8,0.2,1.3,1,1.1,1.8
	C40.8,73.5,40.2,74,39.5,74z"/>
<path id="XMLID_12_" d="M27.5,71.1c-0.8,0-1.5-0.7-1.5-1.5V28.5c0-0.8,0.7-1.5,1.5-1.5s1.5,0.7,1.5,1.5v41.1
	C29,70.4,28.4,71.1,27.5,71.1z"/>
<path id="XMLID_17_" d="M51.8,77.3c-0.8,0-1.5-0.7-1.5-1.5v-53c0-0.8,0.7-1.5,1.5-1.5s1.5,0.7,1.5,1.5v53
	C53.3,76.6,52.6,77.3,51.8,77.3z"/>
<path id="XMLID_18_" d="M64,64.9H51.8c-0.8,0-1.5-0.7-1.5-1.5s0.7-1.5,1.5-1.5H64c0.8,0,1.5,0.7,1.5,1.5S64.8,64.9,64,64.9z"/>
<path id="XMLID_19_" d="M64,35H51.8c-0.8,0-1.5-0.7-1.5-1.5s0.7-1.5,1.5-1.5H64c0.8,0,1.5,0.7,1.5,1.5S64.8,35,64,35z"/>
<path id="XMLID_39_" d="M64,53H22.5c-1.1,0-2-0.9-2-2s0.9-2,2-2H64c1.1,0,2,0.9,2,2S65.1,53,64,53z"/>
<path id="XMLID_38_" d="M88.5,49.1c-0.4,0-0.8-0.2-1.1-0.5L62.9,20.4c-0.5-0.6-0.5-1.6,0.1-2.1c0.6-0.5,1.6-0.5,2.1,0.1l24.5,28.2
	c0.5,0.6,0.5,1.6-0.1,2.1C89.2,49,88.8,49.1,88.5,49.1z"/>
<path id="XMLID_37_" d="M64,80.6c-0.3,0-0.6-0.1-0.9-0.3c-0.7-0.5-0.8-1.5-0.3-2.1l24.5-31.5c0.5-0.7,1.5-0.8,2.1-0.3
	c0.7,0.5,0.8,1.5,0.3,2.1L65.2,80C64.9,80.4,64.4,80.6,64,80.6z"/>
<path id="XMLID_36_" d="M88.5,74c-0.8,0-1.5-0.7-1.5-1.5V47.6c0-0.8,0.7-1.5,1.5-1.5s1.5,0.7,1.5,1.5v24.8C90,73.3,89.3,74,88.5,74z
	"/>
<path id="XMLID_35_" d="M88.5,49.1c-0.8,0-1.5-0.7-1.5-1.5V26.1c0-0.8,0.7-1.5,1.5-1.5s1.5,0.7,1.5,1.5v21.5
	C90,48.5,89.3,49.1,88.5,49.1z"/>
<path id="XMLID_34_" d="M88.5,27.6c-0.1,0-0.3,0-0.4-0.1l-24.5-6.7c-0.8-0.2-1.3-1-1.1-1.8c0.2-0.8,1-1.3,1.8-1.1l24.5,6.7
	c0.8,0.2,1.3,1,1.1,1.8C89.8,27.2,89.2,27.6,88.5,27.6z"/>
<path id="XMLID_33_" d="M64,80.6c-0.7,0-1.3-0.4-1.4-1.1c-0.2-0.8,0.3-1.6,1.1-1.8L88.1,71c0.8-0.2,1.6,0.3,1.8,1.1
	c0.2,0.8-0.3,1.6-1.1,1.8l-24.5,6.7C64.3,80.6,64.1,80.6,64,80.6z"/>
<path id="XMLID_32_" d="M88.5,74c-0.3,0-0.6-0.1-0.9-0.3l-12.3-9.1c-0.7-0.5-0.8-1.4-0.3-2.1c0.5-0.7,1.4-0.8,2.1-0.3l12.3,9.1
	c0.7,0.5,0.8,1.4,0.3,2.1C89.4,73.7,89,74,88.5,74z"/>
<path id="XMLID_31_" d="M105.5,48.1H64c-0.8,0-1.5-0.7-1.5-1.5s0.7-1.5,1.5-1.5h41.5c0.8,0,1.5,0.7,1.5,1.5S106.3,48.1,105.5,48.1z"
	/>
<path id="XMLID_30_" d="M64,80.6c-0.8,0-1.5-0.7-1.5-1.5V19.5c0-0.8,0.7-1.5,1.5-1.5s1.5,0.7,1.5,1.5v59.7
	C65.5,80,64.8,80.6,64,80.6z"/>
<path id="XMLID_29_" d="M105.5,42.8c-0.4,0-0.7-0.1-1-0.4l-17-15.2c-0.6-0.6-0.7-1.5-0.1-2.1c0.5-0.6,1.5-0.7,2.1-0.1l17,15.2
	c0.6,0.6,0.7,1.5,0.1,2.1C106.3,42.6,105.9,42.8,105.5,42.8z"/>
<path id="XMLID_28_" d="M88.5,74c-0.4,0-0.8-0.1-1-0.4c-0.6-0.6-0.6-1.5,0-2.1l17-17.5c0.6-0.6,1.5-0.6,2.1,0c0.6,0.6,0.6,1.5,0,2.1
	l-17,17.5C89.3,73.8,88.9,74,88.5,74z"/>
<path id="XMLID_27_" d="M105.5,31c-0.1,0-0.2,0-0.3,0l-17-3.3c-0.8-0.2-1.3-0.9-1.2-1.8c0.2-0.8,0.9-1.3,1.8-1.2l17,3.3
	c0.8,0.2,1.3,0.9,1.2,1.8C106.8,30.5,106.2,31,105.5,31z"/>
<path id="XMLID_26_" d="M88.5,74c-0.7,0-1.3-0.5-1.5-1.2c-0.2-0.8,0.3-1.6,1.1-1.8l17-4c0.8-0.2,1.6,0.3,1.8,1.1
	c0.2,0.8-0.3,1.6-1.1,1.8l-17,4C88.7,73.9,88.6,74,88.5,74z"/>
<path id="XMLID_25_" d="M100.5,71.1c-0.8,0-1.5-0.7-1.5-1.5V28.5c0-0.8,0.7-1.5,1.5-1.5s1.5,0.7,1.5,1.5v41.1
	C102,70.4,101.3,71.1,100.5,71.1z"/>
<path id="XMLID_24_" d="M76.3,77.3c-0.8,0-1.5-0.7-1.5-1.5v-53c0-0.8,0.7-1.5,1.5-1.5s1.5,0.7,1.5,1.5v53
	C77.8,76.6,77.1,77.3,76.3,77.3z"/>
<path id="XMLID_23_" d="M76.3,64.9H64c-0.8,0-1.5-0.7-1.5-1.5s0.7-1.5,1.5-1.5h12.3c0.8,0,1.5,0.7,1.5,1.5S77.1,64.9,76.3,64.9z"/>
<path id="XMLID_22_" d="M76.3,35H64c-0.8,0-1.5-0.7-1.5-1.5S63.2,32,64,32h12.3c0.8,0,1.5,0.7,1.5,1.5S77.1,35,76.3,35z"/>
<path id="XMLID_42_" d="M105.5,53H64c-1.1,0-2-0.9-2-2s0.9-2,2-2h41.5c1.1,0,2,0.9,2,2S106.6,53,105.5,53z"/>
<rect id="XMLID_40_" x="61.3" y="82.7" width="5.5" height="25.8"/>
<path id="XMLID_41_" d="M61.5,82"/>
<line id="XMLID_43_" x1="61.3" y1="82.7" x2="62.4" y2="81.6"/>
<polygon id="XMLID_21_" points="61.3,82.7 62.4,81.6 62.4,78.1 64,78.1 64,82.7 "/>
<polygon id="XMLID_20_" points="66.7,82.7 65.6,81.6 65.6,78.1 64,78.1 64,82.7 "/>
</svg>
