<svg id="camera" xmlns="http://www.w3.org/2000/svg" viewBox="0 0 128 128">
<g id="XMLID_1_">
	<path id="XMLID_10_" d="M44.7,71.2c0-5.2,2-9.9,5.3-13.5H16v32.4h42.5C50.5,87.6,44.7,80.1,44.7,71.2z"/>
	<path id="XMLID_11_" d="M79,57.7c3.3,3.5,5.3,8.3,5.3,13.5c0,8.9-5.8,16.4-13.8,18.9h42.7V57.7H79z"/>
	<path id="XMLID_22_" d="M113.2,98.8H16c-0.8,0-1.5-0.7-1.5-1.5v-46c0-0.2,0-0.3,0.1-0.5l2.7-7.4c0.2-0.6,0.8-1,1.4-1h26.6L52.1,30
		c0.3-0.5,0.8-0.8,1.3-0.8h22.7c0.6,0,1.1,0.3,1.3,0.8l6.5,12.2h27.9c0.7,0,1.3,0.5,1.5,1.2l1.4,7.7c0,0.1,0,0.2,0,0.3v46
		C114.7,98.2,114,98.8,113.2,98.8z M17.5,95.8h94.2V51.5l-1.2-6.3H83c-0.6,0-1.1-0.3-1.3-0.8l-6.5-12.2H54.3l-6.8,12.5
		c-0.3,0.5-0.8,0.8-1.3,0.8H19.7l-2.2,6.2V95.8z"/>
	<circle id="XMLID_3_" cx="64.5" cy="71" r="16.4"/>
	<path id="XMLID_13_" d="M64.5,48.2c-12.7,0-23,10.3-23,23c0,12.7,10.3,23,23,23s23-10.3,23-23C87.5,58.5,77.2,48.2,64.5,48.2z
		 M64.5,91c-11,0-19.8-8.9-19.8-19.8s8.9-19.8,19.8-19.8s19.8,8.9,19.8,19.8S75.5,91,64.5,91z"/>
	<g id="XMLID_21_">
		<rect id="XMLID_5_" x="89.7" y="39.4" width="16.6" height="4.2"/>
		<path id="XMLID_18_" d="M106.3,44.2H89.7c-0.3,0-0.5-0.2-0.5-0.5v-4.2c0-0.3,0.2-0.5,0.5-0.5h16.6c0.3,0,0.5,0.2,0.5,0.5v4.2
			C106.8,43.9,106.6,44.2,106.3,44.2z M90.2,43.2h15.6v-3.2H90.2V43.2z"/>
	</g>
	<g id="XMLID_17_">
		<rect id="XMLID_8_" x="24.8" y="39.4" width="14.7" height="4.2"/>
		<path id="XMLID_14_" d="M39.5,44.2H24.8c-0.3,0-0.5-0.2-0.5-0.5v-4.2c0-0.3,0.2-0.5,0.5-0.5h14.7c0.3,0,0.5,0.2,0.5,0.5v4.2
			C40,43.9,39.8,44.2,39.5,44.2z M25.3,43.2H39v-3.2H25.3V43.2z"/>
	</g>
</g>
</svg>
