<svg version="1.1" id="cliff" xmlns="http://www.w3.org/2000/svg" viewBox="0 0 128 128">
<polygon id="XMLID_11_" points="22.9,102.9 30.6,88.4 33.1,87.6 34.6,86 41.1,100 37.9,87.5 49.6,72.9 55.1,81 54.5,84.8 52.4,87.1 
	60.5,83.6 61.6,87.9 63.4,86.8 68.9,97 68.9,102.9 "/>
<polygon id="XMLID_10_" points="68.9,97 70.4,86.3 83.1,92.5 68.9,81.8 67.8,89.4 61.6,77.9 54.5,84.8 55.1,81 68,43.8 69.9,44.5 
	72.6,49 81.4,30.6 83.1,30.2 81.6,32.8 83.9,32.8 85.8,34.1 87.1,32.8 87.9,37 88.9,35.9 90.6,39.1 93.5,92.6 90,91.3 84.1,98.5 
	91.6,97 90.4,99.8 94.1,98.5 94.8,99.8 96.6,99.1 98.1,97 99.4,99.8 102.1,98.5 102.1,100.3 106.9,101.4 109.1,101.4 110.3,102.9 
	68.9,102.9 "/>
<polygon id="XMLID_4_" points="108.6,102.2 97.6,91.7 95.6,93.7 92.3,92.2 92.7,91.3 95.4,92.5 97.6,90.3 109.3,101.5 "/>
<polygon id="XMLID_3_" points="89.7,40.9 89,27.9 84.8,25.8 83.1,30.2 81.3,30.8 84.4,24.5 90,27.3 90.7,40.8 "/>
<polygon id="XMLID_2_" points="31.4,89 30.6,88.5 35.4,80.1 39.2,88.1 38.3,88.5 35.3,82.2 "/>
</svg>
