<svg id="current-location" xmlns="http://www.w3.org/2000/svg" viewBox="0 0 128 128">
	<path id="XMLID_3_" class="st0" d="M-3.3,45.3"/>
	<path id="XMLID_8_" d="M92.6,39.4c-0.6-6.5-3.5-11.2-4.8-13.1c-0.7-1-4.2-6.1-11-9.5c-1.8-0.9-5.4-2.7-10.3-3
		c-0.7,0-1.6-0.1-2.6-0.1c-1,0-1.9,0-2.6,0.1c-4.9,0.3-8.5,2.1-10.3,3c-6.7,3.4-10.2,8.5-11,9.5c-1.3,1.9-4.1,6.5-4.8,13.1
		c-0.2,1.9-0.5,5.7,0.9,10c1,2.9,2.3,4.8,3.7,6.9c3.1,4.4,5.9,9,9,13.5c5,7.2,7.3,13.8,9.2,19.1c5.1,14.2,4.8,25.4,5.5,25.3
		c0.1,0,0.2-0.3,0.2-0.7c0.1,0.4,0.1,0.7,0.2,0.7c0.8,0.1,0.4-11.1,5.5-25.3C71.7,83.5,74,77,79,69.8c3.1-4.4,5.9-9,9-13.5
		c1.4-2.1,2.7-3.9,3.7-6.9C93.1,45.1,92.8,41.4,92.6,39.4z M64,52.4c-6.7,0-12.1-5.4-12.1-12.1c0-6.7,5.4-12.1,12.1-12.1
		c6.7,0,12.1,5.4,12.1,12.1C76.1,47,70.7,52.4,64,52.4z"/>
</svg>