<svg version="1.1" id="devils-postpile" xmlns="http://www.w3.org/2000/svg" x="0px" y="0px"  viewBox="0 0 128 128">
<polygon id="XMLID_3_" points="40.5,110 38.2,48.6 34.9,48 32.1,48.5 33.8,109.9 30.8,110 29,46 34.9,44.9 41.1,46.2 43.5,109.9 "/>
<rect id="XMLID_4_" x="23.9" y="31.2" transform="matrix(7.143079e-002 0.9974 -0.9974 7.143079e-002 68.4888 -8.1617)" width="29.5" height="3"/>
<rect id="XMLID_5_" x="1.4" y="62.5" transform="matrix(6.721927e-002 0.9977 -0.9977 6.721927e-002 108.1204 12.3497)" width="92.2" height="3"/>
<polygon id="XMLID_6_" points="63.9,110.2 60.4,78.3 61.2,67 59,47.4 54.9,47.9 54.4,49 59.4,109.9 56.4,110.1 51.4,48.4 52.9,45.1 
	61.7,44.1 64.2,66.9 63.4,78.2 66.9,109.8 "/>
<rect id="XMLID_7_" x="43" y="30.5" transform="matrix(0.1039 0.9946 -0.9946 0.1039 82.9297 -28.0687)" width="28.1" height="3"/>
<polygon id="XMLID_8_" points="83.2,110.2 78.2,72.4 73.8,72.4 72.7,72.8 77.5,109.8 74.6,110.2 69.4,70.7 73.3,69.4 80.9,69.4 
	86.2,109.8 "/>
<polygon id="XMLID_11_" points="72,71.1 67.3,38.3 65,38 61.9,39.3 61.9,45.8 58.9,45.8 58.9,37.3 64.6,34.9 70,35.7 75,70.7 "/>
<rect id="XMLID_12_" x="57.9" y="26" transform="matrix(0.1283 0.9917 -0.9917 0.1283 86.0684 -42.9197)" width="19.1" height="3"/>
<rect id="XMLID_10_" x="54.3" y="25.7" transform="matrix(0.1323 0.9912 -0.9912 0.1323 82.1479 -39.4229)" width="18.6" height="3"/>
<polygon id="XMLID_14_" points="92.3,110.2 85.8,66.6 83.8,66.3 82,67.6 81,71.3 78.1,70.5 79.4,65.8 83,63.1 88.5,64 95.3,109.8 
	"/>
<polygon id="XMLID_15_" points="107.7,110.2 100.6,69.2 98.8,68.2 95.3,68.2 93.7,69.4 99.2,109.8 96.2,110.2 90.5,68 94.4,65.2 
	99.6,65.2 103.4,67.2 110.6,109.7 "/>
<rect id="XMLID_16_" x="56.6" y="39.9" transform="matrix(0.1364 0.9906 -0.9906 0.1364 110.2215 -43.7305)" width="47.1" height="3"/>
<rect id="XMLID_17_" x="64.9" y="41.2" transform="matrix(0.1543 0.988 -0.988 0.1543 118.2908 -52.7484)" width="50" height="3"/>
<polygon id="XMLID_18_" points="99.1,67.7 94.8,46.3 97.3,40.8 100.4,39.1 106,40.7 111.5,66.4 108.5,67 103.4,43.1 100.8,42.3 
	99.6,43 98,46.6 102.1,67.1 "/>
<polygon id="XMLID_13_" points="97,42.2 93.3,22.2 90.5,22.9 86.3,21.8 87,18.9 90.5,19.8 95.7,18.6 100,41.6 "/>
<polygon id="XMLID_19_" points="103.2,42.2 99.7,23.9 98.5,18.3 101.5,17.7 102.7,23.4 106.2,41.6 "/>
<polygon id="XMLID_20_" points="28.8,110 25.8,110 25.8,78.2 23.9,18.1 26.9,18 28.8,78.2 "/>
<rect id="XMLID_9_" x="-19.8" y="69.5" transform="matrix(3.046511e-002 0.9995 -0.9995 3.046511e-002 89.5694 49.6356)" width="78" height="3"/>
</svg>
