<svg version="1.1" id="house" xmlns="http://www.w3.org/2000/svg" viewBox="0 0 128 128">
<path id="XMLID_13_" d="M76.5,70.1h1.2h4.9h5.9h4.9h1.2c0.8,0,1.5,0.7,1.5,1.5v6.6c0,0.8-0.7,1.5-1.5,1.5h-1.8h-4.3h-5.9h-4.3h-1.8
	c-0.8,0-1.5-0.7-1.5-1.5v-6.6C75,70.8,75.7,70.1,76.5,70.1z"/>
<path id="XMLID_11_" d="M76.5,82.2h1.2h4.9h5.9h4.9h1.2c0.8,0,1.5,0.7,1.5,1.5v6.6c0,0.8-0.7,1.5-1.5,1.5h-1.8h-4.3h-5.9h-4.3h-1.8
	c-0.8,0-1.5-0.7-1.5-1.5v-6.6C75,82.9,75.7,82.2,76.5,82.2z"/>
<path id="XMLID_4_" d="M76.5,94.5h1.2h4.9h5.9h4.9h1.2c0.8,0,1.5,0.7,1.5,1.5v6.6c0,0.8-0.7,1.5-1.5,1.5h-1.8h-4.3h-5.9h-4.3h-1.8
	c-0.8,0-1.5-0.7-1.5-1.5V96C75,95.2,75.7,94.5,76.5,94.5z"/>
<path id="XMLID_2_" d="M49.5,70.1h-1.2h-4.9h-5.9h-4.9h-1.2c-0.8,0-1.5,0.7-1.5,1.5v6.6c0,0.8,0.7,1.5,1.5,1.5h1.8h4.3h5.9h4.3h1.8
	c0.8,0,1.5-0.7,1.5-1.5v-6.6C51,70.8,50.3,70.1,49.5,70.1z"/>
<path id="XMLID_3_" d="M49.5,82.3h-1.2h-4.9h-5.9h-4.9h-1.2c-0.8,0-1.5,0.7-1.5,1.5v6.6c0,0.8,0.7,1.5,1.5,1.5h1.8h4.3h5.9h4.3h1.8
	c0.8,0,1.5-0.7,1.5-1.5v-6.6C51,82.9,50.3,82.3,49.5,82.3z"/>
<path id="XMLID_20_" d="M90.7,54.8c-1-0.8-11.2-8.2-11.2-8.2s-1-0.8-2.3-0.8c-1,0-8.6,0-12.7,0c0,0-1,0-2.5,0c-4.1,0-11.8,0-12.7,0
	c-1.3,0-2.3,0.8-2.3,0.8s-10.2,7.4-11.2,8.2s0.5,0.9,0.5,0.9H62h2.5h25.7C90.2,55.8,91.7,55.6,90.7,54.8z"/>
<path id="XMLID_21_" d="M74,42.7c-1.2-0.8-8.8-6.1-8.8-6.1s-0.1,0-0.1-0.1c-0.6-0.4-1.3-0.5-1.9-0.5c-0.6,0-1.3,0.1-1.9,0.5
	c-0.1,0-0.1,0.1-0.1,0.1s-7.6,5.2-8.8,6.1s0.6,0.9,0.6,0.9h10.2h0.1h10.2C73.4,43.6,75.2,43.5,74,42.7z"/>
<path id="XMLID_22_" d="M111.7,59.7c-3.1-1.1-6.5-1.9-8.1-3.1s-2.3-1.9-2.3-1.9s0.2-0.8,0.6-1.5s-0.4-1.2-1.7-1.7s-7.7-3.3-7.7-3.3
	L90.2,47c0,0-0.9-1.1-0.4-2s0.1-1.6-1.9-2.3s-8.2-3.8-8.2-3.8l-1.3-0.9c0,0-0.9-0.9-0.6-1.4s0.6-1.3-1.4-2.1s-7.4-3.6-7.4-3.6
	s-2.1-1.8-3.2-2.6c-0.7-0.5-1.7-0.9-2.8-0.8c-1.1-0.1-2.1,0.3-2.8,0.8c-1.1,0.8-3.2,2.6-3.2,2.6s-5.4,2.8-7.4,3.6s-1.8,1.6-1.4,2.1
	s-0.6,1.4-0.6,1.4l-1.3,0.9c0,0-6.3,3.1-8.2,3.8s-2.4,1.3-1.9,2.3S36,47,36,47l-2.3,1.2c0,0-6.4,2.8-7.7,3.3s-2.1,1-1.7,1.7
	s0.6,1.5,0.6,1.5s-0.7,0.7-2.3,1.9s-5,2.1-8.1,3.1s-1.4,3-1.4,3l2.9,3l47.2-34.3l47.2,34.3l2.9-3C113.2,62.7,114.9,60.8,111.7,59.7z
	"/>
<path id="XMLID_16_" d="M95.6,33.1H83.2c-0.8,0-1.5-0.7-1.5-1.5v-2.2c0-0.8,0.7-1.5,1.5-1.5h12.4c0.8,0,1.5,0.7,1.5,1.5v2.2
	C97.1,32.4,96.5,33.1,95.6,33.1z"/>
<path id="XMLID_18_" d="M83.1,37.1l6.8,3.5c0,0,2.9,1.8,3.1,3.9l3.1,1.7V36h-13V37.1z"/>
<path id="XMLID_17_" d="M71.8,104.1H54.4c-0.8,0-1.5-0.7-1.5-1.5V71.5c0-0.8,0.7-1.5,1.5-1.5h17.4c0.8,0,1.5,0.7,1.5,1.5v31.1
	C73.3,103.4,72.6,104.1,71.8,104.1z"/>
<polygon id="XMLID_12_" points="25.6,61.2 22.8,69.6 22.8,72.4 25.5,72.4 22.8,80.6 22.8,83.4 25.6,83.4 22.8,91.8 22.8,94.5 
	25.6,94.5 22.8,103 22.8,105.7 27.1,105.7 27.1,94.5 27.1,83.4 27.1,72.4 27.1,72.2 27.1,61.2 "/>
<path id="XMLID_23_" d="M49.5,94.6h-1.2h-4.9h-5.9h-4.9h-1.2c-0.8,0-1.5,0.7-1.5,1.5v6.6c0,0.8,0.7,1.5,1.5,1.5h1.8h4.3h5.9h4.3h1.8
	c0.8,0,1.5-0.7,1.5-1.5v-6.6C51,95.2,50.3,94.6,49.5,94.6z"/>
<path id="XMLID_1_" d="M91.4,57.9h-3.8H72.3H53.7H38.4h-3.8c-2.6,0-4.7,0.7-4.7,1.5V66c0,0.8,2.1,1.5,4.7,1.5h5.6h13.5h18.6h13.5
	h5.6c2.6,0,4.7-0.7,4.7-1.5v-6.6C96.1,58.6,94,57.9,91.4,57.9z"/>
<polygon id="XMLID_8_" points="100.4,61.2 103.2,69.6 103.2,72.4 100.5,72.4 103.2,80.6 103.2,83.4 100.4,83.4 103.2,91.8 
	103.2,94.5 100.4,94.5 103.2,103 103.2,105.7 98.9,105.7 98.9,94.5 98.9,83.4 98.9,72.4 98.9,72.2 98.9,61.2 "/>
</svg>
