<?xml version="1.0" encoding="utf-8"?>
<!-- Generator: Adobe Illustrator 19.0.0, SVG Export Plug-In . SVG Version: 6.00 Build 0)  -->
<svg version="1.1" id="lake" xmlns="http://www.w3.org/2000/svg" xmlns:xlink="http://www.w3.org/1999/xlink" x="0px" y="0px"
	 viewBox="0 0 128 128" style="enable-background:new 0 0 128 128;" xml:space="preserve">
<polygon id="XMLID_1_" points="16.4,59 17.6,57 21.3,56 23.8,53.3 27.8,52.1 34,50 38.1,51.6 42.9,47.8 47.5,48.6 50,50.9 
	58.9,47.8 63.1,50.1 66.1,52.1 70.9,51.5 74.8,53.3 79.5,53.3 84.1,53.4 84.9,54 89.4,54.1 91,55.9 95,54.4 96.9,55.8 103.4,57 
	106.9,55.6 111.3,57 113.6,59 "/>
<polygon id="XMLID_2_" points="15.4,60.1 114.5,60.1 115.1,62.3 115.1,64.1 51.9,65.1 115.1,66 114.5,69.4 88.4,70.4 113.6,71.1 
	111,74.5 62.9,75.5 105.1,76.5 101,78.1 98.3,80.9 94.6,82 91.5,82.7 87.4,84.5 66.8,85.1 76.1,85.8 67.5,87.6 63.8,85.5 54.4,86 
	44.3,84 38.8,84.4 35.9,82.7 33.8,81.3 75.4,80.8 28.8,79.8 25.6,76.4 39.3,76.1 21.1,75.4 18.8,73.9 17.3,72.1 58.6,71.1 
	15.4,70.1 14.4,65.9 41.1,65 14.4,64.3 "/>
</svg>
