<svg version="1.1" id="lake" xmlns="http://www.w3.org/2000/svg" x="0px" y="0px" viewBox="0 0 128 128">
<polygon id="XMLID_2_" points="14.5,67.1 113.7,67.1 114.3,69.7 114.3,70.9 51,73.3 114.2,75.1 113.8,77.6 87.5,79.7 112.8,80.6 
	110.9,84 62,86 102.7,88 100.2,89.2 97.4,92.6 93.8,93.9 90.7,94.8 86.5,97 65.9,97.8 75.3,98.5 66.7,100.8 63,98.2 53.5,98.8 
	43.4,96.4 37.9,96.8 35,94.8 34.1,94 74.5,92.4 27.3,90.4 25.6,88.2 38.4,86.7 19.5,85.2 17.9,84 17,82.7 57.8,80.6 14.4,78.7 
	13.7,75.2 40.3,73.1 13.7,71.2 "/>
<polygon id="XMLID_4_" points="65.8,63 48.1,63 49.4,61.9 50.7,61.2 51.8,62.1 53.6,62.1 54.3,60.5 56.9,58.4 57.8,59.3 59.6,59.9 
	62.5,59.9 63.9,60.7 64.7,61.8 "/>
<polygon id="XMLID_3_" points="41.2,63 45.5,60.7 46.3,57.7 48.9,54.6 49.9,50.9 43.8,53.5 40.2,56.2 35.8,58.4 35.8,62.1 37.4,63 
	"/>
<polygon id="XMLID_8_" points="83.3,36.5 76.3,42 78.6,44.1 82.1,41 83.3,41.9 83.3,43.3 85.4,43.7 84.9,44.9 87.2,46.8 88.9,47 
	91.8,49.7 90,54.3 89.5,55 77.3,44.5 75.8,43.1 57.7,27.2 53.1,30.2 40.1,39.9 36.4,42.6 33.6,45.5 27.5,52 17.9,61.3 15.4,63 
	19.3,63 55,33.5 56.8,34.8 57.5,37.1 55.5,39.3 55.5,40.8 58.5,39.5 60.3,40.2 60.4,41.4 65.1,41.9 65.1,44.7 64.1,46.8 65.1,47.6 
	64.1,50.2 60.1,54.5 62.6,56.2 64.1,56.5 64.7,63 112.7,63 "/>
</svg>
