<svg version="1.1" id="mountain-bypass" xmlns="http://www.w3.org/2000/svg" viewBox="0 0 128 128">
<polygon id="XMLID_4_" points="61.9,91.7 82,91.7 80.5,89.6 79,88.3 77.7,90 75.7,90 74.9,87 71.9,83 71,84.6 68.9,85.8 65.5,85.8 
	64,87.3 63,89.3 "/>
<polygon id="XMLID_1_" points="89.8,91.7 84.9,87.3 84,81.5 81.1,75.8 79.9,68.8 86.8,73.8 90.9,78.8 95.9,83 95.9,89.9 94.2,91.7 
	"/>
<polygon id="XMLID_9_" points="18.8,86.8 21.9,91.7 15.2,91.7 "/>
<polygon id="XMLID_7_" points="57.3,91.7 50.9,91.7 44.9,89.9 39.9,88 34.9,85.4 31,82.4 28.1,79.2 26.1,77.1 66.1,24 73.2,31.2 
	82.5,41.7 92.9,53.1 103.1,69.4 116.5,88.9 119.1,91.7 114.3,91.7 69.5,36 67.3,38.4 66.4,42.8 68.9,46.9 68.9,49.7 65.1,47.2 
	62.9,48.6 62.7,50.8 56.9,51.7 56.9,56.7 58.1,60.9 56.9,62.8 58.1,67.4 63,75.5 60,78.8 58.1,79.3 "/>
<g id="XMLID_2_">
	<path id="XMLID_6_" d="M43.8,92.3l-4-1.4l-4.6-2.1L31,86.3L27.1,83l-2.9-3.4c0,0-0.8-1.6-3.5-5.9c-2.7-4.4-4-6.9-4-6.9l6.9-1.9
		c0,0-2-1-6.4-4c-3.4-2.3-4-2.9-4.1-3c0.1,0.1,0.2,0.8-0.8,2.5c-1.1,2-3.5,10.3-3.5,10.3s1.1-1.4,4.9-2.9c0,0,0.4,2.5,2.4,6.5
		l2.9,7.6l4.9,8.2l3.5,4.8l3.7,3.8l4.5,4.1l1.8,1.3l9.5-11.3L43.8,92.3z"/>
	<path id="XMLID_8_" d="M13.1,57.9C13.1,57.8,13.1,57.8,13.1,57.9C13.1,57.8,13.1,57.8,13.1,57.9z"/>
</g>
</svg>
