<svg id="mountain-summit" xmlns="http://www.w3.org/2000/svg" x="0px" y="0px" viewBox="0 0 128 128">
<polygon id="XMLID_4_" points="58.6,106.1 79.1,106.1 77.6,104 76.1,102.7 74.8,104.4 72.7,104.4 71.9,101.3 68.9,97.3 67.9,98.9 
	65.8,100.1 62.4,100.1 60.8,101.7 59.8,103.7 "/>
<polygon id="XMLID_1_" points="87,106.1 82.1,101.7 81.2,95.8 78.2,90 77,82.8 84,87.9 88.2,92.9 93.3,97.3 93.3,104.3 91.5,106.1 
	"/>
<polygon id="XMLID_8_" points="113.7,102.8 101.5,85 93.7,72.4 90.1,66.8 85.4,61.7 68.9,43.1 64.8,39 64,41 64.9,42 67.4,43 
	68.3,44.1 68.3,46.1 64.8,48.5 63,50.4 61.1,52.7 59,54.1 57,54.4 58.6,56.1 60.5,57.5 62.1,58.5 58.1,61.6 55.3,63.6 52.9,64.8 
	50.4,64.8 47.5,65.8 44.7,67.3 43.5,69.4 41.5,71.7 41.2,71.2 42.7,73.4 47.6,76.8 50,82.2 54.4,86.4 53.5,88.3 47,89.4 41.2,89.6 
	37,90.8 35.1,92.7 42.2,93.7 48.8,95.3 47.2,98.5 41.3,98.5 31.5,99.6 25,101.7 20.1,102.4 13.7,102.8 11.1,106.1 54,106.1 
	54.8,93.5 56.7,92.9 59.8,89.7 54.8,81.4 53.5,76.5 54.8,74.9 53.5,71 53.5,65.5 59.5,64.6 59.7,62.3 61.9,60.8 65.8,63.4 
	65.8,60.5 63.3,56.4 64.1,51.9 66.4,49.5 111.9,106.1 116.9,106.1 "/>
<polygon id="XMLID_5_" points="62.7,44.7 61,42.5 61.7,38.9 63,37.2 39.9,67.9 37.9,70.5 22.4,90.7 15.7,100.2 24.8,99.6 30.3,97.3 
	36.7,96.6 39.9,96.6 35.7,95.3 31.1,94.4 29.3,93.8 30.8,91.6 33.7,89.4 36.4,88.2 39.4,88 43.6,87.3 47.9,86.9 50.4,86.2 
	48.5,84.4 45.3,78.2 39.9,73.7 39.1,72.4 40.3,70 41.3,67.9 44.1,64.2 46.2,63.5 49.9,62.5 53.5,62.1 55.9,60.5 58,58.9 55.7,57.2 
	52.9,55.2 53.5,53.5 56.3,52.7 58.6,51.9 60.6,50.6 62,48.6 64,46.7 66,44.7 "/>
<polygon id="XMLID_2_" points="56.3,37.2 47.3,31.2 49,27.5 55.1,34.3 "/>
<polygon id="XMLID_3_" points="59.1,35.9 60.5,34.2 57.3,22.9 53,24.9 "/>
<polygon id="XMLID_6_" points="63.3,33.8 65.3,33.8 66.6,21.9 62,21.9 "/>
<polygon id="XMLID_7_" points="67.5,35.2 72.3,24.5 74.9,26.3 69.5,35.2 "/>
<polygon id="XMLID_9_" points="70.6,36.5 77.9,29.4 79.1,32.4 71.9,37.2 "/>
</svg>
