<svg id="mountain-bypass" xmlns="http://www.w3.org/2000/svg" x="0px" y="0px" viewBox="0 0 128 128">
<polygon id="XMLID_4_" points="59.8,91.7 79.9,91.7 78.4,89.6 76.9,88.3 75.6,90 73.6,90 72.8,87 69.8,83 68.9,84.6 66.8,85.8 
	63.4,85.8 61.9,87.3 60.9,89.3 "/>
<polygon id="XMLID_1_" points="87.7,91.7 82.8,87.3 81.9,81.5 79,75.8 77.8,68.8 84.7,73.8 88.8,78.8 93.8,83 93.8,89.9 92.1,91.7 
	"/>
<polygon id="XMLID_8_" points="44.7,92.7 41.7,92.3 37.6,90.9 33.1,88.7 28.9,86.3 25,83 22.2,79.6 20,75.5 19.2,71.4 18.7,67.5 
	19.2,65.7 20.8,62.9 23.7,64.3 28.1,64.9 26,60.6 25,56.4 24.8,53 25.1,50.1 20.8,53 17.5,55.4 13.7,58.6 11,61 13.7,61.7 
	16.1,61.7 14.6,64 13.7,67.3 14,74.3 16.9,81.8 21.8,90 25.2,94.8 28.9,98.6 33.4,102.7 35.2,104 "/>
<polygon id="XMLID_9_" points="16.7,86.8 19.8,91.7 13,91.7 "/>
<polygon id="XMLID_7_" points="55.2,91.7 48.8,91.7 42.8,89.9 37.8,88 32.8,85.4 28.9,82.4 26,79.2 24,77.1 64,24 71.1,31.2 
	80.4,41.7 90.8,53.1 101,69.4 114.4,88.9 117,91.7 112.2,91.7 67.4,36 65.2,38.4 64.3,42.8 66.8,46.9 66.8,49.7 63,47.2 60.8,48.6 
	60.6,50.8 54.8,51.7 54.8,56.7 56,60.9 54.8,62.8 56,67.4 60.9,75.5 57.8,78.8 56,79.3 "/>
</svg>
