<svg id="mountain-pass" xmlns="http://www.w3.org/2000/svg" x="0px" y="0px" viewBox="0 0 128 128">
<polygon id="XMLID_4_" points="68.3,91.1 85.4,91.1 84.1,89.4 82.9,88.3 81.8,89.7 80,89.7 79.4,87.1 76.8,83.8 76,85.1 74.3,86.1 
	71.4,86.1 70.1,87.4 69.3,89.1 "/>
<polygon id="XMLID_1_" points="92,91.1 87.9,87.4 87.1,82.5 84.6,77.6 83.6,71.6 89.5,75.9 93,80.1 97.3,83.8 97.3,89.6 95.8,91.1 
	"/>
<polygon id="XMLID_5_" points="13.1,91.1 64.4,91.1 65.1,80.6 66.6,80.1 69.3,77.4 65.1,70.5 64,66.4 65.1,65 64,61.8 64,57.1 
	69,56.4 69.1,54.5 71,53.3 74.3,55.4 74.3,53 72.1,49.5 72.9,45.8 74.8,43.8 112.9,91.1 117,91.1 114.4,88.4 104.1,73.4 97.6,63 
	94.6,58.3 90.6,54 76.8,38.4 71.9,33.5 52.6,59.1 52.6,60.5 55,63.7 59,66.6 61,71.1 64.8,74.6 64,76.2 58.5,77.2 53.7,77.3 
	50.2,78.3 48.6,79.9 54.5,80.8 60,82.1 58.7,84.8 53.8,84.8 45.6,85.7 40.1,87.4 36,88 29.3,88.5 27.4,87.4 28.8,86.3 32.3,86.2 
	39.9,85.7 44.6,83.8 49.9,83.2 52.6,83.2 49.1,82.1 45.3,81.4 43.8,80.8 45,79 47.4,77.2 49.7,76.2 52.2,76 55.7,75.4 59.3,75.1 
	61.4,74.5 59.7,73 57.1,67.8 52.6,64 50.9,61.3 37.9,78.3 37.4,77 35.5,69.8 38.5,65.4 40.4,65.1 42.9,62 42.3,60 44.5,59.4 
	44.5,57.3 45.9,55.8 49.5,60.6 52,57.4 44.5,48.5 "/>
</svg>
