<svg version="1.1" id="riesj" xmlns="http://www.w3.org/2000/svg" viewBox="0 0 128 128">
<path id="XMLID_3_" d="M-3.3,45.3"/>
<g id="XMLID_19_">
	<polygon id="XMLID_40_" points="35.5,63.3 35,62.9 31.5,59.6 29.4,57.7 28.2,50.8 29.4,42.1 30.2,32 35.2,22.8 40.3,17.7 50,12.8 
		60.8,10.4 70.1,10.4 76.9,11.9 80.5,15.7 85.9,16.5 90.6,19.8 93.8,25.6 95.9,32.5 97.2,40.9 98.2,48.4 98.2,51.8 97.2,56.4 
		93.3,61.7 92.4,62.9 92.6,49.9 92,41.6 90.5,33.6 86.4,31.8 82.6,28.2 80.3,24.8 76,28.4 74.1,29.5 75.4,26.9 70.8,29.5 68.1,30 
		69,28.5 63.9,30 69.1,26.4 58.4,29.1 51.9,31.2 48.8,32 43.2,32.9 38.9,31.9 35.9,34.4 34.8,51.8 	"/>
	<polygon id="XMLID_39_" points="54.7,51.3 51.7,50.7 48.5,50.7 45.1,51.4 41.6,52.4 40.8,51.5 43.2,49.7 46.4,48 50.8,47.2 
		53.4,48.5 	"/>
	<polygon id="XMLID_38_" points="73,51.3 75.9,50.7 79.1,50.7 82.6,51.4 86.1,52.4 86.9,51.5 84.5,49.7 81.3,48 76.9,47.2 
		74.3,48.5 	"/>
	<g id="XMLID_33_">
		<path id="XMLID_35_" d="M54.3,62.5C54.3,62.5,54.3,62.5,54.3,62.5l-4.8-0.1l-3-0.6c-0.1,0-0.1,0-0.2-0.1l-1.8-1.1
			c-0.2-0.1-0.3-0.2-0.3-0.4l-0.3-2c0-0.2,0-0.4,0.2-0.5l1.3-1.4c0.1-0.1,0.2-0.2,0.3-0.2l2.9-0.7l4.5-0.3c0.1,0,0.2,0,0.3,0
			l3.5,1.4c0,0,0,0,0,0l1.8,0.9c0.2,0.1,0.3,0.3,0.3,0.5l0.1,1.7c0,0.2-0.1,0.4-0.3,0.6l-2.5,1.7c-0.1,0-0.1,0.1-0.2,0.1l-1.7,0.5
			C54.4,62.5,54.4,62.5,54.3,62.5z M46.9,60.6l2.8,0.6l4.6,0.1l1.5-0.4l2.1-1.4l-0.1-1l-1.5-0.7L53,56.4l-4.2,0.3l-2.7,0.7l-0.9,1
			l0.2,1.4L46.9,60.6z"/>
		<circle id="XMLID_34_" cx="51.9" cy="58.7" r="3"/>
	</g>
	<g id="XMLID_28_">
		<path id="XMLID_30_" d="M74,62.4c-0.1,0-0.1,0-0.2,0l-1.7-0.5c-0.1,0-0.1,0-0.2-0.1l-2.5-1.7c-0.2-0.1-0.3-0.3-0.3-0.6l0.2-1.7
			c0-0.2,0.2-0.4,0.3-0.5l1.8-0.9c0,0,0,0,0,0l3.5-1.4c0.1,0,0.2,0,0.3,0l4.4,0.3l3,0.8c0.1,0,0.2,0.1,0.3,0.2l1.2,1.4
			c0.1,0.1,0.2,0.3,0.1,0.5l-0.4,2c0,0.2-0.1,0.3-0.3,0.4l-1.8,1.1c-0.1,0-0.1,0.1-0.2,0.1l-2.9,0.6L74,62.4
			C74,62.4,74,62.4,74,62.4z M72.5,60.7l1.5,0.5l4.7,0l2.7-0.5l1.5-0.9l0.3-1.4l-0.9-1l-2.8-0.7l-4.1-0.3L72,57.5l-1.5,0.7l-0.1,1
			L72.5,60.7z"/>
		<circle id="XMLID_29_" cx="76.4" cy="58.6" r="3"/>
	</g>
	<path id="XMLID_25_" d="M39.4,79.1c-0.1,0-0.1,0-0.2,0l-3.6-1.3c-0.2-0.1-0.3-0.2-0.4-0.4l-1.3-3.5l-1.5-4.8l-2.8-7.8l-1.1-5
		c-0.1-0.3,0.1-0.5,0.3-0.7c0.2-0.1,0.5-0.1,0.7,0.1l6.4,7.2c0.1,0.1,0.1,0.2,0.1,0.3L40,78.3c0.1,0.2,0,0.5-0.2,0.6
		C39.7,79,39.5,79.1,39.4,79.1z M36.3,76.7l2.3,0.8l-3.6-13.9l-4.7-5.4l0.6,2.7l2.8,7.8l1.5,4.8L36.3,76.7z"/>
	<path id="XMLID_24_" d="M64,103.1c0,0-0.1,0-0.1,0l-6.6-1.5c-0.1,0-0.1,0-0.1-0.1L52,98.9l-5.2-4c0,0-0.1-0.1-0.1-0.1l-2.5-3.3
		l-2.8-5.4l-2.6-7.4c-0.1-0.3,0.1-0.7,0.4-0.8c0.3-0.1,0.7,0.1,0.8,0.4l2.5,7.3l2.7,5.3l2.4,3.1l5.1,3.9l4.9,2.5l6.4,1.4l5.4-1.1
		l4.8-2.3l6.1-4.5l3.8-5.6l3.2-6.7l1.6-8l2.8-11c0.1-0.3,0.4-0.5,0.7-0.4c0.3,0.1,0.5,0.4,0.4,0.7l-2.8,11l-1.6,8c0,0,0,0.1,0,0.1
		L85.2,89l-3.9,5.8c0,0.1-0.1,0.1-0.1,0.2l-6.3,4.6l-5,2.3c0,0-0.1,0-0.1,0l-5.6,1.1C64.1,103,64,103.1,64,103.1z"/>
	<path id="XMLID_23_" d="M62,86.6l-3-0.2l-4.7-1.2c-0.3-0.1-0.5-0.4-0.4-0.7c0.1-0.3,0.4-0.5,0.7-0.4l4.6,1.2l2.8,0.2l4,0l4.3-0.5
		l2.1-0.9c0.3-0.1,0.7,0,0.8,0.3c0.1,0.3,0,0.7-0.3,0.8l-2.1,1c-0.1,0-0.1,0-0.2,0l-4.5,0.5L62,86.6z"/>
	<path id="XMLID_22_" d="M89,79.1c-0.2,0-0.5-0.1-0.6-0.4c-0.1-0.3,0-0.7,0.3-0.8l2.7-1.1l1.6-4.1l2.7-8.3l0.8-8.2
		c0-0.3,0.3-0.6,0.7-0.5c0.3,0,0.6,0.3,0.5,0.7L97,64.7c0,0,0,0.1,0,0.1l-2.7,8.3l-1.7,4.4c-0.1,0.2-0.2,0.3-0.3,0.3L89.3,79
		C89.2,79.1,89.1,79.1,89,79.1z"/>
	<path id="XMLID_21_" d="M65.9,116.6C65.8,116.6,65.8,116.6,65.9,116.6l-10.3-1c-0.1,0-0.1,0-0.1,0l-6.8-2.4c-0.1,0-0.2-0.1-0.2-0.1
		l-4.8-4.8c-0.1-0.1-0.2-0.3-0.2-0.5s0.1-0.3,0.2-0.4l6-4.6l-0.3-6.1l1.2-0.1l0.3,6.4c0,0.2-0.1,0.4-0.2,0.5l-5.7,4.4l4.2,4.2
		l6.6,2.4l10.1,1l8.4-1.3l5.3-2.5l3.5-3.9l-5.6-4.2c-0.2-0.1-0.3-0.4-0.2-0.6l1-7l1.2,0.2l-1,6.7l5.9,4.3c0.1,0.1,0.2,0.3,0.2,0.4
		s0,0.3-0.1,0.5l-4,4.5c-0.1,0.1-0.1,0.1-0.2,0.1l-5.5,2.6c-0.1,0-0.1,0-0.2,0.1L65.9,116.6C65.9,116.6,65.9,116.6,65.9,116.6z"/>
	<polygon id="XMLID_20_" points="12.4,119.9 12.8,119.2 19.9,114.3 26.8,113.1 35.2,111.7 40.9,109.2 44,107.8 48.8,112.6 55.6,115 
		65.9,116 74.4,114.6 79.9,112 83.9,107.5 90.4,111.3 97.2,112.4 105.6,113.7 111.8,117.3 113.8,120 	"/>
</g>
</svg>
