<svg version="1.1" id="riesj_v2" xmlns="http://www.w3.org/2000/svg" viewBox="0 0 128 128">
<path id="XMLID_3_" class="st0" d="M-9.2,40.5"/>
<polygon id="XMLID_4_" points="39,54.2 38.5,53.8 35.4,50.9 33.4,49.1 32.7,43 32.7,36.3 34.1,25.9 39.2,18.3 44.5,14.1 52.1,8.5 
	61.7,7.1 68.7,7.7 76,8.8 79.7,11.1 83.2,12.9 86.2,17.4 89.5,21.6 93.2,27.2 94.8,33.9 95.7,40.7 95.7,43.8 94.8,48 91.1,51.4 
	88.4,51.4 88.8,43.4 87.9,36.3 86.9,28.3 83.3,24.1 81.6,22.4 79.5,19.4 75.6,22.7 73.9,23.7 75,21.3 70.9,23.6 68.5,24.1 
	69.3,22.7 64.6,24.1 69.4,20.9 59.7,23.3 53.8,25.2 51,25.9 48.7,26.3 43.8,26.2 40.8,28.9 39.8,44.1 "/>
<polygon id="XMLID_7_" points="59.3,42 56.6,41.5 53.7,41.5 50.6,42.1 45.7,44.1 45.7,42.6 48.5,40.1 51.7,39 55.8,38.9 58.1,39.5 
	"/>
<path id="XMLID_16_" d="M55.6,50.8C55.6,50.8,55.6,50.8,55.6,50.8l-3.4-0.1L50,50.3c0,0-0.1,0-0.1-0.1l-1.3-0.8
	c-0.1-0.1-0.2-0.2-0.2-0.3l-0.2-1.4c0-0.1,0-0.3,0.1-0.4l0.9-1c0.1-0.1,0.1-0.1,0.2-0.1l2.1-0.5l3.2-0.2c0.1,0,0.1,0,0.2,0l2.5,1
	c0,0,0,0,0,0l1.3,1.1c0.1,0.1,0.9,1,0.9,1.2l0.1,0.2c0,0.2-0.1,0.2-0.2,0.2l-2.5,1c0,0-0.1,0-0.1,0.1l-1.2,0.3
	C55.6,50.8,55.6,50.8,55.6,50.8z M50.3,49.5l2,0.4l3.3,0l1.1-0.3l2-0.7L57.9,48L57,47.4l-2.4-1l-3,0.2l-1.9,0.5L49,47.8l0.2,1
	L50.3,49.5z"/>
<circle id="XMLID_169_" cx="53" cy="48.2" r="2.2"/>
<path id="XMLID_11_" d="M64,88.1l6.1,0l5.5-1.7l4.1-3.2l4.5-7.6l1.7-8l1.4-7.2l1.1-8.9c0.1-0.3,0.6-0.8,0.9-0.8
	c0.3,0.1,0.4,0.6,0.3,0.9l-1.2,9.1L87,67.9c0,0,0,0.1,0,0.1l-1.7,7.7l-2.6,4.7c0,0.1-2.4,3.8-2.5,3.9l-4.6,3.4l-4.4,1.1
	c0,0-1.6,0.2-1.6,0.3L64,89C64,89,64,88.1,64,88.1z"/>
<path id="XMLID_9_" d="M62.5,72.4l-3.3-0.2L54,71.1c-0.4-0.1-0.6-0.4-0.5-0.7c0.1-0.3,0.5-0.5,0.8-0.4l5.1,1.1l3.1,0.2l4.4,0
	l4.8-0.4l2.3-0.8c0.3-0.1,0.7,0,0.9,0.3c0.2,0.3,0,0.6-0.3,0.7l-2.4,0.9c-0.1,0-0.1,0-0.2,0L67,72.4L62.5,72.4z"/>
<path id="XMLID_6_" d="M87.4,65.2c-0.2,0-0.4-0.1-0.5-0.3c-0.1-0.3,0-0.6,0.3-0.7l2.4-1l1.4-3.7l2.5-7.5l0.8-7.4
	c0-0.3,0.3-0.5,0.6-0.5c0.3,0,0.5,0.3,0.5,0.6l-0.8,7.5c0,0,0,0.1,0,0.1l-2.5,7.5l-1.5,3.9c-0.1,0.1-0.2,0.3-0.3,0.3l-2.7,1.1
	C87.5,65.2,87.5,65.2,87.4,65.2z"/>
<path id="XMLID_5_" d="M63.6,116.3c0,0-1.6,0-1.6,0l0-1.5l7.3-0.4l6.6-0.8l5.2-1.9l2.4-2.6l0.8-9.6l-2.2-4.8l0.2-5
	c-0.2-0.1,0-3.4,0-3.6l-0.4-6.3l0.8-1.2l0.4,7.6v5c0.1,0.1,0,2.2,0,2.4c0,0.2,0.5,1.8,0.4,1.9l2.2,4.6c0,0.1-0.8,9.3-0.9,9.4
	l-4.4,3.8c0,0-6.7,2-6.8,2C73.8,115.3,63.7,116.3,63.6,116.3z"/>
<polygon id="XMLID_180_" points="8,122.7 8,115.3 15.3,110.4 23.7,105.5 29.2,102.8 34.3,100.5 38.3,99.4 40.4,99 42.9,98.9 
	43.7,107 45.6,111.1 54.3,115.1 64.5,116.1 72.8,115.3 77.1,114.3 82.5,111.3 85.1,107.3 85.1,98.9 94.1,99.4 99.3,101.5 105.2,104 
	111.8,107.2 120,114.3 120,117.7 120,122.7 "/>
<polygon id="XMLID_23_" points="69.1,42 71.8,41.5 74.7,41.5 77.8,42.1 82.7,44.1 82.7,42.6 79.9,40.1 76.7,39 72.6,38.9 70.3,39.5 
	"/>
<path id="XMLID_19_" d="M72.7,50.8l-1.2-0.3c0,0-0.1,0-0.1-0.1l-2.5-1c-0.1-0.1-0.2-0.1-0.2-0.2l0.1-0.2c0-0.2,0.8-1.1,0.9-1.2
	l1.3-1.1c0,0,0,0,0,0l2.5-1c0.1,0,0.1,0,0.2,0l3.2,0.2l2.1,0.5c0.1,0,0.2,0.1,0.2,0.1l0.9,1c0.1,0.1,0.1,0.2,0.1,0.4L80,49.2
	c0,0.1-0.1,0.2-0.2,0.3l-1.3,0.8c0,0-0.1,0-0.1,0.1l-2.1,0.4l-3.4,0.1c0,0,0,0,0,0C72.8,50.8,72.8,50.8,72.7,50.8z M79.2,48.8l0.2-1
	l-0.7-0.7l-1.9-0.5l-3-0.2l-2.4,1L70.5,48l-0.8,0.9l2,0.7l1.1,0.3l3.3,0l2-0.4L79.2,48.8z"/>
<circle id="XMLID_8_" cx="75.4" cy="48.2" r="2.2"/>
<path id="XMLID_13_" class="st1" d="M64,128"/>
<path id="XMLID_10_" class="st1" d="M64,0"/>
<path id="XMLID_14_" d="M64.1,88.1L58,88l-5.5-1.7l-4.1-3.2l-4.5-7.6l-1.7-8l-1.4-7.2l-1.1-8.9c-0.1-0.3-0.6-0.8-0.9-0.8
	c-0.3,0.1-0.4,0.6-0.3,0.9l1.2,9.1l1.4,7.3c0,0,0,0.1,0,0.1l1.7,7.7l2.6,4.7c0,0.1,2.4,3.8,2.5,3.9l4.6,3.4l4.4,1.1
	c0,0,1.6,0.2,1.6,0.3l5.5,0.1C64.1,89,64.1,88.1,64.1,88.1z"/>
<path id="XMLID_2_" d="M41.1,64.9c0.2,0,0.4-0.1,0.5-0.3c0.1-0.3,0-0.6-0.3-0.7l-2.4-1l-1.4-3.7L35,51.7l-0.8-7.4
	c0-0.3-0.3-0.5-0.6-0.5c-0.3,0-0.5,0.3-0.5,0.6l0.8,7.5c0,0,0,0.1,0,0.1l2.5,7.5l1.5,3.9c0.1,0.1,0.2,0.3,0.3,0.3l2.7,1.1
	C41,64.9,41,64.9,41.1,64.9z"/>
<path id="XMLID_12_" d="M64.5,116.1c0,0,1.6,0,1.6,0l0-1.5l-7.3-0.4l-6.6-0.8l-5.2-1.9l-2.4-2.6l-0.8-9.6l2.2-4.8l-0.2-5
	c0.2-0.1,0-3.4,0-3.6l0.4-6.3l-0.8-1.2L45,86.1v5c-0.1,0.1,0,2.2,0,2.4s-0.5,1.8-0.4,1.9l-2.2,4.6c0,0.1,0.8,9.3,0.9,9.4l4.4,3.8
	c0,0,6.7,2,6.8,2C54.3,115.1,64.4,116.1,64.5,116.1z"/>
</svg>
