<svg id="rotterdam" xmlns="http://www.w3.org/2000/svg" x="0px" y="0px" viewBox="0 0 128 128">
<path id="XMLID_10_" d="M117.8,91.1L45.4,32.6l0.1,1.2l-0.4-3.4l-3.1-0.9l-0.6,0.9l0.6,6.6l-32.4,54H8.8v7.4h11.7v-3.7h27.9v3.7
	h24.4v-4.6h33.9v4.6h12.5v-7.4H117.8z M12.2,91.1l22.6-37.9l-18,37.9H12.2z M19.3,91.1l21.6-46.5l1.1-1.6l0.6,14.8l7.1,33.4H19.3z
	 M54.2,91.1l-6.5-27.1l15.3,27.1H54.2z M67.9,91.1L48.3,56.7l-0.5-4.1l25.1,38.5H67.9z M98.4,91.1L46,37.7l0.2,1.7l50.7,51.6h-7
	L46.5,41.2l0.3,2.1l41.6,47.7h-6.7L47,45.4l0.3,2.3l32.9,43.4h-5.6l-27-40.7l-1.7-14.3l60.6,55H98.4z M108.4,91.1L45.7,34.8
	l-0.1-0.6l70.3,56.9H108.4z"/>
</svg>
