<svg version="1.1" id="town" xmlns="http://www.w3.org/2000/svg" x="0px" y="0px"
	 viewBox="0 0 128 128">
<polygon id="XMLID_4_" points="91.1,26.8 39.6,26.8 24.3,51.2 103.8,51.2 "/>
<path id="XMLID_3_" d="M70,76.8H57.8c-1.1,0-2,0.9-2,2v24.3c0,1.1,0.9,2,2,2H70c1.1,0,2-0.9,2-2V78.8C72,77.7,71.1,76.8,70,76.8z"/>
<path id="XMLID_10_" d="M31.4,52.7v17v34.7l22.8,0V78.8c0-2,1.6-3.7,3.6-3.7h12.4c1.7,0,3.2,1.2,3.5,2.9v26.3h22.9V69.7v-17H31.4z
	 M50.9,78.6c0,1.1-0.9,2-2,2h-12c-1.1,0-2-0.9-2-2v-8.9V65c0-1.1,0.9-2,2-2h12c1.1,0,2,0.9,2,2v4.7V78.6z M93,78.6c0,1.1-0.9,2-2,2
	H79c-1.1,0-2-0.9-2-2v-8.9V65c0-1.1,0.9-2,2-2h12c1.1,0,2,0.9,2,2v4.7V78.6z"/>
</svg>
