<svg id="waterfall" xmlns="http://www.w3.org/2000/svg" x="0px" y="0px" viewBox="0 0 128 128">
<polygon id="XMLID_1_" points="32.8,103.6 35.7,103.6 39.6,102.4 46.3,99.9 45.7,97.4 45.3,95.1 46.3,93.1 47.2,90.8 48.4,90.1 
	50.6,88.9 49.2,63.1 48.8,54.7 48.7,50.1 48.3,45.7 47.4,43.1 45.9,41.3 44.7,40.1 44.4,38.1 44.6,35.6 43.9,34.1 42.4,33.3 
	40.6,32.4 39.8,27.6 38.6,21.2 37.1,18.7 34.9,17.3 32.8,17.3 31.9,19.6 32.7,23.7 31.9,36.1 32.6,50.8 31.9,61.1 32.7,75.2 
	31.2,83.3 31.2,87.6 32.1,92.6 32.1,96.7 31.2,99.1 "/>
<polygon id="XMLID_3_" points="52.3,88.2 53.6,87.4 51.7,63.4 "/>
<polygon id="XMLID_4_" points="56.4,87.6 57.3,88.2 55.4,68.4 "/>
<polygon id="XMLID_5_" points="59.9,89.6 60.9,89.6 57.3,55.4 "/>
<polygon id="XMLID_2_" points="63.9,86.2 66.4,84.9 69.4,84.9 71.8,86.2 73.4,88.2 75.1,86.6 74.4,82.3 72.8,75.8 70.9,69.8 
	69.5,62.9 70.3,55.4 69.5,52.2 67.7,49.9 63.9,47.9 60.9,45.7 59.1,43.6 56.4,41.9 54.2,41.1 52.6,40.6 55.4,42.4 57.3,44.1 
	58.1,46.7 59.9,52.2 60.9,61.7 62.9,74.7 63.8,81.6 "/>
<polygon id="XMLID_6_" points="51.7,102.6 56.4,103.6 61.9,103.6 67.7,103.1 71.4,102.6 73.1,101.4 73.7,100.1 71.9,98.7 75.1,99.9 
	76.6,101.1 75.8,102.7 73.9,103.6 70.3,104.3 65.8,104.9 60.9,104.9 56.4,104.4 "/>
<polygon id="XMLID_8_" points="45.4,105.9 48.9,108.7 52.6,110.1 59.1,110.7 64.1,110.7 69.7,110.1 73.4,109.3 76.6,108.3 
	78.1,107.1 82.6,106.9 88.6,106.6 91.4,105.9 95.2,104.2 96.8,102.8 96.8,101.2 96.2,99.7 95.7,101.8 93.9,102.8 91.4,103.6 
	85.4,104.9 81.3,105.2 76.6,104.9 75.1,106.6 72.4,107.7 68.7,108.4 63.2,108.4 57.3,108.4 53.6,108.1 50.6,107.2 "/>
</svg>
