<svg version="1.1" id="wilderness-mountains" xmlns="http://www.w3.org/2000/svg" viewBox="0 0 256 128">
<polygon id="XMLID_11_" points="171.1,46.4 167.6,44.1 167,41.2 166.5,39.7 166.5,38.4 166.5,37.2 167.7,37.2 168.8,38.3 
	170.3,39.6 169.4,41.2 170.4,42.5 171.1,44.2 171.8,46.4 "/>
<path id="XMLID_6_" d="M179,94c0-1-1.7-2-4.2-2.6h0.3c0,0,0.8,0.2,1.7-0.8c0.8-0.9,0.9-2.6,0.9-2.6h-0.1c0-0.9-1.1-1.6-2.8-2.2
	c0.3,0,0.8-0.2,1.3-0.8c0.8-1,0.9-2.7,0.9-2.7h-0.1c0-1.1-1.5-2.1-3.8-2.7h0.6c0,0,0.7,0.1,1.4-0.7c0.7-0.8,0.8-2.3,0.8-2.3h-0.1
	c0-0.9-1.1-1.6-2.8-2.2c0.2-0.1,0.5-0.2,0.8-0.6c0.6-0.7,0.7-2.1,0.7-2.1h-0.1c0-0.9-1.3-1.7-3.1-2.1h0.2c0,0,0.5,0.1,0.9-0.5
	c0.5-0.7,0.5-1.8,0.5-1.8h-0.1c0-0.7-0.7-1.3-1.8-1.7c0.1,0,0.4-0.2,0.6-0.5c0.4-0.7,0.4-1.8,0.4-1.8h-0.1c0-0.7-0.6-1.2-1.4-1.7
	l0.6-1.4l-0.4-3.8l-1.2-0.8l-1-2.1l-2-0.7l-1.2,0.6l-0.7,2.3l-1.4,1.2v4l0.6,0.8c-0.9,0.4-1.4,1-1.5,1.7h0c0,0,0,0,0,0c0,0,0,0,0,0
	c0,0,0,0,0,0c0,0.2,0.1,1.2,0.4,1.8c0.2,0.4,0.4,0.5,0.6,0.5c-1.1,0.4-1.8,1-1.9,1.7h0c0,0,0,0,0,0c0,0,0,0,0,0c0,0,0,0,0,0
	c0,0.2,0.1,1.2,0.5,1.8c0.5,0.7,0.9,0.5,0.9,0.5h0.1c-1.9,0.5-3.1,1.3-3.1,2.1h0c0,0,0,0,0,0c0,0,0,0,0,0c0,0,0,0,0,0
	c0,0.3,0.1,1.3,0.6,2c0.3,0.4,0.6,0.5,0.8,0.6c-1.7,0.5-2.8,1.3-2.8,2.2h0c0,0,0,0,0,0c0,0,0,0,0,0c0,0,0,0,0,0
	c0,0.3,0.2,1.5,0.8,2.3c0.7,0.8,1.4,0.7,1.4,0.7h0.5c-2.3,0.6-3.8,1.6-3.8,2.7h0c0,0,0,0,0,0c0,0,0,0,0,0c0,0,0,0,0,0
	c0,0.3,0.2,1.7,0.9,2.6c0.5,0.6,0.9,0.7,1.2,0.8c-1.7,0.6-2.8,1.4-2.8,2.2h0c0,0,0,0,0,0c0,0,0,0,0,0c0,0,0,0,0,0
	c0,0.3,0.2,1.7,0.9,2.5c0.8,0.9,1.7,0.8,1.7,0.8h0.1c-2.6,0.6-4.2,1.6-4.2,2.6h0c0,0,0,0,0,0c0,0,0,0,0,0c0,0,0,0,0,0
	c0,0.3,0.2,1.7,1.1,2.6c1,1,1.9,0.8,1.9,0.8h2.9h4v10.4h4.2l-0.1-10.4l0.1,0h4.1h2.9c0,0,1,0.2,1.9-0.8c1-1,1.1-2.7,1.1-2.7H179z"/>
<path id="XMLID_7_" d="M156.4,99.1l-2.5-2.1l-0.6-1.7v-1.5v-1.3l0.9-0.9l1.2-0.5l-1.2-1.6v-1.8l0.7-1.1l1.4-1.3l-0.4-1.2l-0.4-1.6
	l0.1-1.5l1.1-1.2l1.1-0.6l-0.9-1.5l-0.1-1.5l0.6-1.1l0.5-0.7l1-0.7l-0.7-1.2v-1.1l0.7-0.8l0.4-0.6l0.5-0.8l0.4-0.8v-0.9v-1.1
	l0.4-1.1c-0.5-0.3-1.3-0.6-2.1-0.9h0.2c0,0,0.5,0.1,0.9-0.5c0.5-0.7,0.5-1.8,0.5-1.8h-0.1c0-0.7-0.7-1.3-1.8-1.7
	c0.1,0,0.4-0.2,0.6-0.5c0.4-0.7,0.4-1.8,0.4-1.8H159c0-0.7-0.6-1.2-1.4-1.7l0.6-1.4l-0.4-3.8l-1.2-0.8l-1-2.1l-2-0.7l-1.2,0.6
	l-0.7,2.3l-1.4,1.2v4l0.6,0.8c-0.9,0.4-1.4,1-1.5,1.7h0c0,0,0,0,0,0c0,0,0,0,0,0c0,0,0,0,0,0c0,0.2,0.1,1.2,0.4,1.8
	c0.2,0.4,0.4,0.5,0.6,0.5c-1.1,0.4-1.8,1-1.9,1.7h0c0,0,0,0,0,0c0,0,0,0,0,0c0,0,0,0,0,0c0,0.2,0.1,1.2,0.5,1.8
	c0.5,0.7,0.9,0.5,0.9,0.5h0.1c-1.9,0.5-3.1,1.3-3.1,2.1h0c0,0,0,0,0,0c0,0,0,0,0,0c0,0,0,0,0,0c0,0.3,0.1,1.3,0.6,2
	c0.3,0.4,0.6,0.5,0.8,0.6c-1.7,0.5-2.8,1.3-2.8,2.2h0c0,0,0,0,0,0c0,0,0,0,0,0c0,0,0,0,0,0c0,0.3,0.2,1.5,0.8,2.3
	c0.7,0.8,1.4,0.7,1.4,0.7h0.5c-2.3,0.6-3.8,1.6-3.8,2.7h0c0,0,0,0,0,0c0,0,0,0,0,0c0,0,0,0,0,0c0,0.3,0.2,1.7,0.9,2.6
	c0.5,0.6,0.9,0.7,1.2,0.8c-1.7,0.6-2.8,1.4-2.8,2.2h0c0,0,0,0,0,0c0,0,0,0,0,0c0,0,0,0,0,0c0,0.3,0.2,1.7,0.9,2.5
	c0.8,0.9,1.7,0.8,1.7,0.8h0.1c-2.6,0.6-4.2,1.6-4.2,2.6h0c0,0,0,0,0,0c0,0,0,0,0,0c0,0,0,0,0,0c0,0.3,0.2,1.7,1.1,2.6
	c1,1,1.9,0.8,1.9,0.8h2.9h4v10.4h4.2L156.4,99.1L156.4,99.1z"/>
<polygon id="XMLID_9_" points="116.5,73.1 132.2,73.1 131.1,71.4 129.9,70.4 128.9,71.7 127.3,71.7 126.7,69.4 124.3,66.3 
	123.6,67.5 122,68.5 119.4,68.5 118.2,69.7 117.4,71.2 "/>
<polygon id="XMLID_2_" points="138.3,73.1 134.5,69.7 133.8,65.1 131.5,60.7 130.6,55.2 136,59.1 139.2,63 143.1,66.3 143.1,71.7 
	141.7,73.1 "/>
<path id="XMLID_10_" d="M100.8,86.8c0-1-1.7-2-4.2-2.6h0.3c0,0,0.8,0.2,1.7-0.8c0.8-0.9,0.9-2.6,0.9-2.6h-0.1c0-0.9-1.1-1.6-2.8-2.2
	c0.3,0,0.8-0.2,1.3-0.8c0.8-1,0.9-2.7,0.9-2.7h-0.1c0-1.1-1.5-2.1-3.8-2.7h0.6c0,0,0.7,0.1,1.4-0.7c0.7-0.8,0.8-2.3,0.8-2.3h-0.1
	c0-0.9-1.1-1.6-2.8-2.2c0.2-0.1,0.5-0.2,0.8-0.6c0.6-0.7,0.7-2.1,0.7-2.1h-0.1c0-0.9-1.3-1.7-3.1-2.1h0.2c0,0,0.5,0.1,0.9-0.5
	c0.5-0.7,0.5-1.8,0.5-1.8h-0.1c0-0.7-0.7-1.3-1.8-1.7c0.1,0,0.4-0.2,0.6-0.5c0.4-0.7,0.4-1.8,0.4-1.8h-0.1c0-0.7-0.6-1.2-1.4-1.7
	l0.6-1.4l-0.4-3.8l-1.2-0.8l-1-2.1l-2-0.7L87,46.1l-0.7,2.3L85,49.6v4l0.6,0.8c-0.9,0.4-1.4,1-1.5,1.7h0c0,0,0,0,0,0c0,0,0,0,0,0
	c0,0,0,0,0,0c0,0.2,0.1,1.2,0.4,1.8c0.2,0.4,0.4,0.5,0.6,0.5c-1.1,0.4-1.8,1-1.9,1.7h0c0,0,0,0,0,0c0,0,0,0,0,0c0,0,0,0,0,0
	c0,0.2,0.1,1.2,0.5,1.8c0.5,0.7,0.9,0.5,0.9,0.5h0.1c-1.9,0.5-3.1,1.3-3.1,2.1h0c0,0,0,0,0,0c0,0,0,0,0,0c0,0,0,0,0,0
	c0,0.3,0.1,1.3,0.6,2c0.3,0.4,0.6,0.5,0.8,0.6c-1.7,0.5-2.8,1.3-2.8,2.2h0c0,0,0,0,0,0c0,0,0,0,0,0c0,0,0,0,0,0
	c0,0.3,0.2,1.5,0.8,2.3c0.7,0.8,1.4,0.7,1.4,0.7h0.5c-2.3,0.6-3.8,1.6-3.8,2.7h0c0,0,0,0,0,0c0,0,0,0,0,0c0,0,0,0,0,0
	c0,0.3,0.2,1.7,0.9,2.6c0.5,0.6,0.9,0.7,1.2,0.8c-1.7,0.6-2.8,1.4-2.8,2.2h0c0,0,0,0,0,0c0,0,0,0,0,0c0,0,0,0,0,0
	c0,0.3,0.2,1.7,0.9,2.5c0.8,0.9,1.7,0.8,1.7,0.8h0.1c-2.6,0.6-4.2,1.6-4.2,2.6h0c0,0,0,0,0,0c0,0,0,0,0,0c0,0,0,0,0,0
	c0,0.3,0.2,1.7,1.1,2.6c1,1,1.9,0.8,1.9,0.8h2.9h4v10.4H91l-0.1-10.4l0.1,0h4.1H98c0,0,1,0.2,1.9-0.8c1-1,1.1-2.7,1.1-2.7H100.8z"/>
<polygon id="XMLID_12_" points="142.2,75.7 141.8,74.1 100.8,74.1 101,74.4 101.1,75.3 101.3,76.3 100.8,77.3 100,78.4 100.7,78.7 
	101.3,79.3 101.6,80.3 101.7,81.2 101.6,82 101.4,82.3 106.5,82.5 101.2,82.8 100.6,84 101.7,84.7 102.6,85.3 102.8,86.6 
	102.8,87.8 102.2,89.3 117.1,89.9 101.7,90.5 100.7,91.4 99.7,92.2 103.8,94 109.8,93.6 112.1,95.2 117.6,93.8 111.6,93.3 
	124.7,92.8 127.3,91.4 129.3,90.9 131.6,90 133.3,87.9 134.9,87.1 109.2,85.9 140.1,84.7 141.3,82.5 125.3,82 141.9,80.6 
	142.2,79.1 102.2,77.9 142.2,76.5 "/>
<path id="XMLID_21_" d="M64.2,78.1c0-1-1.7-2-4.2-2.6h0.3c0,0,0.8,0.2,1.7-0.8c0.8-0.9,0.9-2.6,0.9-2.6h-0.1c0-0.9-1.1-1.6-2.8-2.2
	c0.3,0,0.8-0.2,1.3-0.8c0.8-1,0.9-2.7,0.9-2.7h-0.1c0-1.1-1.5-2.1-3.8-2.7h0.6c0,0,0.7,0.1,1.4-0.7c0.7-0.8,0.8-2.3,0.8-2.3h-0.1
	c0-0.9-1.1-1.6-2.8-2.2c0.2-0.1,0.5-0.2,0.8-0.6c0.6-0.7,0.7-2.1,0.7-2.1h-0.1c0-0.9-1.3-1.7-3.1-2.1h0.2c0,0,0.5,0.1,0.9-0.5
	c0.5-0.7,0.5-1.8,0.5-1.8h-0.1c0-0.7-0.7-1.3-1.8-1.7c0.1,0,0.4-0.2,0.6-0.5c0.4-0.7,0.4-1.8,0.4-1.8H57c0-0.7-0.6-1.2-1.4-1.7
	l0.6-1.4l-0.4-3.8l-1.2-0.8l-1-2.1l-2-0.7l-1.2,0.6l-0.7,2.3l-1.4,1.2v4l0.6,0.8c-0.9,0.4-1.4,1-1.5,1.7h0c0,0,0,0,0,0c0,0,0,0,0,0
	c0,0,0,0,0,0c0,0.2,0.1,1.2,0.4,1.8c0.2,0.4,0.4,0.5,0.6,0.5c-1.1,0.4-1.8,1-1.9,1.7h0c0,0,0,0,0,0c0,0,0,0,0,0c0,0,0,0,0,0
	c0,0.2,0.1,1.2,0.5,1.8c0.5,0.7,0.9,0.5,0.9,0.5h0.1c-1.9,0.5-3.1,1.3-3.1,2.1h0c0,0,0,0,0,0c0,0,0,0,0,0c0,0,0,0,0,0
	c0,0.3,0.1,1.3,0.6,2c0.3,0.4,0.6,0.5,0.8,0.6c-1.7,0.5-2.8,1.3-2.8,2.2h0c0,0,0,0,0,0c0,0,0,0,0,0c0,0,0,0,0,0
	c0,0.3,0.2,1.5,0.8,2.3c0.7,0.8,1.4,0.7,1.4,0.7h0.5c-2.3,0.6-3.8,1.6-3.8,2.7h0c0,0,0,0,0,0c0,0,0,0,0,0c0,0,0,0,0,0
	c0,0.3,0.2,1.7,0.9,2.6c0.5,0.6,0.9,0.7,1.2,0.8c-1.7,0.6-2.8,1.4-2.8,2.2h0c0,0,0,0,0,0c0,0,0,0,0,0c0,0,0,0,0,0
	c0,0.3,0.2,1.7,0.9,2.5c0.8,0.9,1.7,0.8,1.7,0.8h0.1c-2.6,0.6-4.2,1.6-4.2,2.6h0c0,0,0,0,0,0c0,0,0,0,0,0c0,0,0,0,0,0
	c0,0.3,0.2,1.7,1.1,2.6c1,1,1.9,0.8,1.9,0.8h2.9h4v10.4h4.2l-0.1-10.4l0.1,0h4.1h2.9c0,0,1,0.2,1.9-0.8c1-1,1.1-2.7,1.1-2.7H64.2z"
	/>
<path id="XMLID_22_" d="M179.8,87.2c6.7-2.2,15.8-3.6,15.8-3.6s7.3-0.4,12.2,1.1c4.8,1.5,8.8,2.7,11.5,1.7c2.7-1,9.2-4.8,10.8-7.8
	c1.7-3,1-3.2,1-3.2l-3.3-1.2c0,0-1,3.2-2.5,4.2s-3.7,3.8-8.3,3.2s-7.5-1.5-10.7-2c-3.2-0.5-2.7-1.3-10-0.5
	c-7.3,0.8-17.2,2.7-17.2,2.7V83l-0.4,1l-1,1.3l1,0.6l0.8,0.6L179.8,87.2z"/>
<path id="XMLID_24_" d="M228.5,63.5c0-1-1.7-2-4.2-2.6h0.3c0,0,0.8,0.2,1.7-0.8c0.8-0.9,0.9-2.6,0.9-2.6H227c0-0.9-1.1-1.6-2.8-2.2
	c0.3,0,0.8-0.2,1.3-0.8c0.8-1,0.9-2.7,0.9-2.7h-0.1c0-1.1-1.5-2.1-3.8-2.7h0.6c0,0,0.7,0.1,1.4-0.7c0.7-0.8,0.8-2.3,0.8-2.3h-0.1
	c0-0.9-1.1-1.6-2.8-2.2c0.2-0.1,0.5-0.2,0.8-0.6c0.6-0.7,0.7-2.1,0.7-2.1h-0.1c0-0.9-1.3-1.7-3.1-2.1h0.2c0,0,0.5,0.1,0.9-0.5
	c0.5-0.7,0.5-1.8,0.5-1.8h-0.1c0-0.7-0.7-1.3-1.8-1.7c0.1,0,0.4-0.2,0.6-0.5c0.4-0.7,0.4-1.8,0.4-1.8h-0.1c0-0.7-0.6-1.2-1.4-1.7
	l0.6-1.4l-0.4-3.8l-1.2-0.8l-1-2.1l-2-0.7l-1.2,0.6l-0.7,2.3l-1.4,1.2v4l0.6,0.8c-0.9,0.4-1.4,1-1.5,1.7h0c0,0,0,0,0,0c0,0,0,0,0,0
	c0,0,0,0,0,0c0,0.2,0.1,1.2,0.4,1.8c0.2,0.4,0.4,0.5,0.6,0.5c-1.1,0.4-1.8,1-1.9,1.7h0c0,0,0,0,0,0c0,0,0,0,0,0c0,0,0,0,0,0
	c0,0.2,0.1,1.2,0.5,1.8c0.5,0.7,0.9,0.5,0.9,0.5h0.1c-1.9,0.5-3.1,1.3-3.1,2.1h0c0,0,0,0,0,0c0,0,0,0,0,0c0,0,0,0,0,0
	c0,0.3,0.1,1.3,0.6,2c0.3,0.4,0.6,0.5,0.8,0.6c-1.7,0.5-2.8,1.3-2.8,2.2h0c0,0,0,0,0,0c0,0,0,0,0,0c0,0,0,0,0,0
	c0,0.3,0.2,1.5,0.8,2.3c0.7,0.8,1.4,0.7,1.4,0.7h0.5c-2.3,0.6-3.8,1.6-3.8,2.7h0c0,0,0,0,0,0c0,0,0,0,0,0c0,0,0,0,0,0
	c0,0.3,0.2,1.7,0.9,2.6c0.5,0.6,0.9,0.7,1.2,0.8c-1.7,0.6-2.8,1.4-2.8,2.2h0c0,0,0,0,0,0c0,0,0,0,0,0c0,0,0,0,0,0
	c0,0.3,0.2,1.7,0.9,2.5c0.8,0.9,1.7,0.8,1.7,0.8h0.1c-2.6,0.6-4.2,1.6-4.2,2.6h0c0,0,0,0,0,0c0,0,0,0,0,0c0,0,0,0,0,0
	c0,0.3,0.2,1.7,1.1,2.6c1,1,1.9,0.8,1.9,0.8h2.9h4v10.4h4.2L218.6,67l0.1,0h4.1h2.9c0,0,1,0.2,1.9-0.8c1-1,1.1-2.7,1.1-2.7H228.5z"
	/>
<g id="XMLID_26_">
	<path id="XMLID_27_" d="M48.3,84.3c-4.4,1.3-7.9,3.9-7.9,3.9s-11,7-17,12.4c0,0-1.7,2.9-0.4,3.6c1.3,0.7,1.3,2.5,2.8,2.8
		c1.6,0.3,2.9,0.2,3.4-0.5c0.5-0.7,0.5-0.7,0.5-0.7s1.2-1.5,3.2-4.5s7-6.1,7-6.1s4.3-3.1,8.4-5.2V84.3z"/>
	<path id="XMLID_28_" d="M144.3,94.3l-2.1-0.7l-2.1-1.7c0,0-5.2,1.2-14.7,4.3s-15.2,6.3-26.8,9.7C87,109.3,70,93.5,70,93.5
		s-7.1-7.1-13.6-9.3v5c4,1.8,8,6,8,6L76,106c0,0,6.3,6,12,7.8c5.7,1.8,12.2-1,24-4.8c11.8-3.8,7.5-3.8,14.3-6.8c6.8-3,9.7-4,9.7-4
		l10-3.8H144.3z"/>
</g>
<path id="XMLID_23_" d="M198,60.1c0-1-1.7-2-4.2-2.6h0.3c0,0,0.8,0.2,1.7-0.8c0.8-0.9,0.9-2.6,0.9-2.6h-0.1c0-0.9-1.1-1.6-2.8-2.2
	c0.3,0,0.8-0.2,1.3-0.8c0.8-1,0.9-2.7,0.9-2.7h-0.1c0-1.1-1.5-2.1-3.8-2.7h0.6c0,0,0.7,0.1,1.4-0.7c0.7-0.8,0.8-2.3,0.8-2.3h-0.1
	c0-0.9-1.1-1.6-2.8-2.2c0.2-0.1,0.5-0.2,0.8-0.6c0.6-0.7,0.7-2.1,0.7-2.1h-0.1c0-0.9-1.3-1.7-3.1-2.1h0.2c0,0,0.5,0.1,0.9-0.5
	c0.5-0.7,0.5-1.8,0.5-1.8h-0.1c0-0.7-0.7-1.3-1.8-1.7c0.1,0,0.4-0.2,0.6-0.5c0.4-0.7,0.4-1.8,0.4-1.8h-0.1c0-0.7-0.6-1.2-1.4-1.7
	l0.6-1.4l-0.4-3.8l-1.2-0.8l-1-2.1l-2-0.7l-1.2,0.6l-0.7,2.3l-1.4,1.2v4l0.6,0.8c-0.9,0.4-1.4,1-1.5,1.7h0c0,0,0,0,0,0c0,0,0,0,0,0
	c0,0,0,0,0,0c0,0.2,0.1,1.2,0.4,1.8c0.2,0.4,0.4,0.5,0.6,0.5c-1.1,0.4-1.8,1-1.9,1.7h0c0,0,0,0,0,0c0,0,0,0,0,0c0,0,0,0,0,0
	c0,0.2,0.1,1.2,0.5,1.8c0.5,0.7,0.9,0.5,0.9,0.5h0.1c-1.9,0.5-3.1,1.3-3.1,2.1h0c0,0,0,0,0,0c0,0,0,0,0,0c0,0,0,0,0,0
	c0,0.3,0.1,1.3,0.6,2c0.3,0.4,0.6,0.5,0.8,0.6c-1.7,0.5-2.8,1.3-2.8,2.2h0c0,0,0,0,0,0c0,0,0,0,0,0c0,0,0,0,0,0
	c0,0.3,0.2,1.5,0.8,2.3c0.7,0.8,1.4,0.7,1.4,0.7h0.5c-2.3,0.6-3.8,1.6-3.8,2.7h0c0,0,0,0,0,0c0,0,0,0,0,0c0,0,0,0,0,0
	c0,0.3,0.2,1.7,0.9,2.6c0.5,0.6,0.9,0.7,1.2,0.8c-1.7,0.6-2.8,1.4-2.8,2.2h0c0,0,0,0,0,0c0,0,0,0,0,0c0,0,0,0,0,0
	c0,0.3,0.2,1.7,0.9,2.5c0.8,0.9,1.7,0.8,1.7,0.8h0.1c-2.6,0.6-4.2,1.6-4.2,2.6h0c0,0,0,0,0,0c0,0,0,0,0,0c0,0,0,0,0,0
	c0,0.3,0.2,1.7,1.1,2.6c1,1,1.9,0.8,1.9,0.8h2.9h4v10.4h4.2l-0.1-10.4l0.1,0h4.1h2.9c0,0,1,0.2,1.9-0.8c1-1,1.1-2.7,1.1-2.7H198z"/>
<polygon id="XMLID_8_" points="177.2,37.8 176.1,36.7 167.3,27.4 167.3,27.4 161.9,22.2 161.1,23.2 161.1,23.2 147.3,40.3 
	146.1,41.8 142.6,46 140.7,42.9 137,39 124.3,24.7 121.2,21.6 119.8,20.2 101.3,44.7 100.6,45.7 99,47.8 85.5,32.5 63,59.5 
	63.7,61.5 63,62.8 62.4,63.4 63.9,64.3 64.8,65.7 65,67 64.4,68.5 63.6,69.7 64.8,70.8 65.2,72.4 65.2,73.1 77.8,73.1 78.7,72.1 
	78.3,70.8 78,69.7 77.9,68.4 78.8,67.2 79.8,66.7 79.3,65.2 79.3,64 79.1,62.8 76.9,59.9 75.1,56.8 75.8,53.3 76.9,53.1 78.1,50.8 
	78.1,49 79.9,46.6 81.2,46.6 81.8,44.8 82.9,43.5 84.2,43.9 85.9,44.5 86.2,42.5 84.9,40.1 85.2,38.2 87.9,39.8 91.7,42.9 
	94.6,49.2 95.5,52.3 94.6,53.6 94.9,54 95.1,54.9 95.4,55.9 95.3,56.8 94.7,58 95.2,58.3 95.7,58.5 96.2,59.1 96.4,60 96.3,60.8 
	96,61.7 96.7,62.2 97.5,63 98,63.7 98,63.7 98,64.5 98,64.6 98,64.6 98,65.4 97.7,66.3 98.3,66.6 99.1,67.2 99.8,68 100,69.1 
	100.1,69.9 100.1,69.9 100.1,70 99.9,71 99,72.2 99.9,73 99.9,73.1 112.9,73.1 113.6,63.4 115,63 117.4,60.4 113.6,54.1 112.6,50.3 
	113.6,49.1 112.6,46.1 112.6,41.9 117.2,41.2 117.3,39.5 119,38.3 122,40.3 122,38.1 120,34.9 120.7,31.4 122.5,29.6 147.4,60.6 
	148.5,55.4 148.9,53.5 148.9,50.6 150.2,49.8 151.4,46.4 154.2,45.5 156.2,46.1 156,45.4 156.8,44.4 156,42.1 156,38.9 159.7,38.3 
	159.8,37 161.3,36.1 163.7,37.6 163.7,36 162.1,33.5 162.7,30.9 163.4,30.1 164.2,29.6 175.4,42.5 175.8,40.6 176.6,39.9 
	177.3,39.3 "/>
</svg>
