<svg version="1.1" id="wilderness" xmlns="http://www.w3.org/2000/svg" x="0px" y="0px" viewBox="0 0 128 128">
<path id="XMLID_6_" d="M115.2,92.8c0-1-1.7-2-4.2-2.6h0.3c0,0,0.8,0.2,1.7-0.8c0.8-0.9,0.9-2.6,0.9-2.6h-0.1c0-0.9-1.1-1.6-2.8-2.2
	c0.3,0,0.8-0.2,1.3-0.8c0.8-1,0.9-2.7,0.9-2.7H113c0-1.1-1.5-2.1-3.8-2.7h0.6c0,0,0.7,0.1,1.4-0.7c0.7-0.8,0.8-2.3,0.8-2.3h-0.1
	c0-0.9-1.1-1.6-2.8-2.2c0.2-0.1,0.5-0.2,0.8-0.6c0.6-0.7,0.7-2.1,0.7-2.1h-0.1c0-0.9-1.3-1.7-3.1-2.1h0.2c0,0,0.5,0.1,0.9-0.5
	c0.5-0.7,0.5-1.8,0.5-1.8h-0.1c0-0.7-0.7-1.3-1.8-1.7c0.1,0,0.4-0.2,0.6-0.5c0.4-0.7,0.4-1.8,0.4-1.8H108c0-0.7-0.6-1.2-1.4-1.7
	l0.6-1.4l-0.4-3.8l-1.2-0.8l-1-2.1l-2-0.7l-1.2,0.6l-0.7,2.3l-1.4,1.2v4l0.6,0.8c-0.9,0.4-1.4,1-1.5,1.7h0c0,0,0,0,0,0c0,0,0,0,0,0
	c0,0,0,0,0,0c0,0.2,0.1,1.2,0.4,1.8c0.2,0.4,0.4,0.5,0.6,0.5c-1.1,0.4-1.8,1-1.9,1.7h0c0,0,0,0,0,0c0,0,0,0,0,0c0,0,0,0,0,0
	c0,0.2,0.1,1.2,0.5,1.8c0.5,0.7,0.9,0.5,0.9,0.5H99c-1.9,0.5-3.1,1.3-3.1,2.1h0c0,0,0,0,0,0c0,0,0,0,0,0c0,0,0,0,0,0
	c0,0.3,0.1,1.3,0.6,2c0.3,0.4,0.6,0.5,0.8,0.6c-1.7,0.5-2.8,1.3-2.8,2.2h0c0,0,0,0,0,0c0,0,0,0,0,0c0,0,0,0,0,0
	c0,0.3,0.2,1.5,0.8,2.3c0.7,0.8,1.4,0.7,1.4,0.7h0.5c-2.3,0.6-3.8,1.6-3.8,2.7h0c0,0,0,0,0,0c0,0,0,0,0,0c0,0,0,0,0,0
	c0,0.3,0.2,1.7,0.9,2.6c0.5,0.6,0.9,0.7,1.2,0.8c-1.7,0.6-2.8,1.4-2.8,2.2h0c0,0,0,0,0,0c0,0,0,0,0,0c0,0,0,0,0,0
	c0,0.3,0.2,1.7,0.9,2.5c0.8,0.9,1.7,0.8,1.7,0.8h0.1c-2.6,0.6-4.2,1.6-4.2,2.6h0c0,0,0,0,0,0c0,0,0,0,0,0c0,0,0,0,0,0
	c0,0.3,0.2,1.7,1.1,2.6c1,1,1.9,0.8,1.9,0.8h2.9h4v10.4h4.2l-0.1-10.4l0.1,0h4.1h2.9c0,0,1,0.2,1.9-0.8c1-1,1.1-2.7,1.1-2.7H115.2z"
	/>
<path id="XMLID_7_" d="M92.5,97.9l-2.5-2.1l-0.6-1.7v-1.5v-1.3l0.9-0.9l1.2-0.5l-1.2-1.6v-1.8l0.7-1.1l1.4-1.3l-0.4-1.2l-0.4-1.6
	l0.1-1.5l1.1-1.2l1.1-0.6l-0.9-1.5l-0.1-1.5l0.6-1.1l0.5-0.7l1-0.7l-0.7-1.2v-1.1l0.7-0.8l0.4-0.6l0.5-0.8l0.4-0.8v-0.9v-1.1
	l0.4-1.1c-0.5-0.3-1.3-0.6-2.1-0.9h0.2c0,0,0.5,0.1,0.9-0.5c0.5-0.7,0.5-1.8,0.5-1.8h-0.1c0-0.7-0.7-1.3-1.8-1.7
	c0.1,0,0.4-0.2,0.6-0.5c0.4-0.7,0.4-1.8,0.4-1.8h-0.1c0-0.7-0.6-1.2-1.4-1.7l0.6-1.4L94,50.2l-1.2-0.8l-1-2.1l-2-0.7l-1.2,0.6
	l-0.7,2.3l-1.4,1.2v4l0.6,0.8c-0.9,0.4-1.4,1-1.5,1.7h0c0,0,0,0,0,0c0,0,0,0,0,0c0,0,0,0,0,0c0,0.2,0.1,1.2,0.4,1.8
	c0.2,0.4,0.4,0.5,0.6,0.5c-1.1,0.4-1.8,1-1.9,1.7h0c0,0,0,0,0,0c0,0,0,0,0,0c0,0,0,0,0,0c0,0.2,0.1,1.2,0.5,1.8
	c0.5,0.7,0.9,0.5,0.9,0.5h0.1c-1.9,0.5-3.1,1.3-3.1,2.1h0c0,0,0,0,0,0c0,0,0,0,0,0c0,0,0,0,0,0c0,0.3,0.1,1.3,0.6,2
	c0.3,0.4,0.6,0.5,0.8,0.6c-1.7,0.5-2.8,1.3-2.8,2.2h0c0,0,0,0,0,0c0,0,0,0,0,0c0,0,0,0,0,0c0,0.3,0.2,1.5,0.8,2.3
	c0.7,0.8,1.4,0.7,1.4,0.7h0.5c-2.3,0.6-3.8,1.6-3.8,2.7h0c0,0,0,0,0,0c0,0,0,0,0,0c0,0,0,0,0,0c0,0.3,0.2,1.7,0.9,2.6
	c0.5,0.6,0.9,0.7,1.2,0.8c-1.7,0.6-2.8,1.4-2.8,2.2h0c0,0,0,0,0,0c0,0,0,0,0,0c0,0,0,0,0,0c0,0.3,0.2,1.7,0.9,2.5
	c0.8,0.9,1.7,0.8,1.7,0.8h0.1c-2.6,0.6-4.2,1.6-4.2,2.6h0c0,0,0,0,0,0c0,0,0,0,0,0c0,0,0,0,0,0c0,0.3,0.2,1.7,1.1,2.6
	c1,1,1.9,0.8,1.9,0.8h2.9h4v10.4h4.2L92.5,97.9L92.5,97.9z"/>
<polygon id="XMLID_9_" points="52.6,71.8 68.3,71.8 67.2,70.2 66,69.2 65,70.5 63.4,70.5 62.8,68.2 60.5,65.1 59.7,66.3 58.1,67.3 
	55.5,67.3 54.3,68.5 53.5,70 "/>
<polygon id="XMLID_2_" points="74.4,71.8 70.6,68.5 69.9,63.9 67.7,59.5 66.7,53.9 72.1,57.8 75.3,61.7 79.2,65.1 79.2,70.5 
	77.9,71.8 "/>
<path id="XMLID_10_" d="M37,85.6c0-1-1.7-2-4.2-2.6H33c0,0,0.8,0.2,1.7-0.8c0.8-0.9,0.9-2.6,0.9-2.6h-0.1c0-0.9-1.1-1.6-2.8-2.2
	c0.3,0,0.8-0.2,1.3-0.8c0.8-1,0.9-2.7,0.9-2.7h-0.1c0-1.1-1.5-2.1-3.8-2.7h0.6c0,0,0.7,0.1,1.4-0.7c0.7-0.8,0.8-2.3,0.8-2.3h-0.1
	c0-0.9-1.1-1.6-2.8-2.2c0.2-0.1,0.5-0.2,0.8-0.6c0.6-0.7,0.7-2.1,0.7-2.1h-0.1c0-0.9-1.3-1.7-3.1-2.1h0.2c0,0,0.5,0.1,0.9-0.5
	c0.5-0.7,0.5-1.8,0.5-1.8h-0.1c0-0.7-0.7-1.3-1.8-1.7c0.1,0,0.4-0.2,0.6-0.5c0.4-0.7,0.4-1.8,0.4-1.8h-0.1c0-0.7-0.6-1.2-1.4-1.7
	l0.6-1.4l-0.4-3.8l-1.2-0.8l-1-2.1l-2-0.7l-1.2,0.6l-0.7,2.3l-1.4,1.2v4l0.6,0.8c-0.9,0.4-1.4,1-1.5,1.7h0c0,0,0,0,0,0c0,0,0,0,0,0
	c0,0,0,0,0,0c0,0.2,0.1,1.2,0.4,1.8c0.2,0.4,0.4,0.5,0.6,0.5c-1.1,0.4-1.8,1-1.9,1.7h0c0,0,0,0,0,0c0,0,0,0,0,0c0,0,0,0,0,0
	c0,0.2,0.1,1.2,0.5,1.8c0.5,0.7,0.9,0.5,0.9,0.5h0.1c-1.9,0.5-3.1,1.3-3.1,2.1h0c0,0,0,0,0,0c0,0,0,0,0,0c0,0,0,0,0,0
	c0,0.3,0.1,1.3,0.6,2c0.3,0.4,0.6,0.5,0.8,0.6c-1.7,0.5-2.8,1.3-2.8,2.2h0c0,0,0,0,0,0c0,0,0,0,0,0c0,0,0,0,0,0
	c0,0.3,0.2,1.5,0.8,2.3c0.7,0.8,1.4,0.7,1.4,0.7H19c-2.3,0.6-3.8,1.6-3.8,2.7h0c0,0,0,0,0,0c0,0,0,0,0,0c0,0,0,0,0,0
	c0,0.3,0.2,1.7,0.9,2.6c0.5,0.6,0.9,0.7,1.2,0.8c-1.7,0.6-2.8,1.4-2.8,2.2h0c0,0,0,0,0,0c0,0,0,0,0,0c0,0,0,0,0,0
	c0,0.3,0.2,1.7,0.9,2.5c0.8,0.9,1.7,0.8,1.7,0.8h0.1c-2.6,0.6-4.2,1.6-4.2,2.6h0c0,0,0,0,0,0c0,0,0,0,0,0c0,0,0,0,0,0
	c0,0.3,0.2,1.7,1.1,2.6c1,1,1.9,0.8,1.9,0.8h2.9h4v10.4h4.2L27,89l0.1,0h4.1h2.9c0,0,1,0.2,1.9-0.8c1-1,1.1-2.7,1.1-2.7H37z"/>
<polygon id="XMLID_5_" points="79.6,46 76.8,41.7 73.2,37.8 60.5,23.5 57.4,20.4 56,19 37.5,43.5 36.7,44.5 30.7,52.3 31,52.8 
	31.3,53.7 31.5,54.7 31.5,55.6 30.9,56.8 31.3,57 31.9,57.3 32.4,57.9 32.6,58.8 32.5,59.6 32.1,60.5 32.8,61 33.6,61.8 34.1,62.5 
	34.1,62.5 34.1,63.3 34.1,63.4 34.1,63.4 34.1,64.2 33.8,65 34.4,65.4 35.3,66 35.9,66.8 36.2,67.8 36.2,68.7 36.2,68.7 36.2,68.8 
	36,69.8 35.1,71 36,71.8 36.1,71.8 49.1,71.8 49.7,62.2 51.1,61.7 53.5,59.2 49.7,52.9 48.7,49.1 49.7,47.9 48.7,44.9 48.7,40.6 
	53.3,40 53.4,38.2 55.2,37.1 58.1,39 58.1,36.9 56.2,33.7 56.9,30.2 58.6,28.4 83.5,59.4 84.7,54.2 "/>
<polygon id="XMLID_12_" points="78.4,74.5 78,72.9 36.9,72.9 37.1,73.2 37.3,74.1 37.4,75 36.9,76.1 36.2,77.2 36.8,77.5 37.4,78.1 
	37.8,79.1 37.8,80 37.7,80.8 37.6,81.1 42.6,81.3 37.3,81.6 36.8,82.8 37.8,83.4 38.7,84.1 39,85.4 39,86.5 38.3,88.1 53.2,88.7 
	37.8,89.3 36.9,90.2 35.9,90.9 39.9,92.8 45.9,92.4 48.2,94 53.7,92.6 47.8,92.1 60.8,91.6 63.4,90.2 65.4,89.7 67.7,88.8 
	69.4,86.7 71.1,85.9 45.3,84.7 76.2,83.4 77.4,81.3 61.5,80.8 78.1,79.4 78.3,77.9 38.3,76.7 78.4,75.3 "/>
</svg>
