<svg version="1.1" id="wilderness-trees" x="0px" y="0px" viewBox="0 0 128 128" xmlns="http://www.w3.org/2000/svg">
<path id="XMLID_4_" d="M15.5,105.5c10.3-6.2,17.5-8,17.5-8s5,0.5,9.2-1s1.2-1.7,8.4-2.8c7.2-1.2,4.9-3,13.9-1.7
	c9,1.3,18.5,6.2,23.7,5.8c5.2-0.3,10.2,0.2,13.8,3.3c3.7,3.2,10.5,4.3,10.5,4.3H15.5z"/>
<path id="XMLID_7_" d="M82,70c-3.8-4.3-7.7-9.5-7.7-9.5h6.2c0,0,3.3-2,0.5-4.7c-2.8-2.7-9.2-10.3-9.2-10.3H78c0,0,3.5-1.5,1.8-3.2
	c-1.7-1.7-18.1-19.8-18.1-19.8S45.3,40.7,43.6,42.3c-1.7,1.7,1.8,3.2,1.8,3.2h6.2c0,0-6.3,7.7-9.2,10.3c-2.8,2.7,0.5,4.7,0.5,4.7
	h6.2c0,0-3.8,5.2-7.7,9.5c-3.8,4.3-0.8,5.5-0.8,5.5h16.5v14.1c1.4-0.3,3.1-0.4,7.3,0.2c0.4,0,0.8,0.1,1.2,0.2V75.5h17.2
	C82.8,75.5,85.8,74.3,82,70z"/>
<path id="XMLID_8_" d="M47.7,78.4h-7.1l-2.1-1.1l-1.1-1.8L37.2,73l0.8-2l1-1.4l4.6-5.5c-0.4-0.5-0.8-1-1.2-1.4h-0.7L40,61.2
	l-1.1-1.2l-0.3-1.8l0.3-1.8l1-1.7l1.6-2c-4-4.3-9-9.9-9-9.9v0c0,0-12.3,13.6-13.6,14.9c-1.2,1.2,1.4,2.4,1.4,2.4h4.6
	c0,0-4.7,5.7-6.9,7.7c-2.1,2,0.4,3.5,0.4,3.5H23c0,0-2.9,3.9-5.7,7.1s-0.6,4.1-0.6,4.1h12.2v13.5c2.6-0.7,4.2-1,4.2-1s1.3,0.1,3.2,0
	V82.5h12.2C48.3,82.5,50.6,81.6,47.7,78.4z"/>
<path id="XMLID_3_" d="M106.1,78.5c-2.9-3.2-5.7-7.1-5.7-7.1h4.6c0,0,2.5-1.5,0.4-3.5c-2.1-2-6.9-7.7-6.9-7.7h4.6
	c0,0,2.6-1.1,1.4-2.4c-1.2-1.2-13.6-14.9-13.6-14.9v0c0,0-5.1,5.6-9,9.9l1.6,2l1,1.7l0.3,1.8l-0.3,1.8l-1.1,1.2l-1.6,1.4h-0.7
	c-0.4,0.4-0.8,0.9-1.2,1.4l4.6,5.5l1,1.4l0.8,2l-0.3,2.5l-1.1,1.8l-2.1,1.1h-7.1c-2.8,3.2-0.6,4.1-0.6,4.1h12v13.3
	c0.3,0,0.5,0,0.8,0c2.4-0.1,4.7-0.1,6.9,0.2V82.6h12C106.7,82.6,109,81.7,106.1,78.5z"/>
</svg>
