<svg version="1.1" id="wilderness-mountain-trees" xmlns="http://www.w3.org/2000/svg" viewBox="0 0 256 128">
<polygon id="XMLID_9_" points="62.5,76.2 78.2,76.2 77.1,74.6 75.9,73.6 74.9,74.9 73.3,74.9 72.7,72.5 70.4,69.4 69.6,70.7 
	68,71.6 65.4,71.6 64.2,72.8 63.4,74.4 "/>
<polygon id="XMLID_2_" points="84.3,76.2 80.5,72.8 79.8,68.3 77.5,63.8 76.6,58.3 82,62.2 85.2,66.1 89.1,69.4 89.1,74.8 
	87.7,76.2 "/>
<path id="XMLID_10_" d="M113.1,87.8c0-1-1.7-2-4.2-2.6h0.3c0,0,0.8,0.2,1.7-0.8c0.8-0.9,0.9-2.6,0.9-2.6h-0.1c0-0.9-1.1-1.6-2.8-2.2
	c0.3,0,0.8-0.2,1.3-0.8c0.8-1,0.9-2.7,0.9-2.7h-0.1c0-1.1-1.5-2.1-3.8-2.7h0.6c0,0,0.7,0.1,1.4-0.7c0.7-0.8,0.8-2.3,0.8-2.3h-0.1
	c0-0.9-1.1-1.6-2.8-2.2c0.2-0.1,0.5-0.2,0.8-0.6c0.6-0.7,0.7-2.1,0.7-2.1h-0.1c0-0.9-1.3-1.7-3.1-2.1h0.2c0,0,0.5,0.1,0.9-0.5
	c0.5-0.7,0.5-1.8,0.5-1.8h-0.1c0-0.7-0.7-1.3-1.8-1.7c0.1,0,0.4-0.2,0.6-0.5c0.4-0.7,0.4-1.8,0.4-1.8h-0.1c0-0.7-0.6-1.2-1.4-1.7
	l0.6-1.4l-0.4-3.8l-1.2-0.8l-1-2.1l-2-0.7l-1.2,0.6l-0.7,2.3l-1.4,1.2v4l0.6,0.8c-0.9,0.4-1.4,1-1.5,1.7h0c0,0,0,0,0,0c0,0,0,0,0,0
	c0,0,0,0,0,0c0,0.2,0.1,1.2,0.4,1.8c0.2,0.4,0.4,0.5,0.6,0.5c-1.1,0.4-1.8,1-1.9,1.7h0c0,0,0,0,0,0c0,0,0,0,0,0c0,0,0,0,0,0
	c0,0.2,0.1,1.2,0.5,1.8c0.5,0.7,0.9,0.5,0.9,0.5H97c-1.9,0.5-3.1,1.3-3.1,2.1h0c0,0,0,0,0,0c0,0,0,0,0,0c0,0,0,0,0,0
	c0,0.3,0.1,1.3,0.6,2c0.3,0.4,0.6,0.5,0.8,0.6c-1.7,0.5-2.8,1.3-2.8,2.2h0c0,0,0,0,0,0c0,0,0,0,0,0c0,0,0,0,0,0
	c0,0.3,0.2,1.5,0.8,2.3c0.7,0.8,1.4,0.7,1.4,0.7h0.5c-2.3,0.6-3.8,1.6-3.8,2.7h0c0,0,0,0,0,0c0,0,0,0,0,0c0,0,0,0,0,0
	c0,0.3,0.2,1.7,0.9,2.6c0.5,0.6,0.9,0.7,1.2,0.8c-1.7,0.6-2.8,1.4-2.8,2.2h0c0,0,0,0,0,0c0,0,0,0,0,0c0,0,0,0,0,0
	c0,0.3,0.2,1.7,0.9,2.5c0.8,0.9,1.7,0.8,1.7,0.8h0.1c-2.6,0.6-4.2,1.6-4.2,2.6h0c0,0,0,0,0,0c0,0,0,0,0,0c0,0,0,0,0,0
	c0,0.3,0.2,1.7,1.1,2.6c1,1,1.9,0.8,1.9,0.8H95h4v10.4h4.2l-0.1-10.4l0.1,0h4.1h2.9c0,0,1,0.2,1.9-0.8c1-1,1.1-2.7,1.1-2.7H113.1z"
	/>
<path id="XMLID_24_" d="M183.5,68.2c0-1-1.7-2-4.2-2.6h0.3c0,0,0.8,0.2,1.7-0.8c0.8-0.9,0.9-2.6,0.9-2.6H182c0-0.9-1.1-1.6-2.8-2.2
	c0.3,0,0.8-0.2,1.3-0.8c0.8-1,0.9-2.7,0.9-2.7h-0.1c0-1.1-1.5-2.1-3.8-2.7h0.6c0,0,0.7,0.1,1.4-0.7c0.7-0.8,0.8-2.3,0.8-2.3h-0.1
	c0-0.9-1.1-1.6-2.8-2.2c0.2-0.1,0.5-0.2,0.8-0.6c0.6-0.7,0.7-2.1,0.7-2.1h-0.1c0-0.9-1.3-1.7-3.1-2.1h0.2c0,0,0.5,0.1,0.9-0.5
	c0.5-0.7,0.5-1.8,0.5-1.8h-0.1c0-0.7-0.7-1.3-1.8-1.7c0.1,0,0.4-0.2,0.6-0.5c0.4-0.7,0.4-1.8,0.4-1.8h-0.1c0-0.7-0.6-1.2-1.4-1.7
	l0.6-1.4l-0.4-3.8l-1.2-0.8l-1-2.1l-2-0.7l-1.2,0.6l-0.7,2.3l-1.4,1.2v4l0.6,0.8c-0.9,0.4-1.4,1-1.5,1.7h0c0,0,0,0,0,0c0,0,0,0,0,0
	c0,0,0,0,0,0c0,0.2,0.1,1.2,0.4,1.8c0.2,0.4,0.4,0.5,0.6,0.5c-1.1,0.4-1.8,1-1.9,1.7h0c0,0,0,0,0,0c0,0,0,0,0,0c0,0,0,0,0,0
	c0,0.2,0.1,1.2,0.5,1.8c0.5,0.7,0.9,0.5,0.9,0.5h0.1c-1.9,0.5-3.1,1.3-3.1,2.1h0c0,0,0,0,0,0c0,0,0,0,0,0c0,0,0,0,0,0
	c0,0.3,0.1,1.3,0.6,2c0.3,0.4,0.6,0.5,0.8,0.6c-1.7,0.5-2.8,1.3-2.8,2.2h0c0,0,0,0,0,0c0,0,0,0,0,0c0,0,0,0,0,0
	c0,0.3,0.2,1.5,0.8,2.3c0.7,0.8,1.4,0.7,1.4,0.7h0.5c-2.3,0.6-3.8,1.6-3.8,2.7h0c0,0,0,0,0,0c0,0,0,0,0,0c0,0,0,0,0,0
	c0,0.3,0.2,1.7,0.9,2.6c0.5,0.6,0.9,0.7,1.2,0.8c-1.7,0.6-2.8,1.4-2.8,2.2h0c0,0,0,0,0,0c0,0,0,0,0,0c0,0,0,0,0,0
	c0,0.3,0.2,1.7,0.9,2.5c0.8,0.9,1.7,0.8,1.7,0.8h0.1c-2.6,0.6-4.2,1.6-4.2,2.6h0c0,0,0,0,0,0c0,0,0,0,0,0c0,0,0,0,0,0
	c0,0.3,0.2,1.7,1.1,2.6c1,1,1.9,0.8,1.9,0.8h2.9h4V82h4.2l-0.1-10.4l0.1,0h4.1h2.9c0,0,1,0.2,1.9-0.8s1.1-2.7,1.1-2.7H183.5z"/>
<polygon id="XMLID_13_" points="89.4,50.4 86.7,46.1 83,42.2 70.4,27.9 67.2,24.7 65.8,23.3 49.3,45.3 49.3,45.3 47.1,48.2 
	46.6,48.9 40.6,56.7 40.6,56.8 26,76.2 46,76.2 53.5,76.2 59,76.2 59.6,66.6 61,66.1 63.4,63.6 59.6,57.3 58.6,53.5 59.6,52.2 
	58.6,49.3 58.6,45 63.2,44.3 63.3,42.6 65,41.5 68,43.4 68,41.2 66.1,38 66.8,34.6 68.5,32.7 93.4,63.7 94.6,58.6 "/>
<path id="XMLID_11_" d="M222.8,93.4c0-1-1.7-2-4.2-2.6h0.3c0,0,0.8,0.2,1.7-0.8c0.8-0.9,0.9-2.6,0.9-2.6h-0.1c0-0.9-1.1-1.6-2.8-2.2
	c0.3,0,0.8-0.2,1.3-0.8c0.8-1,0.9-2.7,0.9-2.7h-0.1c0-1.1-1.5-2.1-3.8-2.7h0.6c0,0,0.7,0.1,1.4-0.7c0.7-0.8,0.8-2.3,0.8-2.3h-0.1
	c0-0.9-1.1-1.6-2.8-2.2c0.2-0.1,0.5-0.2,0.8-0.6c0.6-0.7,0.7-2.1,0.7-2.1h-0.1c0-0.9-1.3-1.7-3.1-2.1h0.2c0,0,0.5,0.1,0.9-0.5
	c0.5-0.7,0.5-1.8,0.5-1.8h-0.1c0-0.7-0.7-1.3-1.8-1.7c0.1,0,0.4-0.2,0.6-0.5c0.4-0.7,0.4-1.8,0.4-1.8h-0.1c0-0.7-0.6-1.2-1.4-1.7
	l0.6-1.4l-0.4-3.8l-1.2-0.8l-1-2.1l-2-0.7l-1.2,0.6l-0.7,2.3l-1.4,1.2v4l0.6,0.8c-0.9,0.4-1.4,1-1.5,1.7h0c0,0,0,0,0,0c0,0,0,0,0,0
	c0,0,0,0,0,0c0,0.2,0.1,1.2,0.4,1.8c0.2,0.4,0.4,0.5,0.6,0.5c-1.1,0.4-1.8,1-1.9,1.7h0c0,0,0,0,0,0c0,0,0,0,0,0c0,0,0,0,0,0
	c0,0.2,0.1,1.2,0.5,1.8c0.5,0.7,0.9,0.5,0.9,0.5h0.1c-1.9,0.5-3.1,1.3-3.1,2.1h0c0,0,0,0,0,0c0,0,0,0,0,0c0,0,0,0,0,0
	c0,0.3,0.1,1.3,0.6,2c0.3,0.4,0.6,0.5,0.8,0.6c-1.7,0.5-2.8,1.3-2.8,2.2h0c0,0,0,0,0,0c0,0,0,0,0,0c0,0,0,0,0,0
	c0,0.3,0.2,1.5,0.8,2.3c0.7,0.8,1.4,0.7,1.4,0.7h0.5c-2.3,0.6-3.8,1.6-3.8,2.7h0c0,0,0,0,0,0c0,0,0,0,0,0c0,0,0,0,0,0
	c0,0.3,0.2,1.7,0.9,2.6c0.5,0.6,0.9,0.7,1.2,0.8c-1.7,0.6-2.8,1.4-2.8,2.2h0c0,0,0,0,0,0c0,0,0,0,0,0c0,0,0,0,0,0
	c0,0.3,0.2,1.7,0.9,2.5c0.8,0.9,1.7,0.8,1.7,0.8h0.1c-2.6,0.6-4.2,1.6-4.2,2.6h0c0,0,0,0,0,0c0,0,0,0,0,0c0,0,0,0,0,0
	c0,0.3,0.2,1.7,1.1,2.6c1,1,1.9,0.8,1.9,0.8h2.9h4v10.4h4.2l-0.1-10.4l0.1,0h4.1h2.9c0,0,1,0.2,1.9-0.8c1-1,1.1-2.7,1.1-2.7H222.8z"
	/>
<path id="XMLID_7_" d="M200.1,98.5l-2.5-2.1l-0.6-1.7v-1.5V92l0.9-0.9l1.2-0.5l-1.2-1.6v-1.8l0.7-1.1l1.4-1.3l-0.4-1.2l-0.4-1.6
	l0.1-1.5l1.1-1.2l1.1-0.6l-0.9-1.5l-0.1-1.5l0.6-1.1l0.5-0.7l1-0.7l-0.7-1.2V71l0.7-0.8l0.4-0.6l0.5-0.8l0.4-0.8v-0.9v-1.1l0.4-1.1
	c-0.5-0.3-1.3-0.6-2.1-0.9h0.2c0,0,0.5,0.1,0.9-0.5c0.5-0.7,0.5-1.8,0.5-1.8h-0.1c0-0.7-0.7-1.3-1.8-1.7c0.1,0,0.4-0.2,0.6-0.5
	c0.4-0.7,0.4-1.8,0.4-1.8h-0.1c0-0.7-0.6-1.2-1.4-1.7l0.6-1.4l-0.4-3.8l-1.2-0.8l-1-2.1l-2-0.7l-1.2,0.6l-0.7,2.3l-1.4,1.2v4
	l0.6,0.8c-0.9,0.4-1.4,1-1.5,1.7h0c0,0,0,0,0,0c0,0,0,0,0,0c0,0,0,0,0,0c0,0.2,0.1,1.2,0.4,1.8c0.2,0.4,0.4,0.5,0.6,0.5
	c-1.1,0.4-1.8,1-1.9,1.7h0c0,0,0,0,0,0c0,0,0,0,0,0c0,0,0,0,0,0c0,0.2,0.1,1.2,0.5,1.8c0.5,0.7,0.9,0.5,0.9,0.5h0.1
	c-1.9,0.5-3.1,1.3-3.1,2.1h0c0,0,0,0,0,0c0,0,0,0,0,0c0,0,0,0,0,0c0,0.3,0.1,1.3,0.6,2c0.3,0.4,0.6,0.5,0.8,0.6
	c-1.7,0.5-2.8,1.3-2.8,2.2h0c0,0,0,0,0,0c0,0,0,0,0,0c0,0,0,0,0,0c0,0.3,0.2,1.5,0.8,2.3c0.7,0.8,1.4,0.7,1.4,0.7h0.5
	c-2.3,0.6-3.8,1.6-3.8,2.7h0c0,0,0,0,0,0c0,0,0,0,0,0c0,0,0,0,0,0c0,0.3,0.2,1.7,0.9,2.6c0.5,0.6,0.9,0.7,1.2,0.8
	c-1.7,0.6-2.8,1.4-2.8,2.2h0c0,0,0,0,0,0c0,0,0,0,0,0c0,0,0,0,0,0c0,0.3,0.2,1.7,0.9,2.5c0.8,0.9,1.7,0.8,1.7,0.8h0.1
	c-2.6,0.6-4.2,1.6-4.2,2.6h0c0,0,0,0,0,0c0,0,0,0,0,0c0,0,0,0,0,0c0,0.3,0.2,1.7,1.1,2.6c1,1,1.9,0.8,1.9,0.8h2.9h4v10.4h4.2
	L200.1,98.5L200.1,98.5z"/>
<path id="XMLID_12_" d="M26,82.1c9.8-0.8,18,1.6,18,1.6l9.5,2.3c0,0,10.7,2.9,14.4,5.5c3.7,2.6,12.8,9.3,18.3,10.7s15,2.7,15,2.7
	s4-0.3,14.2-2.7c10.2-2.4,7-2.9,18-5.8s28.7-7.7,36.5-7.9c7.8-0.1,17,4.8,17,4.8s2.3,1,3.7,1.4c1.3,0.3,3-1.5,3-1.5l-0.3,6.2
	c0,0-3.7,1.3-5.2,0.7c-1.5-0.7-3.8-3.2-8.2-5c-4.3-1.8-3.5-2.2-10.5-1.7c-7,0.5-11.5,1.7-18.5,4s-17.3,6.2-21.7,7.5
	c-4.3,1.3-19.3,7.8-28,7.8s-16.2-1.2-22.3-5.6c-6.2-4.4-12.7-11.9-17.3-14.1c-4.7-2.2-10.7-6.1-18.8-6.4c-8.2-0.3-13.3,0.9-14.3,0
	C27.3,85.8,26,85,26,85V82.1z"/>
<path id="XMLID_16_" d="M238.9,83.7L238.9,83.7c0.6-0.1,0.9-0.1,0.9-0.1s0.4,0,1.2,0l0,0l-1-2.9l-1.8-1.4l0,0
	c-6.9,0.9-14.9,2.4-14.9,2.4V83l-0.4,1l-1,1.3l1,0.6l0.8,0.6l0.3,0.8C229.4,85.4,236.5,84.1,238.9,83.7L238.9,83.7z"/>
<path id="XMLID_6_" d="M148.3,77.7c0-1-1.7-2-4.2-2.6h0.3c0,0,0.8,0.2,1.7-0.8c0.8-0.9,0.9-2.6,0.9-2.6h-0.1c0-0.9-1.1-1.6-2.8-2.2
	c0.3,0,0.8-0.2,1.3-0.8c0.8-1,0.9-2.7,0.9-2.7h-0.1c0-1.1-1.5-2.1-3.8-2.7h0.6c0,0,0.7,0.1,1.4-0.7c0.7-0.8,0.8-2.3,0.8-2.3H145
	c0-0.9-1.1-1.6-2.8-2.2c0.2-0.1,0.5-0.2,0.8-0.6c0.6-0.7,0.7-2.1,0.7-2.1h-0.1c0-0.9-1.3-1.7-3.1-2.1h0.2c0,0,0.5,0.1,0.9-0.5
	c0.5-0.7,0.5-1.8,0.5-1.8h-0.1c0-0.7-0.7-1.3-1.8-1.7c0.1,0,0.4-0.2,0.6-0.5c0.4-0.7,0.4-1.8,0.4-1.8h-0.1c0-0.7-0.6-1.2-1.4-1.7
	l0.6-1.4l-0.4-3.8l-1.2-0.8l-1-2.1l-2-0.7l-1.2,0.6l-0.7,2.3l-1.4,1.2v4l0.6,0.8c-0.9,0.4-1.4,1-1.5,1.7h0c0,0,0,0,0,0c0,0,0,0,0,0
	c0,0,0,0,0,0c0,0.2,0.1,1.2,0.4,1.8c0.2,0.4,0.4,0.5,0.6,0.5c-1.1,0.4-1.8,1-1.9,1.7h0c0,0,0,0,0,0c0,0,0,0,0,0c0,0,0,0,0,0
	c0,0.2,0.1,1.2,0.5,1.8c0.5,0.7,0.9,0.5,0.9,0.5h0.1c-1.9,0.5-3.1,1.3-3.1,2.1h0c0,0,0,0,0,0c0,0,0,0,0,0c0,0,0,0,0,0
	c0,0.3,0.1,1.3,0.6,2c0.3,0.4,0.6,0.5,0.8,0.6c-1.7,0.5-2.8,1.3-2.8,2.2h0c0,0,0,0,0,0c0,0,0,0,0,0c0,0,0,0,0,0
	c0,0.3,0.2,1.5,0.8,2.3c0.7,0.8,1.4,0.7,1.4,0.7h0.5c-2.3,0.6-3.8,1.6-3.8,2.7h0c0,0,0,0,0,0c0,0,0,0,0,0c0,0,0,0,0,0
	c0,0.3,0.2,1.7,0.9,2.6c0.5,0.6,0.9,0.7,1.2,0.8c-1.7,0.6-2.8,1.4-2.8,2.2h0c0,0,0,0,0,0c0,0,0,0,0,0c0,0,0,0,0,0
	c0,0.3,0.2,1.7,0.9,2.5c0.8,0.9,1.7,0.8,1.7,0.8h0.1c-2.6,0.6-4.2,1.6-4.2,2.6h0c0,0,0,0,0,0c0,0,0,0,0,0c0,0,0,0,0,0
	c0,0.3,0.2,1.7,1.1,2.6c1,1,1.9,0.8,1.9,0.8h2.9h4v10.4h4.2l-0.1-10.4l0.1,0h4.1h2.9c0,0,1,0.2,1.9-0.8c1-1,1.1-2.7,1.1-2.7H148.3z"
	/>
<path id="XMLID_4_" d="M126.1,64.3l-0.9-1.6v-1.8l0.4-1.6l1.3-1.2v-0.9v-1.4l0.4-1.1c0.2,0,0.7-0.1,1.1-0.7c0.7-0.8,0.7-2.2,0.7-2.2
	h-0.1c0-0.9-1.3-1.7-3.1-2.2h0.5c0,0,0.6,0.1,1.2-0.6c0.6-0.7,0.6-1.9,0.6-1.9h-0.1c0-0.7-0.9-1.3-2.3-1.8c0.2,0,0.4-0.2,0.7-0.5
	c0.5-0.6,0.5-1.7,0.5-1.7H127c0-0.7-1-1.4-2.6-1.8h0.1c0,0,0.4,0.1,0.8-0.5c0.4-0.5,0.4-1.5,0.4-1.5h-0.1c0-0.6-0.6-1.1-1.5-1.4
	c0.1,0,0.3-0.1,0.5-0.4C125,36.9,125,36,125,36h0c0-0.5-0.5-1-1.2-1.4l0.5-1.2l-0.3-3.2l-1-0.7l-0.8-1.7l-1.7-0.6l-1,0.5l-0.6,1.9
	l-1.1,1v3.3l0.5,0.7c-0.7,0.4-1.2,0.8-1.2,1.4h0c0,0,0,0,0,0c0,0,0,0,0,0c0,0,0,0,0,0c0,0.2,0.1,1,0.4,1.5c0.2,0.3,0.3,0.4,0.5,0.4
	c-0.9,0.4-1.5,0.9-1.5,1.4h0c0,0,0,0,0,0c0,0,0,0,0,0c0,0,0,0,0,0c0,0.2,0.1,1,0.4,1.5c0.4,0.5,0.8,0.5,0.8,0.5h0.1
	c-1.5,0.4-2.6,1-2.6,1.8h0c0,0,0,0,0,0c0,0,0,0,0,0c0,0,0,0,0,0c0,0.2,0.1,1.1,0.5,1.7c0.2,0.3,0.5,0.4,0.6,0.5
	c-1.4,0.4-2.3,1.1-2.3,1.8h0c0,0,0,0,0,0c0,0,0,0,0,0c0,0,0,0,0,0c0,0.2,0.1,1.3,0.6,1.9c0.6,0.7,1.2,0.6,1.2,0.6h0.4
	c-1.9,0.5-3.1,1.3-3.1,2.2h0c0,0,0,0,0,0c0,0,0,0,0,0c0,0,0,0,0,0c0,0.3,0.1,1.4,0.7,2.2c0.4,0.5,0.8,0.6,1,0.7
	c-1.4,0.5-2.3,1.1-2.3,1.8h0c0,0,0,0,0,0c0,0,0,0,0,0c0,0,0,0,0,0c0,0.3,0.2,1.4,0.8,2.1c0.7,0.8,1.4,0.6,1.4,0.6h0.1
	c-2.1,0.5-3.5,1.3-3.5,2.1h0c0,0,0,0,0,0c0,0,0,0,0,0c0,0,0,0,0,0c0,0.3,0.2,1.4,0.9,2.2c0.8,0.8,1.6,0.7,1.6,0.7h2.4h3.3v8.6h3.5
	l-0.1-8.6l0.1,0H126.1z"/>
</svg>
