<svg version="1.1" id="wilderness-desert" xmlns="http://www.w3.org/2000/svg" viewBox="0 0 256 128">
<path id="XMLID_5_" d="M66.6,97.1c1.7,0.3,6.2,5.3,6.2,5.3s0.2-2.3-0.5-5.3c-0.7-2.9-1.2-4-1.2-4s1,0.2,1.7,1
	c0.6,0.8,2.4,4.5,2.4,4.5l2.3-6.8l2.3,7c0,0,0.3-2.2,1.4-3.8c1.1-1.7,2.3-2,2.3-2l-1.6,9.3c0,0,1.2-1.6,2.8-3.2
	c1.7-1.6,3.6-2.1,3.6-2.1l-3.3,7.5c0,0-1.8,4.2-3.6,5.4s-2.9,1.8-4,1.8c-1.1,0-3.3,0.4-4.4-1.3s-2.9-5.3-2.9-5.3s-0.8-2.2-1.5-3.7
	S66.6,97.1,66.6,97.1z"/>
<path id="XMLID_8_" d="M218.5,110.3v-8.1c0,0,1-4.6,4.2-9s7.4-9.9,7.4-9.9s5.3-7.6,5.3-10c0-2.4,0-2.4,0-2.4l5.6-4.6h-5.3l4.5-6
	l-4.9,0.9l-2.5-6l-2.2,5.8l-4.7-1l3.2,5.6h-5l6.7,5.1c0,0,0.3,4.3-1.8,6.8s-10.4,11.9-10.4,11.9s-0.3-0.5,0-6.2
	c0.3-5.7,1.9-10.3,1.9-10.3l1.1-6.6c0,0,0.4-6.4,0.3-8.4s5.9-6.3,5.9-6.3l-4.2-0.9l3.2-4.8l-4.3,0.8l-2.6-4.8l-2.3,4.3l-5-0.6l3.3,6
	h-4l5.7,4.6v9.2l-5.7,16.5c0,0-3.3-2.8-4.5-6c-1.1-3.1-1.3-8.5-1.3-8.5l4.9-4.6l-2.9-0.6l2.2-4.9l-4.2,1.2l-2.2-5.7l-2,4.5l-5.3-0.6
	l3.9,5.5l-3.9-0.3l4.3,5.1c0,0,1,1.9,1,3.3c0,1.3-0.4,4.5,1.1,8.8c1.5,4.3,4.3,7,4.3,7s1.4,1.6,2.1,4.5s0.4,12.8,0.4,12.8v6.6H218.5
	z"/>
<line id="XMLID_9_" x1="117.5" y1="56.1" x2="115.6" y2="53.3"/>
<path id="XMLID_7_" d="M128,106.5l-0.2-9.1c0,0,0.9-3.9,3.8-7.5s6.6-8.3,6.6-8.3s4.8-6.4,4.8-8.4s0-2,0-2l5-3.9h-4.8l4-5l-4.4,0.8
	l-2.3-5l-2,4.9l-4.3-0.9l2.9,4.7h-4.5l6,4.3c0,0,0.3,3.6-1.6,5.7s-9.3,10-9.3,10s-0.3-0.4,0-5.2s1.7-8.6,1.7-8.6l1-5.5
	c0,0,0.4-5.4,0.3-7s5.3-5.3,5.3-5.3l-3.8-0.8l2.9-4l-3.9,0.7l-2.4-4.1l-2,3.6l-4.5-0.5l3,5h-3.6l5.1,3.9v7.7l-5.1,13.8
	c0,0-3-2.4-4-5s-1.1-7.1-1.1-7.1l4.4-3.9l-2.6-0.5l2-4.1l-3.8,1l-2-4.8l-1.8,3.8l-4.8-0.5l3.5,4.6l-3.5-0.2l3.9,4.2
	c0,0,0.9,1.6,0.9,2.8s-0.4,3.8,1,7.4s3.9,5.9,3.9,5.9s1.3,1.4,1.9,3.7s0.4,10.8,0.4,10.8l-0.1,7.9H128z"/>
<path id="XMLID_6_" d="M174.3,81.8v-6.8c0,0-0.9-3.9-3.8-7.5s-6.6-8.3-6.6-8.3s-4.8-6.4-4.8-8.4s0-2,0-2l-5-3.9h4.8l-4-5l4.4,0.8
	l2.3-5l2,4.9l4.3-0.9l-2.9,4.7h4.5l-6,4.3c0,0-0.3,3.6,1.6,5.7c1.9,2.1,9.3,10,9.3,10s0.3-0.4,0-5.2c-0.3-4.8-1.7-8.6-1.7-8.6
	l-1-5.5c0,0-0.4-5.4-0.3-7s-5.3-5.3-5.3-5.3l3.8-0.8l-2.9-4l3.9,0.7l2.4-4.1l2,3.6l4.5-0.5l-3,5h3.6l-5.1,3.9v7.7l5.1,13.8
	c0,0,3-2.4,4-5s1.1-7.1,1.1-7.1l-4.4-3.9l2.6-0.5l-2-4.1l3.8,1l2-4.8l1.8,3.8l4.8-0.5l-3.5,4.6l3.5-0.3l-3.9,4.3
	c0,0-0.9,1.6-0.9,2.8s0.4,3.8-1,7.4s-3.9,5.9-3.9,5.9s-1.3,1.4-1.9,3.7s-0.4,10.8-0.4,10.8v5.5H174.3z"/>
<path id="XMLID_10_" d="M152.8,38l4.6,0.6l0.9-1.8l-3.1-2.2c0,0-7.6-5-10-5.9c-2.1-0.8-3.2-0.2-5.7,0.6h0c-0.3,0.1-0.6,0.2-1,0.3
	c-0.2,0.1-0.3,0.1-0.5,0.1c-0.6-0.1-1.4-0.1-2.3-0.1c0,0-4.1,0.1-8,3.6l-4.2,3.9l-1.9,1.7l-9.9,8.8l-2.7-4.4l2.1-2.1l1.6-0.2
	l0.6-0.5v0c2.6-0.6,4-1.5,4-1.5v-1.1h1.8l1.3,0.5l2.1-1.9c0,0-1.8-1.5-4.6-1.9c-2.8-0.4-3.9,0.7-3.9,0.7s-2.6,0.7-4.7,2.6L107,40
	l-1.2-2l-3-4.7l-4-4.3c0,0-9-8.6-11.8-10.1c-2.5-1.3-3.8-0.4-6.7,1h0c-0.4,0.2-0.7,0.3-1.1,0.5c-0.2,0.1-0.4,0.2-0.6,0.2
	c-0.7-0.1-1.6-0.2-2.8-0.2c0,0-4.9,0.2-9.5,6.3l-5,6.7l-2.3,3l-13,16.9l-0.5-1.2l-1.9-7.3l3-4.3l1.9-0.3l0.7-0.9v0
	c3-1,4.7-2.7,4.7-2.7v-1.8h2.2l1.5,0.9l2.5-3.3c0,0-2.2-2.6-5.5-3.3c-3.3-0.8-4.7,1.2-4.7,1.2s-3.1,1.1-5.6,4.5L21.3,66.2h51.3
	l0.7-10.5l1.6-0.5l2.6-2.8l-4.2-6.9l-1.1-4.1l1.1-1.4l-1.1-3.3v-4.6l5-0.8l0.1-1.9l1.9-1.3l3.3,2.1v-2.4l-2.1-3.5l2-0.8h2.8h1.7
	l25.6,31.8l1-1.9l1-1.8l2.6,4.2h0.4h2.1l-1.6-2.8h3.3l-2.6-5.7l7,0.8l3.3-5l3.3,5.4l3.7,0.1l1.2-0.9l-3.5-4l-0.9-2.4l0.9-0.8
	l-0.9-1.9v-2.7l4.2-0.4l0.1-1.1l1.6-0.7l2.7,1.2V34l-1.8-2l1.7-0.5h2.4h1.5L152.8,38L152.8,38z"/>
<path id="XMLID_11_" d="M46.3,92.3L46.3,92.3l1.7-1h1.1c-1.4-1.5-4-4.1-5.2-4.2c0,0,1.3,2.9,2,4.4C46,91.8,46.2,92,46.3,92.3z"/>
<path id="XMLID_2_" d="M31.3,97.1c1.7,0.3,6.2,5.3,6.2,5.3s0.2-2.3-0.5-5.3s-1.2-4-1.2-4s1,0.2,1.7,1c0.6,0.8,2.4,4.5,2.4,4.5
	l2.3-6.8l2.3,7c0,0,0.3-2.2,1.4-3.8c1.1-1.7,2.3-2,2.3-2l-1.6,9.3c0,0,1.2-1.6,2.8-3.2c1.7-1.6,3.6-2.1,3.6-2.1l-3.3,7.5
	c0,0-1.8,4.2-3.6,5.4s-2.9,1.8-4,1.8c-1.1,0-3.3,0.4-4.4-1.3s-2.9-5.3-2.9-5.3s-0.8-2.2-1.5-3.7S31.3,97.1,31.3,97.1z"/>
<path id="XMLID_4_" d="M62.1,89.2c-1.7,1.6-2.8,3.2-2.8,3.2l1.6-9.3c0,0-1.3,0.3-2.3,2c-1.1,1.7-1.4,3.8-1.4,3.8l-2.3-7l-2.3,6.8
	c0,0-1.8-3.7-2.4-4.5s-1.7-1-1.7-1s0.5,1.1,1.2,4c0.7,2.9,0.5,5.3,0.5,5.3l-0.4,2.2l-1.2,2.7c0.1,0.2,0.2,0.4,0.3,0.6l1.8-1.3
	l1.5-0.6l2.6-0.5l-1.9,6.4c0.8,0.1,1.5,0,2,0c1.1,0,2.2-0.5,4-1.8s3.6-5.4,3.6-5.4l3.3-7.5C65.7,87.1,63.8,87.6,62.1,89.2z"/>
<path id="XMLID_12_" d="M109.1,96.2c-4.5-1.2-8.5-3-8.5-3c-4-1.7-8.1-5.8-8.1-5.8l-12-10.5c0,0-6.5-5.8-12.2-7.5
	c-5.7-1.7-12.1,1.3-23.9,5.5c-11.7,4.1-7.4,4-14.1,7.2c-6.8,3.2-9.6,4.3-9.6,4.3l-9.9,4.1l1.7,0l2.1,0.6l2.1,1.6
	c0,0,5.1-1.3,14.5-4.7s15-6.7,26.6-10.4c11.6-3.6,29,11.7,29,11.7s7.3,6.9,13.9,8.9c6.7,3.4,16.8,4.9,16.8,4.9l0-6
	C117.5,97,113.6,97.3,109.1,96.2z"/>
<path id="XMLID_3_" d="M130.8,103c8.3,0,22.7-1.2,22.7-1.2s2.5-0.3,11.7-2.1c9.2-1.8,20.3-2,20.3-2s6.2,0.7,9.8-2.7
	c3.7-3.3,7.7-9.1,7.7-9.1s-0.5-0.1-2-3.1s-1.5-3-1.5-3s-1.7,6.3-4.7,8c-3,1.7-4,3.1-13.2,4.5c-9.2,1.3-13.7,1.3-22,2.8
	c-8.3,1.5-10.7,3.2-17.3,3.2c-6.7,0-11.9-0.8-11.9-0.8L130.8,103z"/>
</svg>
