<?xml version="1.0" encoding="utf-8"?>
<!-- Generator: Adobe Illustrator 19.0.0, SVG Export Plug-In . SVG Version: 6.00 Build 0)  -->
<svg version="1.1" width="100" height="50" id="Layer_1" xmlns="http://www.w3.org/2000/svg" xmlns:xlink="http://www.w3.org/1999/xlink" x="0px" y="0px"
	 viewBox="-15 25 600 150" style="enable-background:new 0 0 801 200;" xml:space="preserve">
<style type="text/css">
	.st0{fill:none;stroke:#000000;stroke-miterlimit:10;}
	.st1{fill:#3b463e;}
	.st2{fill:#697e6e;}
	.st3{fill:none;stroke:#839B97;stroke-miterlimit:10;}
</style>
<g id="XMLID_20_">
	<path id="XMLID_2_" class="st0" d="M86.2,164.9"/>
	<polygon id="XMLID_8_" class="st1" points="123.7,164.7 145.3,164.7 115.6,108.7 93.9,108.7 	"/>
	<rect id="XMLID_3_" x="60" y="35.1" class="st1" width="21.7" height="129.7"/>
	<path id="XMLID_13_" class="st2" d="M114.2,105.6c17.1,0,31-15.8,31-35.4c0-19.4-13.9-35-31.1-35H84.9v21.7h29.3
		c5.2,0,9.3,6,9.3,13.3c0,7.6-4.2,13.7-9.3,13.7H84.9v21.7H114.2z"/>
</g>
<rect id="XMLID_19_" x="165.5" y="35.1" class="st1" width="21.7" height="129.7"/>
<g id="XMLID_1_">
	<rect id="XMLID_22_" x="207.3" y="35.1" class="st1" width="21.7" height="129.7"/>
	<rect id="XMLID_23_" x="232.3" y="89.2" class="st2" width="60.3" height="21.7"/>
	<rect id="XMLID_24_" x="232.3" y="35.1" class="st2" width="60.3" height="21.7"/>
	<rect id="XMLID_25_" x="232.3" y="143.2" class="st2" width="60.3" height="21.7"/>
</g>
<path id="XMLID_35_" class="st1" d="M334.3,74.1c0-9.6,6.9-17.3,15.3-17.3h48.2V35.1h-48.2c-20.5,0-37,17.4-37,39
	c0,20.2,18.2,36.5,40.7,36.5c12.6,0,22.8,6.8,22.8,15.2c0,9.6-6.9,17.3-15.3,17.3h-48.2v21.7h48.2c20.5,0,37-17.4,37-39
	c0-20.2-18.2-36.5-40.7-36.5C344.5,89.3,334.3,82.5,334.3,74.1z"/>
<path id="XMLID_45_" class="st3" d="M481.1,122.7"/>
<path id="XMLID_51_" class="st1" d="M481.1,122.7c0,11.3-9.3,20.4-20.9,20.4c-11.3,0-20.5-9.1-20.5-20.4H418
	c0,23.3,18.9,42.1,42.2,42.1c23.5,0,42.6-18.8,42.6-42.1V35.1h-21.7V122.7z"/>
</svg>
